<?xml version="1.0" encoding="UTF-8"?><svg id="_レイヤー_2" xmlns="http://www.w3.org/2000/svg" viewBox="0 0 435.96 72.14"><defs><style>.cls-1{fill:#fff;}</style></defs><g id="_レイヤー_1-2"><g><path class="cls-1" d="M105.53,43.45c0,3.77-6.06,7.09-8.8,9.83-1.03,1.26-2.74,1.26-3.77,2.52-2.17,2.17-9.95,5.03-13.03,6.52-.57,.34-4.12,2.4-4.12,2.74,0,.57,2.97,1.03,3.54,1.03s1.14-.11,1.83-.34c1.71-.46,2.97-.23,4.69-.57,2.63-.34,5.15-1.71,7.78-1.71,.46,0,1.83,.34,1.83,.92,0,3.2-20.12,5.72-23.55,5.72-3.2,0-6.29-1.49-9.6-1.49-4.57,0-9.15,.91-13.72,.91-2.86,0-8.69-.69-10.86-2.51-2.17-2.17-4.46-6.4-4.46-9.49,0-1.26,.23-2.17,.23-3.2s-.23-3.32-1.6-3.32c-.8,0-3.09,3.09-4.46,3.66-6.86,2.4-10.29,7.32-16.46,10.4-2.17,.92-9.03,5.72-10.75,5.72-.11,0-.23,0-.23-.23,0-.34,.46-1.49,.57-1.83,.34-.34,8.35-4.57,9.83-6.06,2.06-2.06,7.55-7.55,9.95-8.46,3.43-1.26,14.41-9.15,15.78-12.12,3.66-7.78,8.8-15.66,14.63-21.61,3.66-3.66,9.95-9.6,14.18-12.35,1.71-.91,2.74-2.74,4.92-3.09,2.4-.57,4.34-2.29,6.75-2.74,4.46-1.03,9.15-2.29,13.72-2.29,3.77,0,5.6,1.94,5.6,5.72,0,1.94-1.03,2.29-1.94,3.66-1.26,1.71-2.06,3.2-4,4.46-2.63,1.83-4.8,4.46-8,5.49-1.94,.57-2.97,2.63-4.92,3.2-3.66,.92-5.95,3.89-8.8,6.06-1.71,1.26-3.66,1.26-5.03,2.74-.8,1.26-12.81,7.89-14.75,8.46-1.83,.57-2.52,1.49-3.89,2.74-1.71,1.71-3.32,.69-4.46,4-1.03,2.86-1.49,6.52-1.49,9.6,0,4.57,1.71,9.6,7.32,9.6,1.71,0,3.2-.34,4.92-.34,1.26,0,4-.23,4-1.94,0-1.26-.69-2.51-.69-3.77,0-1.83,.69-3.43,1.6-5.15,1.83-3.09,8.12-10.86,11.2-12.46,1.83-.92,3.43-2.74,5.37-3.32,1.49-.46,2.74-.91,4.23-1.71,1.03-.46,3.2-1.6,4.46-1.6,.57,0,1.03-.23,1.6-.34,4.92-1.37,9.49-2.63,15.09-2.63,1.03,0,2.63,0,3.54,.57,2.17,1.49,5.03,2.86,5.03,5.95,0,1.49-.8,2.74-.8,4.46ZM86.44,4.8h-.57c-1.49,0-2.97,0-4.69,.11-6.4,.34-5.83,2.52-8,2.86-2.17,.46-2.97,.34-4.46,2.06-2.86,3.43-7.32,4.34-10.06,7.89-1.71,2.63-8.8,7.43-9.15,9.95,0,.57,0,.91-.11,1.14-.34,.57-4.69,4.23-4.69,7.32,0,.57,.23,.8,.8,.8,1.71,0,8.58-4.92,10.63-6.06,3.09-1.71,6.29-2.97,9.38-5.15,4-2.74,8-5.03,12.12-7.66,3.09-1.83,13.03-7.77,13.03-11.66,0-1.49-2.86-1.6-4.23-1.6Zm8.92,32.13c-2.29,0-4.92,.11-7.2,.69-.57,.11-1.37,.69-1.94,.69-.46,0-.92-.23-1.37-.23-4.23,0-9.03,4.34-13.38,5.26-1.83,.57-7.32,10.52-8.8,12.69-.8,1.03-1.26,2.17-1.26,3.43,0,1.49,1.26,3.89,2.97,3.89,1.03,0,1.83-.57,3.09-.57,.46,0,.91,.23,1.37,.23,1.49,0,2.29-1.37,3.54-1.83,.8-.34,1.6-.34,2.4-.46,5.95-.91,14.29-6.63,19.32-9.83,2.74-1.49,8.69-7.2,8.69-10.4,0-2.29-5.72-3.54-7.43-3.54Z"/><path class="cls-1" d="M153.82,64.94c-1.26,.34-3.09,.57-4,1.49-1.26,.92-4.46,1.26-5.26,2.06-.91,1.26-5.03,.91-6.29,1.26-2.63,.46-5.83,1.83-8.46,1.94-.91,0-2.17-.23-3.2-.23-.57,0-1.14,0-1.6,.34-.46,.23-.8,.34-1.14,.34s-.69-.11-1.03-.11c-2.4,0-3.54-1.83-3.54-4s.23-4.46,2.06-5.95c2.17-1.83,2.63-2.63,3.89-5.03,.8-1.26,2.17-3.54,3.54-4.12,1.37-.57,1.71-1.26,2.29-2.63,.11-.34,.23-.57,.23-.69s-.11-.23-.23-.23c-1.03,0-5.83,3.66-7.89,3.66-.34,0-.23-.11-.57-.11-.8,0-2.17,1.71-2.74,2.17-1.26,1.26-2.74,1.71-4,2.97-1.37,1.26-3.2,2.29-4.69,3.09-.69,.46-1.72,1.03-3.09,1.71-1.03,.57-1.94,1.14-2.63,1.26-1.72,.34-2.86,1.6-4.34,1.6-.57,0-.92-.23-.92-.69,0-.57,.57-1.37,1.49-1.83,2.29-1.14,1.83-1.03,4-2.29,2.17-1.03,3.32-2.17,5.6-2.52,1.83-.34,1.71-1.03,2.74-2.29,1.03-1.26,1.49-1.03,2.97-1.49,1.72-.46,1.83-1.83,3.2-2.4,2.74-.92,2.51-1.83,5.83-3.09,2.17-.8,2.97-2.51,4.92-3.32,1.83-.8,3.43-1.37,5.15-2.4,1.03-.8,2.06-1.49,3.32-2.06,1.71-.91,2.06-2.17,4.8-3.09,2.06-.92,7.32-4.57,8.92-4.57,.8,0,1.71,1.83,1.71,2.63,0,.57-.34,1.14-1.14,1.71-1.37,1.37-6.4,6.29-7.89,6.63-1.49,.57-4.23,4.46-6.97,5.72-3.89,1.83-1.71,1.26-3.43,3.66-1.03,1.37-2.17,2.86-3.54,3.66-1.6,.92-4.69,5.95-4.69,7.78,0,.91,.46,2.29,2.06,2.29h1.6c.8,0,1.71,0,2.52-.23,2.29-.34,4.46,0,6.63-.8q.8-.34,1.71-.34c.8,0,1.94-.46,2.4-.8,2.17-1.26,2.86-.23,5.15-1.71,1.37-.92,2.74-.8,4.23-1.6,.57-.34,2.06-1.03,2.86-1.03,.57,0,.92,.69,.92,1.14,0,1.03-2.52,2.17-3.43,2.51Z"/><path class="cls-1" d="M187.8,63.8c-1.03,.8-2.74,1.14-3.54,1.72-.8,.57-1.26,.69-2.17,.8-.92,0-4.46,1.37-5.03,1.71-.57,.34-1.26,.57-1.83,.57-.8,0-2.17,.34-2.97,.34-.34,0-.8,.11-1.37,.23-1.94,.8-2.4,.69-4.57,.8-1.26,.11-3.54,.57-4.8,.57-2.17,0-4.57-1.71-4.57-4,0-2.4,2.4-4.92,4.34-5.95,4.57-2.4,6.86-6.52,11.32-8.92,.92-.46,2.4-2.4,3.2-2.4s.8,1.37,.8,1.83c0,1.71-1.03,2.17-2.29,2.97-.46,.11-.8,.34-1.03,.46-1.71,1.03-3.54,2.86-4.8,4.57-1.26,1.6-4.92,4.34-4.92,6.4v.46c0,.46,.69,.69,1.26,.69h1.71c1.03,0,1.71,.46,2.74,.46,1.37,0,3.2-.46,5.15-1.03,1.94-.57,3.77-1.03,4.57-1.03,1.03,0,2.74-.91,4.34-1.49,1.03-.34,1.94-.91,2.74-1.26,.57-.34,1.26-.69,2.17-.69,.46,0,.46,.23,.46,.57,0,.69-.34,1.14-.91,1.6Zm1.6-31.56c-.11,0-.46-.11-.92-.23-1.71-.57-.46-1.83-2.29-2.4-.46-.11-1.03-.46-1.03-.91,0-1.37,2.97-2.74,4-2.74,.34,0,.69,.23,1.03,.8,.34,1.03,.92,1.83,.92,2.86s-.46,2.63-1.71,2.63Z"/><path class="cls-1" d="M275.57,63.34c-.57,.46-2.86,1.71-3.89,2.06-1.03,.34-3.09,1.26-4.12,1.71-.46,.23-2.17,.69-3.77,1.26-2.06,.8-5.26,1.49-5.83,1.49-1.37,0-3.43-.23-5.03-1.03-1.26-.57-2.17-1.6-2.17-2.97v-1.03c0-.91,0-2.06-.34-3.2,0-.23-.11-.34-.11-.57,0-.8,.34-1.72,.34-2.17,0-.23,0-.34-.23-.34-.69,0-2.63,.8-4.34,2.29-1.83,1.49-2.74,2.06-3.89,2.52-1.71,.8-3.2,3.2-5.03,3.54-.8,.11-1.6,.91-2.4,1.26-.8,.34-1.6,.57-2.52,.57-1.6,0-2.52-.57-2.97-1.83-.23-.57-.69-.69-.69-1.49,0-.34,.11-.8,.34-1.49,.46-1.26,.11-2.52,.46-3.77,.23-.69,.23-1.83,.23-2.52,0-.8-.46-.91-.91-1.26-.46-.46-1.26-.57-2.06-.57-.46,0-1.94,.23-3.77,1.37l-2.17,1.37c-1.03,.69-1.94,1.37-2.17,1.6-.8,.8-1.49,1.26-2.52,1.26-.8,0-2.63,1.94-3.54,2.4-1.72,.57-2.52,2.4-3.54,3.66-.57,.8-1.26,2.06-2.52,2.06-.57,0-1.94-.46-1.94-1.26,0-1.94,1.49-2.97,2.52-5.15,.57-1.26,1.03-2.97,1.03-5.37,0-.91-.12-2.17-1.37-2.17-1.72,0-3.43,1.26-4.46,2.29-1.26,1.26-3.09,1.26-4.12,2.52-.57,.57-2.06,1.14-2.74,1.49-1.71,.8-2.06,1.03-3.77,1.94-.34,.34-1.03,.69-1.6,.69-.34,0-.69-.23-.69-.69,0-.23-.11-.57-.11-.8,0-.11,0-.23,.11-.34,.46-.46,1.49-.8,2.51-1.49,1.14-.8,1.94-1.14,3.2-1.94,1.26-.91,2.29-1.49,3.54-2.29,2.17-1.37,4-2.97,6.17-4.69,1.37-1.26,3.09-2.29,5.03-2.29,3.77,0,3.89,1.83,3.89,4.12v.91c0,.46,0,1.03,.23,1.6,0,.23,0,.46,.12,.69,.11,.34,.34,.57,.69,.57,.57,0,1.71-1.37,2.52-1.71,1.71-.57,2.51-1.14,3.77-2.17,.69-.57,2.86-1.49,4.92-2.17,2.06-.69,4-1.26,4.8-1.26,1.6,0,2.4,1.26,2.97,2.97,.11,.57,.23,1.26,.23,1.94,0,.91,0,1.83-.11,2.74-.11,.91-.46,1.49-.46,2.29,0,0-.11,1.26-.34,2.17-.12,.23-.12,.46-.12,.69,0,.92,.69,.92,1.03,.92,.92,0,4-2.06,4.8-2.4,2.29-.91,3.32-1.83,5.37-3.2,1.26-.8,2.52-1.71,3.54-2.97,1.83-2.17,5.49-4.34,8.35-4.34,1.26,0,1.37,.92,1.37,2.17s.34,1.94,.34,3.43c0,.91-.91,2.86-.91,3.54,0,.23-.69,1.6-.8,1.83-.11,.34-.23,.8-.23,1.14,0,.8,.34,1.6,1.37,2.17,.34,.11,.8,.23,1.49,.23,.8,0,1.6-.11,2.17-.11,1.49,0,4.46-.23,5.95-.8l3.2-1.03,1.83-.92c1.26-.46,3.2-1.83,4.34-1.94,.34,0,.69,.23,.69,.69-.11,.69-.69,1.26-1.14,1.6Z"/><path class="cls-1" d="M326.68,64.6c-.8,.23-1.6,1.14-2.4,1.49-2.74,1.14-2.63,1.71-4.34,2.06-.8,.12-1.03,0-1.6,.46-.8,.46-1.83,.69-2.63,.69-.46,0-.69,.23-1.14,.23-.8,0-1.6,.23-2.51,.23-.8,0-1.26-.23-2.06-.23-.46,0-.8,.11-1.14,.11-1.71,0-4-1.26-4.8-2.63-.57-.92-.57-3.43-1.6-3.43-.57,0-1.03-.11-1.6-.11-2.17,0-2.29,2.4-5.49,2.97-1.26,.11-3.32,1.37-3.66,1.37-.8,0-1.49,.57-2.29,.57-.46,0-.46-.23-.8-.23-.57,0-1.14,.46-1.83,.46-.34,0-.57-.11-.91-.11-.92,0-1.6,.46-2.4,.46-1.03,0-2.17-.34-3.09-.34-1.03,0-2.06-.92-2.86-1.26s-.92-1.83-.92-2.63c0-2.17,4.12-5.26,5.49-6.97,.57-.8,1.37-.91,2.17-1.71,.91-1.26,2.51-1.6,3.54-2.86,.8-.8,3.89-1.71,4.12-1.71,.57-.46,1.37-.57,1.71-1.03,.8-.91,2.17-1.49,3.43-1.49,.46,0,.8,.34,1.14,.34,.8,0,1.03-.57,1.83-.57,1.72,0,3.66,1.14,3.66,2.86,0,1.83-3.32,2.4-4.92,2.4-.34-.11-2.29-.46-2.63-.46s-.8,.12-1.37,.46c-.23,.11-.46,.23-.69,.23-.34,0-.69-.11-1.14-.11-.57,0-1.14,.11-1.83,.57-1.26,1.03-2.51,1.71-3.32,2.29-.46,.34-1.03,.91-2.29,1.83-.8,.57-2.74,2.63-2.74,3.54,0,2.17,3.2,3.09,4.57,3.09,1.94,0,3.54-1.37,5.72-1.37s2.06-1.14,3.43-1.37c.11,0,.92-.23,1.26-.23,1.26,0,3.77-2.4,5.26-2.97,1.03-.34,.92-1.37,1.94-1.83,.91-.46,.57-1.26,1.49-1.37,1.83-.46,3.54-1.83,5.49-1.83,.57,0,1.26,.34,1.26,.92,0,.46-.57,1.94-1.03,1.94-.34,0-.34-.23-.69-.23s-.46,.8-.46,1.14c-.34,1.71-1.49,3.09-1.49,4.8,0,2.17,2.4,2.17,4.12,2.52,.57,.11,1.03,.46,1.83,.46,.57,0,.92-.46,1.71-.46,.34,0,.46,.23,.8,.23,.57,0,1.03-.8,2.4-.8,1.26,0,2.97-1.14,4-1.49,1.26-.46,2.17-1.37,3.43-1.37,.46,0,1.37,0,1.37,.57,0,.8-1.71,1.71-2.51,1.94Z"/><path class="cls-1" d="M422.74,46.76h-1.03c-1.72,0-3.2-.46-4.92-.46-.57,0-1.03,0-1.26,.11-.57,.34-2.17,.34-3.89,.34h-3.77c-1.26,0-2.52,.34-3.77,.34-2.17,0-4.23-.34-6.4-.34-1.71,0-3.2,.46-4.92,.46-1.26,0-2.52-.34-3.77-.34-2.4,0-4.69,.46-6.97,.46-1.26,0-2.4-.23-3.66-.23-1.71,0-3.43,.57-5.14,.57-1.26,0-2.29-.34-3.54-.34-3.54,0-6.86,5.26-9.6,7.09-1.26,.8-2.52,1.71-3.32,3.09-.91,1.83-4.12,3.09-4.12,6.97,0,2.06,3.54,2.52,5.03,2.52,1.71,0,3.09-.11,4.8-.23,1.49,0,2.97-1.14,4.46-1.14,1.83,0,8.8-1.83,10.29-2.74,0,0,1.03-.34,2.06-.8,.8-.34,2.17-1.37,2.86-1.37,.11,0,.23,0,.34,.11,.34,.23,.46,.57,.46,.92,0,.11-.11,.34-.11,.46-.23,.92-1.14,1.03-1.6,1.37-.92,.57-3.2,1.26-4,2.06-1.37,1.26-3.89,1.14-5.6,1.94-2.29,1.03-6.4,1.83-9.03,1.83-2.29,0-4.57,1.03-6.97,1.03-3.89,0-9.95-.57-9.95-5.72,0-1.26,.69-1.94,1.6-2.52,3.66-2.06,4.8-7.89,7.77-9.03,.8-.46,2.74-1.03,2.74-2.29v-.46c0-.23,0-.46-.23-.46-1.83,0-7.89,5.37-9.15,6.63-1.37,1.83-4.23,2.74-6.4,3.77-.57,.11-.91,.34-1.26,.69-1.03,.69-2.86,1.14-4.92,2.17-1.49,.8-3.2,1.71-4.69,2.29-1.49,.57-2.52,1.37-3.43,1.37-.46,0-.8-1.14-.8-1.26,.11-.92,2.52-1.83,3.32-2.06,1.26-.34,1.83-1.26,3.09-1.6,1.94-.69,1.03-.34,2.52-1.6,.8-.8,2.4-.34,4.23-2.06,.34-.34,2.4-1.49,3.89-2.63,1.49-1.03,2.97-2.29,4.57-3.43,1.94-1.37,4-2.86,4-3.2,0-.8-1.26-1.37-2.06-1.37l-3.09,.34c-.57,0-1.14-.23-2.06-.23-.69,.11-1.71,.23-2.63,.23l-.8-.11c-.34,0-.8,0-1.14-.11-.34,0-1.03-.12-1.37-.34-.34-.23-.8-.91-.8-1.03,.11-.57,.8-.8,1.94-1.14,.46-.23,1.14-.23,1.71-.23h1.26c.57,0,1.14,0,1.71-.11,.8-.11,1.6-.11,2.17-.11,1.26,0,2.06,.11,2.63,.11h2.06c2.17,0,4.8-.11,7.2-.69,2.74-.69,4.69-1.14,6.52-2.86,1.72-1.49,2.74-2.52,5.03-2.97,1.6-.34,2.63-1.26,4.69-2.52,1.6-.91,3.32-2.06,4.92-3.2,2.06-1.37,3.66-2.63,5.49-3.54,1.6-.8,2.74-1.49,3.89-1.49,.8,0,1.14,.34,1.14,.91,0,.8-1.03,1.6-2.4,2.4-1.71,.92-3.32,1.94-4,2.86-1.14,1.37-4,3.2-6.86,5.03-2.52,1.6-4,3.2-4.12,4.69l.34,.34c1.49,.46,4.34,.46,6.4,.46,2.29,0,4.46-.46,6.75-.46,1.26,0,1.94,.69,3.2,.69,.46,0,1.03-.23,1.49-.23,2.29,0,4.57,.8,6.97,.8,1.71,0,2.86-1.14,4.57-1.14,1.03,0,1.94,.46,2.97,.46,1.83,0,3.54-.69,5.26-.69s3.09,.23,4.8,.23,3.43-.23,5.15-.23h.69c1.26,0,2.74,.11,2.74,1.49s-1.14,1.49-2.17,1.49Z"/><path class="cls-1" d="M435.16,63.57c-.69,.57-2.06,1.26-2.86,1.72-.8,.46-3.09,1.6-3.66,1.71-.69,.23-1.14,.46-1.83,.8-1.14,.57-2.17,1.14-3.43,1.37-.92,.23-2.06,.23-3.2,.46-.92,.12-1.83,.46-2.4,.8-.46,.23-.91,.34-1.26,.34-.57,0-1.14-.11-1.71-.11-1.26,0-2.17,.46-3.43,.46h-.46c-1.26,0-2.86,0-3.89-.46-.8-.34-2.06-.34-2.86-.34-1.71-.11-2.63-1.14-4.12-1.49-1.71-.34-2.97-2.52-2.97-4.34,0-1.03,1.37-3.09,2.4-4.92,1.14-2.17,3.09-4.46,4.34-4.92l2.17-1.83c1.49-1.26,3.2-2.63,5.03-3.66,1.49-.8,2.97-1.49,4.57-1.49,.91,0,1.71-.57,2.63-.57,.11,0,1.26,.46,1.37,.46,.57,.8,1.83,.8,1.83,1.83,0,1.83-3.09,6.29-4.8,6.63-1.94,.57-3.89,2.06-5.72,3.09-1.94,1.03-3.43,1.6-5.49,2.63-.34,.11-2.63,1.14-2.63,1.6,0,1.14,.57,1.83,1.6,2.52,2.17,1.37,5.26,2.06,6.97,2.06,1.26,0,2.17-.11,3.43-.11,2.63,0,4.8-.69,7.43-1.03,.57-.12,1.49-.23,2.4-.57,1.14-.34,2.4-.91,3.54-1.37,1.14-.57,4.8-2.06,5.49-2.63,.57-.34,1.03-.57,1.6-.57,.46,0,.69,.23,.69,.69,0,.57-.46,.92-.8,1.26Zm-20.12-12.23c-1.03,0-5.37,2.86-6.4,3.66-.57,.46-1.6,1.37-1.6,2.29,.34,0,.8,.11,1.14,.11,1.26,0,1.37-1.14,2.29-1.14,1.14,0,2.29-2.74,4.34-2.74,.57,0,.92-1.71,.92-2.06l-.69-.11Z"/></g></g></svg>