<?xml version="1.0" encoding="UTF-8"?><svg id="_レイヤー_2" xmlns="http://www.w3.org/2000/svg" viewBox="0 0 604.07 72.49"><defs><style>.cls-1{fill:#fff;}</style></defs><g id="_レイヤー_1-2"><g><path class="cls-1" d="M94.33,14.29c-1.71,0-1.83-.12-1.83-.92,0-.34,.11-.69,.11-1.14,0-.8-.46-1.26-1.49-1.26-1.94,0-6.4,2.06-7.32,3.89-.11,.34-.23,.92-.69,.92s-.8-.46-1.26-.46c-1.03,0-1.14,1.83-1.14,2.63,0,2.29,.34,4.69,.34,6.97,0,4-1.83,7.55-2.63,11.55,0,.46-.23,.8-.34,1.14-1.26,2.63-2.63,4.57-3.2,7.2-.46,2.17-2.52,3.09-2.52,4.57,0,.8,.23,1.37,.34,2.17-2.29,2.17-3.66,3.54-5.15,6.4-1.49,3.2-6.52,8.92-9.6,10.4-2.17,1.26-4.46,1.14-6.63,1.94-2.74,.57-1.14,.8-4.46,.8-.92,0-1.71,.11-2.52,.34-1.49,.34-10.06,1.03-11.55,1.03-5.03,0-9.38-3.2-14.29-3.2-3.54,0-5.49-2.52-7.55-2.52-1.26,0-1.71,1.49-4.46,1.49-3.54,0-6.52-1.14-6.52-5.14,0-1.26,1.26-1.83,1.6-2.86,.57-1.71,.46-3.89,1.83-5.15,.57-.34,.92-.69,1.03-1.03,.8-1.26,.8-2.17,2.52-2.17,5.95,0,2.29,7.2,9.26,9.6,.34,.11,.57,.23,.92,.23,4,0,6.17-4.12,9.95-5.03,1.83-.46,3.77-2.17,5.03-3.54,2.17-2.52,2.63-1.71,2.63-5.26,0-3.09-9.26-9.15-9.26-15.21,0-5.72,4.46-10.18,6.86-14.98,.92-1.83,6.17-5.15,8-6.4,2.4-1.37,3.89-3.09,5.83-4.92,.8-.8,2.52-1.14,3.77-1.6l1.03-.69c.46-.57,1.14-.57,1.94-.69,1.26-.34,2.17-.46,3.09-1.26,1.26-.69,9.26-2.17,10.86-2.17,11.89,0,12.23,9.38,14.86,9.38,2.17,0,5.6-2.52,7.66-2.52,.8,0,1.14,.46,1.71,.46,1.26,0,2.06-.8,3.09-.8,1.26,0,3.32,2.74,3.32,4,0,1.37-1.71,3.77-3.2,3.77ZM6.86,61.4c-1.72,0-1.83,1.83-1.83,3.09,0,.91,0,2.63,1.26,2.63,.8,0,2.52-2.29,2.52-2.97,0-.92-.92-2.74-1.94-2.74Zm48.59-8.92c-1.37,0-2.74-.23-4.12-.23-2.63,0-5.15-2.17-7.43-2.17-.8,0-1.14,.69-1.6,1.14-.92,.91-6.97,3.66-8.46,4-1.71,.57-4.23,4.34-5.37,4.34-1.03,0-3.43,2.97-4.8,3.66-.92,.46-2.17,1.03-2.17,2.29,0,.91,1.14,2.06,2.4,2.06,1.71,0,3.32,.8,5.03,.8,.57,0,1.03-.34,1.6-.34,1.71,0,3.09,1.26,4.8,1.26,2.63,0,4.92-.34,7.55-.34,1.03,0,2.17,.23,3.2,.23,4.8,0,7.32-4.46,10.06-4.46,1.6,0,7.43-6.06,7.43-7.77,0-4.12-5.03-4.46-8.12-4.46ZM74.77,7.66c-1.49-2.86-3.43-3.2-6.52-3.2-2.17,0-4.23-.34-6.4-.34-6.29,0-7.32,1.6-12,5.26-2.06,1.83-1.49,0-3.89,2.97-.34,.34-.57,.8-1.03,.8-1.49,0-3.54,2.97-4.57,4-3.09,2.86-4.34,6.86-7.2,9.72-1.49,1.49-1.6,3.2-1.6,5.15,0,6.06,3.32,9.03,8.35,11.78,.46,.34,.8,.46,1.37,.46,.8,0,.92-.57,1.26-1.14,.8-1.37,2.63-1.71,3.43-3.2,.34-.57,.8-1.6,1.6-1.6,1.49,0,3.54-1.6,4.12-2.86,.11-.34,.23-.57,.57-.8,3.66-2.4,14.52-12.92,16.35-13.83,1.26-.57,1.94-1.49,1.94-2.74,0-.69,4.46-2.17,5.15-3.2,.57-.69,.8-1.37,.8-2.17,0-1.71-.92-3.54-1.71-5.03Zm-.23,14.63c-1.03,0-4.8,2.74-6.17,3.43-3.09,1.49-6.4,4.34-8.58,7.09-1.71,2.17-4.34,4.8-6.63,6.06-1.83,.92-6.4,5.37-6.4,7.2,0,.92,.8,1.37,1.6,1.71,1.14,.57,5.72,2.86,6.52,2.86,.92,0,1.72-.11,2.63-.11s1.71,.46,2.52,.46c1.49,0,1.94-1.26,2.4-1.26,.92,0,1.6,.57,2.52,.57,3.2,0,7.55-9.95,8.12-12.69,.11-.91,.23-1.94,.69-2.74,.46-.92,.69-1.83,.69-2.74s-.11-1.94-.11-2.86c0-1.26,1.37-2.52,1.37-4.69,0-.8-.12-2.29-1.14-2.29Z"/><path class="cls-1" d="M116.25,63.8c-.69,.57-2.06,1.26-2.86,1.72-.8,.46-3.09,1.6-3.66,1.71-.69,.23-1.14,.46-1.83,.8-1.14,.57-2.17,1.14-3.43,1.37-.92,.23-2.06,.23-3.2,.46-.92,.12-1.83,.46-2.4,.8-.46,.23-.92,.34-1.26,.34-.57,0-1.14-.11-1.71-.11-1.26,0-2.17,.46-3.43,.46h-.46c-1.26,0-2.86,0-3.89-.46-.8-.34-2.06-.34-2.86-.34-1.71-.11-2.63-1.14-4.12-1.49-1.71-.34-2.97-2.52-2.97-4.34,0-1.03,1.37-3.09,2.4-4.92,1.14-2.17,3.09-4.46,4.34-4.92l2.17-1.83c1.49-1.26,3.2-2.63,5.03-3.66,1.49-.8,2.97-1.49,4.57-1.49,.91,0,1.71-.57,2.63-.57,.11,0,1.26,.46,1.37,.46,.57,.8,1.83,.8,1.83,1.83,0,1.83-3.09,6.29-4.8,6.63-1.94,.57-3.89,2.06-5.72,3.09-1.94,1.03-3.43,1.6-5.49,2.63-.34,.11-2.63,1.14-2.63,1.6,0,1.14,.57,1.83,1.6,2.52,2.17,1.37,5.26,2.06,6.97,2.06,1.26,0,2.17-.11,3.43-.11,2.63,0,4.8-.69,7.43-1.03,.57-.12,1.49-.23,2.4-.57,1.14-.34,2.4-.91,3.54-1.37,1.14-.57,4.8-2.06,5.49-2.63,.57-.34,1.03-.57,1.6-.57,.46,0,.69,.23,.69,.69,0,.57-.46,.92-.8,1.26Zm-20.12-12.23c-1.03,0-5.37,2.86-6.4,3.66-.57,.46-1.6,1.37-1.6,2.29,.34,0,.8,.11,1.14,.11,1.26,0,1.37-1.14,2.29-1.14,1.14,0,2.29-2.74,4.34-2.74,.57,0,.92-1.71,.92-2.06l-.69-.11Z"/><path class="cls-1" d="M169.69,65.17c-1.26,.34-3.09,.57-4,1.49-1.26,.92-4.46,1.26-5.26,2.06-.92,1.26-5.03,.91-6.29,1.26-2.63,.46-5.83,1.83-8.46,1.94-.92,0-2.17-.23-3.2-.23-.57,0-1.14,0-1.6,.34-.46,.23-.8,.34-1.14,.34s-.69-.11-1.03-.11c-2.4,0-3.54-1.83-3.54-4s.23-4.46,2.06-5.95c2.17-1.83,2.63-2.63,3.89-5.03,.8-1.26,2.17-3.54,3.54-4.12s1.71-1.26,2.29-2.63c.11-.34,.23-.57,.23-.69s-.11-.23-.23-.23c-1.03,0-5.83,3.66-7.89,3.66-.34,0-.23-.11-.57-.11-.8,0-2.17,1.71-2.74,2.17-1.26,1.26-2.74,1.71-4,2.97-1.37,1.26-3.2,2.29-4.69,3.09-.69,.46-1.71,1.03-3.09,1.71-1.03,.57-1.94,1.14-2.63,1.26-1.71,.34-2.86,1.6-4.34,1.6-.57,0-.91-.23-.91-.69,0-.57,.57-1.37,1.49-1.83,2.29-1.14,1.83-1.03,4-2.29,2.17-1.03,3.32-2.17,5.6-2.52,1.83-.34,1.71-1.03,2.74-2.29s1.49-1.03,2.97-1.49c1.71-.46,1.83-1.83,3.2-2.4,2.74-.92,2.52-1.83,5.83-3.09,2.17-.8,2.97-2.52,4.92-3.32,1.83-.8,3.43-1.37,5.14-2.4,1.03-.8,2.06-1.49,3.32-2.06,1.71-.91,2.06-2.17,4.8-3.09,2.06-.92,7.32-4.57,8.92-4.57,.8,0,1.71,1.83,1.71,2.63,0,.57-.34,1.14-1.14,1.71-1.37,1.37-6.4,6.29-7.89,6.63-1.49,.57-4.23,4.46-6.97,5.72-3.89,1.83-1.71,1.26-3.43,3.66-1.03,1.37-2.17,2.86-3.54,3.66-1.6,.92-4.69,5.95-4.69,7.78,0,.91,.46,2.29,2.06,2.29h1.6c.8,0,1.72,0,2.52-.23,2.29-.34,4.46,0,6.63-.8q.8-.34,1.71-.34c.8,0,1.94-.46,2.4-.8,2.17-1.26,2.86-.23,5.14-1.71,1.37-.92,2.74-.8,4.23-1.6,.57-.34,2.06-1.03,2.86-1.03,.57,0,.92,.69,.92,1.14,0,1.03-2.52,2.17-3.43,2.51Z"/><path class="cls-1" d="M203.67,64.03c-1.03,.8-2.74,1.14-3.54,1.71-.8,.57-1.26,.69-2.17,.8-.91,0-4.46,1.37-5.03,1.71-.57,.34-1.26,.57-1.83,.57-.8,0-2.17,.34-2.97,.34-.34,0-.8,.11-1.37,.23-1.94,.8-2.4,.69-4.57,.8-1.26,.11-3.54,.57-4.8,.57-2.17,0-4.57-1.71-4.57-4,0-2.4,2.4-4.92,4.34-5.95,4.57-2.4,6.86-6.52,11.32-8.92,.91-.46,2.4-2.4,3.2-2.4s.8,1.37,.8,1.83c0,1.71-1.03,2.17-2.29,2.97-.46,.11-.8,.34-1.03,.46-1.71,1.03-3.54,2.86-4.8,4.57-1.26,1.6-4.92,4.34-4.92,6.4v.46c0,.46,.69,.69,1.26,.69h1.72c1.03,0,1.71,.46,2.74,.46,1.37,0,3.2-.46,5.14-1.03s3.77-1.03,4.57-1.03c1.03,0,2.74-.91,4.34-1.49,1.03-.34,1.94-.91,2.74-1.26,.57-.34,1.26-.69,2.17-.69,.46,0,.46,.23,.46,.57,0,.69-.34,1.14-.92,1.6Zm1.6-31.56c-.11,0-.46-.11-.91-.23-1.72-.57-.46-1.83-2.29-2.4-.46-.11-1.03-.46-1.03-.91,0-1.37,2.97-2.74,4-2.74,.34,0,.69,.23,1.03,.8,.34,1.03,.91,1.83,.91,2.86s-.46,2.63-1.71,2.63Z"/><path class="cls-1" d="M243.83,65.06c-.8,.34-.8,.69-1.6,.69s-2.74,.8-3.32,1.26c-.92,.91-3.2,.57-4.69,1.83-1.72,1.26-3.32,.34-4.8,1.26-1.37,.8-2.74,.23-4.12,1.03-.57,.46-2.17,.46-3.09,.46l-2.06,.34-3.89-.11c-2.17,0-4.69-.11-6.06-.8-1.37-.57-3.32-.46-4.23-2.17-.57-1.03-1.26-1.49-1.26-3.09s1.03-3.2,2.74-4.46c1.6-1.14,4.23-3.66,4.23-3.66,1.14-1.03,3.09-1.94,4.57-2.97,1.6-1.14,4-2.29,5.95-3.66,1.49-1.03,6.17-2.17,7.09-2.17,2.17,0,4.57,1.49,4.57,3.77,0,.57-.11,1.03-.46,1.37-1.49,1.83-.23,2.06-2.74,3.89-1.03,.57-1.26,1.03-1.83,2.06-1.03,2.17-2.4,1.71-3.89,2.74-.57,.46-.8,.91-1.71,.91-.8,0-2.63-.11-2.63-1.37,0-2.29,3.2-3.2,4.8-4.12,.91-.57,2.29-2.74,2.74-3.66,.23-.34,.34-.57,.34-.92,0-.8-.57-1.03-1.37-1.03-1.94,0-5.03,1.71-7.09,2.74-1.94,1.03-3.09,2.29-4.57,3.43-.92,.8-2.29,1.49-3.09,2.63-.8,1.14-2.06,2.06-2.06,3.77,0,.23,.11,.46,.11,.69,.34,1.49,.46,1.26,1.83,2.29,.57,.57,2.29,.57,3.54,.57l3.43-.11c.57,0,1.14,0,1.83,.11,.34,0,.8,.11,1.26,.11,2.74,0,7.09-.92,8.69-1.6,1.72-.8,3.89-.8,5.26-1.6,.8-.46,1.37-.8,2.17-1.03,2.4-.8,3.89-1.37,6.06-2.4,.57-.23,1.26-.57,1.71-.57s.69,.11,.69,1.03c-.8,1.14-1.71,1.83-3.09,2.52Z"/><path class="cls-1" d="M277.26,64.03c-1.03,.8-2.74,1.14-3.54,1.71-.8,.57-1.26,.69-2.17,.8-.91,0-4.46,1.37-5.03,1.71-.57,.34-1.26,.57-1.83,.57-.8,0-2.17,.34-2.97,.34-.34,0-.8,.11-1.37,.23-1.94,.8-2.4,.69-4.57,.8-1.26,.11-3.54,.57-4.8,.57-2.17,0-4.57-1.71-4.57-4,0-2.4,2.4-4.92,4.34-5.95,4.57-2.4,6.86-6.52,11.32-8.92,.91-.46,2.4-2.4,3.2-2.4s.8,1.37,.8,1.83c0,1.71-1.03,2.17-2.29,2.97-.46,.11-.8,.34-1.03,.46-1.71,1.03-3.54,2.86-4.8,4.57-1.26,1.6-4.92,4.34-4.92,6.4v.46c0,.46,.69,.69,1.26,.69h1.72c1.03,0,1.71,.46,2.74,.46,1.37,0,3.2-.46,5.14-1.03s3.77-1.03,4.57-1.03c1.03,0,2.74-.91,4.34-1.49,1.03-.34,1.94-.91,2.74-1.26,.57-.34,1.26-.69,2.17-.69,.46,0,.46,.23,.46,.57,0,.69-.34,1.14-.92,1.6Zm1.6-31.56c-.11,0-.46-.11-.91-.23-1.72-.57-.46-1.83-2.29-2.4-.46-.11-1.03-.46-1.03-.91,0-1.37,2.97-2.74,4-2.74,.34,0,.69,.23,1.03,.8,.34,1.03,.91,1.83,.91,2.86s-.46,2.63-1.71,2.63Z"/><path class="cls-1" d="M310.18,57.28c-.92,1.26-2.86,4.34-4.12,5.26-1.26,.8-2.4,2.4-3.66,2.74-.23,0-.46,.11-.8,.46-.92,.91-.92,.46-1.94,.91-.92,.34-1.37,.8-2.63,.92-.69,.11-1.49,.34-2.29,.69-.57,.57-1.26,.8-1.83,.92s-1.26,.34-2.06,.69c-1.03,.34-1.83,.57-2.63,.57-.57,0-1.26-.11-2.17-.11-.46,0-.91,.23-1.49,.23-.34,0-.69-.11-1.03-.11s-.46,.23-.8,.23c-.8,0-1.37-.8-2.29-.92-.91-.11-1.26-1.26-1.26-2.06,0-2.17,1.94-2.17,1.94-4.92,0-.57-.11-1.14-.11-1.72s.34-1.03,1.03-1.14c1.03-.34,1.37-.46,2.17-1.26,.57-.8,2.63-.8,3.54-1.37,1.26-.8,2.63-1.03,3.89-1.83,.57-.46,3.09-1.6,3.89-1.6,.57,0,.8,.34,.8,.91,0,1.49-1.37,1.26-1.83,2.06-.46,1.26-1.71,1.71-2.97,1.83-.92,0-4.23,2.52-4.46,3.32-.34,.92-2.17,1.26-2.17,2.63,0,1.49,1.03,1.37,2.29,1.49,.8,0,1.37,.34,2.17,.34,.34,0,.46-.23,.91-.23s.92,.11,1.37,.11c.92,0,1.26-.57,2.06-.57,3.77-.34,5.95-2.74,9.26-4.12,.46-.34,.91-.34,1.26-.69,.8-.8,1.6-2.51,1.6-3.54,0-1.37-.69-2.29-2.17-2.86-.34-.11-.69-.34-1.03-.69-.69-1.03-3.77-.8-3.77-2.74,0-1.26,.8-2.74,2.17-2.74,1.26,0,2.17,.8,3.43,.8,1.71,0,6.17,4.92,6.17,6.86,0,.46-.11,.8-.46,1.26Z"/><path class="cls-1" d="M373.61,64.14c-1.14,.69-2.74,1.49-4.8,2.29-1.03,.46-3.77,1.03-4.57,1.94-.23,.23-6.17,1.83-6.75,1.83s-1.14-.11-1.71-.46c-.34-.11-.8-.23-1.6-.23h-.8c-1.03,0-2.06-.11-3.09-1.14-.92-.91-2.29-2.4-2.29-3.89,0-.92-2.29-1.49-3.09-1.49-.69,0-6.29,2.74-6.97,3.09-1.26,.8-2.52,1.14-3.66,1.14-.91,0-2.17,.46-3.09,.8-1.37,.34-2.63,.46-4.12,.57l-2.52,.11c-.46,0-1.14-.11-1.6-.11-.91,0-1.83,0-2.63-.34-1.03-.46-1.83-1.26-1.83-2.63,0-.69,1.03-1.94,1.37-3.43s.69-3.32,1.49-3.54c1.26-.23,2.52-2.17,4.23-3.89,1.03-1.03,2.06-1.94,3.43-2.4,1.26-.46,3.54-1.72,4.8-1.72,.91,0,1.14,.92,1.14,1.72,0,1.26-1.14,2.17-2.52,3.2-1.72,1.14-3.89,2.4-5.03,4.57-.57,1.03-.91,2.29-.91,3.77,0,1.72,1.26,1.94,2.63,1.94,2.17,0,3.32-.92,5.26-.92,2.86,0,3.43-1.37,5.72-1.94,1.83-.34,3.43-1.49,4.8-2.74,.8-.8,1.94-.57,2.86-1.03,1.72-.8,2.86-1.94,4.69-2.29,1.49-.34,3.43-1.26,4.92-1.26,.8,0,1.26,.46,1.26,1.26,0,4-2.63,5.49-2.63,7.55,0,1.03,.46,2.06,1.71,2.06s1.49-.23,2.52-.23,2.06-.92,3.43-.92c1.03,0,2.17-.23,2.97-1.03,.92-.8,2.52-.23,3.32-1.03,.34-.34,1.26-.57,2.17-1.03,1.03-.46,2.17-1.14,2.86-1.14,.8,0,.92,.57,.92,1.14,0,.23-.8,.92-2.29,1.83Z"/><path class="cls-1" d="M418.08,55.79c-.57,1.71-3.43,5.72-4.92,6.63-2.4,1.72-5.37,2.63-7.66,4.46-1.26,.92-3.54,.69-4.34,1.49-.69,.69-4.46,.57-5.72,1.14-1.72,.8-4.57,1.37-6.29,1.37-.91,0-.91-.57-1.83-.57s-1.83,.57-2.86,.57c-1.71,0-4-3.43-6.86-3.43-.8,0-.91-.69-1.71-.69-.34,0-.8,0-1.26,.11-.11,0-.34,.12-.46,.12-.8,0-1.49-.23-1.49-.92,0-.46,.23-.92,.8-1.14,2.51-1.26,2.17-4.8,5.49-4.8,1.14,0,1.37,1.37,2.86,1.37,1.03-.11,1.14-.46,2.63-.69,1.94-.34,1.94-.8,3.66-.8,.11,0,2.4-.46,2.51-.46,.92,0,3.32-1.83,4.69-2.17,2.17-.46,3.77-2.06,5.72-2.52,2.29-.69,8.8-3.2,10.52-4.69,.8-.57,3.09-1.14,4.12-1.14,.46,0,.69,.34,1.49,.34,1.37,0,2.29,1.49,2.29,2.86,0,2.17-1.03,2.06-1.37,3.54Zm-8.12-2.29h-1.49c-1.94,.34-2.74,1.71-4.46,2.29-1.49,.57-2.52,1.83-4.23,2.17-1.72,.34-2.74,1.03-4,1.6-1.49,.8-2.97,.57-4.46,1.49-1.37,1.03-3.2,1.6-4.92,2.17-.8,.34-1.6,.11-1.6,1.14,0,2.29,3.66,1.71,5.26,2.06,.11,.11,.46,.11,.92,.11,1.71,0,3.09-1.14,4.8-1.14,.46,0,.8,.12,1.14,.12,1.83,0,3.09-1.03,3.89-1.03,.46,0,.69,.34,1.26,.34,1.26,0,3.89-1.6,4.92-2.17,2.97-1.49,1.37-1.37,2.74-2.74,1.49-1.37,1.94-2.29,1.94-4.23,0-1.37,0-2.17-1.71-2.17Z"/><path class="cls-1" d="M484.46,63.11c1.14-.34,3.66-1.94,4.92-1.94,.34,0,.69,.46,.69,.8,0,.11,0,.57-.69,1.03-.8,.57-1.49,1.14-3.2,1.94-1.83,.8-3.89,1.6-4.46,1.94-1.26,.34-2.51,.69-3.77,1.6-1.26,.91-4.8,1.49-6.52,1.49-1.37,0-4.46,.23-5.83,.23-1.83,0-3.77-1.94-3.77-3.66,.11-1.71,1.26-3.09,1.37-5.03,0-.92-.92-1.71-1.83-1.71-1.49,0-2.97,.8-4.34,1.26-2.06,.46-3.09,.92-4.46,2.4-1.26,1.26-5.26,3.09-8.92,4.34-2.06,.69-4,1.26-5.14,1.26-1.6,0-2.63-.69-2.63-2.4l.23-1.26c.57-2.17,.57-4.12,1.6-6.29,.23-.34,.34-.69,.34-1.49,0-.57-.34-.8-.8-.8s-2.86,2.29-5.6,3.89c-1.71,.92-2.52,1.37-2.74,1.71-.8,.8-3.66,2.29-4.69,2.29-.8,0-1.14-.34-1.14-1.03,0-.23,.11-.46,.23-.8,.34-.46,1.6-.69,2.17-1.14,1.83-1.26,2.4-1.26,3.43-2.29,2.74-1.6,3.89-2.63,6.4-4.69,2.29-1.94,1.49-1.94,3.32-2.86,1.26-.46,2.97-1.6,4.23-1.6,1.49,0,1.94,2.63,1.94,4.23v.57c-.11,2.63-2.29,4.34-2.52,7.09,0,1.03,.46,1.49,1.37,1.49s1.83-.46,2.63-.8c1.83-.8,3.43-1.71,4.92-2.74,1.03-.57,1.94-1.49,3.2-1.83,1.71-.46,2.86-1.6,4.57-1.94,1.83-.34,4.92-1.26,6.29-2.17,1.26-1.03,3.89-2.29,5.37-2.29,1.37,0,1.83,1.26,1.83,2.52l-.23,1.26c-.57,1.49,.23,2.17-1.71,2.97-1.94,1.26-.8,2.29-1.71,3.09-.46,.46-.69,1.26-.69,1.94,0,.34,.11,1.03,.23,1.03,0,1.37,1.37,1.6,2.63,1.6,1.03,0,2.4,.23,3.66,.23,1.03,0,2.74-.91,4-1.26,1.03-.11,1.83-.46,2.63-.69,1.26-.46,2.06-1.14,3.2-1.49Z"/><path class="cls-1" d="M528.77,63.8c-.69,.57-2.06,1.26-2.86,1.72-.8,.46-3.09,1.6-3.66,1.71-.69,.23-1.14,.46-1.83,.8-1.14,.57-2.17,1.14-3.43,1.37-.92,.23-2.06,.23-3.2,.46-.92,.12-1.83,.46-2.4,.8-.46,.23-.91,.34-1.26,.34-.57,0-1.14-.11-1.71-.11-1.26,0-2.17,.46-3.43,.46h-.46c-1.26,0-2.86,0-3.89-.46-.8-.34-2.06-.34-2.86-.34-1.71-.11-2.63-1.14-4.12-1.49-1.71-.34-2.97-2.52-2.97-4.34,0-1.03,1.37-3.09,2.4-4.92,1.14-2.17,3.09-4.46,4.34-4.92l2.17-1.83c1.49-1.26,3.2-2.63,5.03-3.66,1.49-.8,2.97-1.49,4.57-1.49,.91,0,1.71-.57,2.63-.57,.11,0,1.26,.46,1.37,.46,.57,.8,1.83,.8,1.83,1.83,0,1.83-3.09,6.29-4.8,6.63-1.94,.57-3.89,2.06-5.72,3.09-1.94,1.03-3.43,1.6-5.49,2.63-.34,.11-2.63,1.14-2.63,1.6,0,1.14,.57,1.83,1.6,2.52,2.17,1.37,5.26,2.06,6.97,2.06,1.26,0,2.17-.11,3.43-.11,2.63,0,4.8-.69,7.43-1.03,.57-.12,1.49-.23,2.4-.57,1.14-.34,2.4-.91,3.54-1.37,1.14-.57,4.8-2.06,5.49-2.63,.57-.34,1.03-.57,1.6-.57,.46,0,.69,.23,.69,.69,0,.57-.46,.92-.8,1.26Zm-20.12-12.23c-1.03,0-5.37,2.86-6.4,3.66-.57,.46-1.6,1.37-1.6,2.29,.34,0,.8,.11,1.14,.11,1.26,0,1.37-1.14,2.29-1.14,1.14,0,2.29-2.74,4.34-2.74,.57,0,.92-1.71,.92-2.06l-.69-.11Z"/><path class="cls-1" d="M556.4,56.37c-.34,.92-1.83,1.14-2.29,2.06-.34,.91-3.77,2.63-4.69,3.54-.8,.8-1.83,.92-2.63,1.71-.92,.8-3.77,2.52-3.77,3.77,0,.57,.23,.91,.69,.91,.8,0,1.14-.46,1.72-.46l.34,.11c.11,.11,.46,.23,.8,.23,1.26,0,2.4-.34,3.77-.34,1.26,0,2.63-.57,3.89-.91,.91-.12,1.26-.69,2.17-.69,.8,0,1.37-.57,3.09-.57,.8,0,1.03-.34,1.83-.34,.11,0,.23,.12,.57,.12,0,.46-.34,.8-.92,1.14-.57,.11-.34,.92-1.83,1.37-1.26,.34-3.54,1.26-4.8,1.26s-2.29,.8-3.66,.8c-1.83,0-3.09,1.49-5.03,1.49-.34,0-.69-.11-.8-.23-1.03-.57-2.06-.57-3.32-.57-1.49,0-2.97-.34-4.46-.34-.57,0-1.14-.34-1.71-.34-1.83,0-3.54,.34-5.37,.34-1.26,0-3.43-.8-4.23-1.6-.57-.8-2.52-2.97-2.52-3.89,0-.57,.23-1.14,.23-1.71s.23-1.03,.57-1.37c1.03-.92,2.52-3.32,3.77-3.66,.46-.23,1.03-.34,1.6-.34,1.49,0,1.37,1.26,2.74,1.26,.57,0,.91-.11,1.26-.46,.8-.8,1.94-.69,2.86-1.26,1.03-.8,1.72-1.26,2.97-1.26s1.94-1.37,3.2-1.71c1.26-.11,1.71-.92,2.97-.92,.91,0,1.14,0,1.6-.8,.91-1.26,2.06-.23,3.2-1.71,.92-1.26,2.4-1.14,3.66-2.06,1.03-1.03,2.4-1.71,3.89-2.17,2.29-.57,3.66-2.63,6.29-2.63,1.26,0,1.94,.69,1.94,1.94,0,3.43-8.92,9.03-9.6,10.29Zm-29.04,8.23c-.34,0-.91,.11-.91,.57s.8,1.03,1.26,1.03c.34,0,.46-.11,.46-.46,0-.46-.23-1.14-.8-1.14Zm27.1-13.15c-.8,.8-1.94,.23-3.2,1.49-.57,.8-2.97,.92-3.77,1.49-.92,.8-2.29,.8-3.09,1.71-.8,.8-3.2,1.37-4.46,1.83-1.03,.34-1.83,1.26-2.74,1.6-1.26,.34-2.29,1.03-3.54,1.49-.8,.34-1.49,.69-1.49,1.6,0,1.37,2.06,4.23,3.32,4.23s1.94-.69,2.97-1.03c.8-.11,1.49-.57,2.06-1.49,.34-.92,5.26-2.63,6.06-3.77,.92-1.37,3.66-3.2,5.03-4.12,.8-.57,1.71-2.4,2.52-2.74,.91-.34,1.6-1.03,2.06-1.83,.34-.57,.92-1.03,.92-1.6-1.26,0-2.17,.69-2.63,1.14Zm47.79,1.83c-.11,.46-2.51,3.32-4.92,5.95-2.17,2.4-4.46,4.8-5.26,5.15-.57,.34-1.72,1.37-2.97,2.4-.91,.8-2.06,1.26-2.06,1.94,0,.11,0,.23,.23,.46,.23,.11,.57,.23,.92,.23,.57,0,1.26-.23,1.6-.23h.57c.34,0,.92,0,1.49-.23,.8-.11,1.37-.11,2.17-.46,.91-.34,2.06-.57,3.32-1.03,.57-.34,1.26-.34,1.71-.46,1.03-.34,1.6-.57,1.71-.69,.57-.34,1.6-1.14,2.4-1.14,.34,0,.92,.34,.92,.46,0,.8-.46,1.49-.92,1.49l-3.2,1.6c-.8,.34-1.49,.69-2.06,.8-1.03,.34-2.29,1.26-3.54,1.26-.34,0-.57,.23-.92,.34-.91,.34-2.86,.69-3.89,.69-.57,0-.92,.23-1.37,.23-.8,0-1.26,.11-1.83,.11s-1.83-.34-2.29-.34c-.92,0-1.83,.34-2.74,.34-.46,0-.8-.23-1.26-.23-.8,0-1.26,.11-1.83,.11-1.71,0-2.97-1.03-4.69-1.03-.34,0-.69,.23-1.03,.23-1.03,0-1.94-.8-2.97-.8-1.26,0-.92-1.71-2.17-2.06-1.26-.34-1.37-2.51-2.52-2.51-.11,0-.11,.11-.46,.11-.46,0-1.72-.34-1.72-.92s2.4-1.14,3.2-2.17c.57-.92,1.71-1.49,2.97-1.49,.91,0,2.06-1.14,3.43-1.26s2.74-1.03,4.12-1.03c1.03,0,3.32-1.6,3.89-1.6,.69,0,2.86-2.17,4.57-2.17,1.49,0,3.2-.57,4.46-1.6,1.26-1.26,3.77-1.03,5.03-2.4,.92-1.26,2.4-1.6,3.43-2.63,.8-.8,2.06-1.6,3.32-1.6,1.03,0,2.29,.69,2.29,1.94,0,1.71-.8,2.74-1.14,4.23Zm-6.63,.46c-.46,0-1.26,.69-2.06,.69-1.03,0-2.06,1.03-3.32,1.03-1.37,0-2.51,1.26-3.43,1.26-.8,0-1.83,1.14-2.63,1.6-1.49,.91-3.54,.8-4.8,1.71-1.26,.91-4,1.49-4.57,2.29-.57,1.03-1.6,.8-1.6,2.52,0,.57,.57,3.2,1.37,3.2,.34,0,.23-.11,.57-.11,.8,0,1.26,.46,2.29,.46,.91-.46,1.37-.46,2.4-.46,1.49,0,4.69-2.4,6.17-2.97,1.26-.46,1.94-1.71,2.97-2.29,1.37-.92,1.6-2.63,3.43-3.43,1.26-.34,1.71-1.71,2.06-2.97,.11-1.26,1.37-1.49,1.37-2.29,0-.11-.11-.23-.23-.23Z"/></g></g></svg>