<?xml version="1.0" encoding="UTF-8"?><svg id="_レイヤー_2" xmlns="http://www.w3.org/2000/svg" viewBox="0 0 345.22 109.67"><defs><style>.cls-1{fill:#d6d6d6;}</style></defs><g id="_レイヤー_1-2"><g><path class="cls-1" d="M113.2,3.08c0,1.71-1.71,3.76-2.62,5.13-1.25,2.17-3.31,3.31-5.13,5.13-.8,.8-1.71,1.25-2.28,2.17-.8,1.03-2.51,1.37-2.85,2.62-.34,1.48-.8,1.37-2.05,2.17-.8,.57-.57,2.62-2.39,2.62-.46,0-.68-.11-.68-.46,0-.8,.91-1.94,1.48-2.28,1.03-.8,.91-.11,1.71-1.82,.8-1.71,1.48-2.28,3.19-3.08,1.25-.57,6.61-6.95,6.61-8.32,0-.68-.23-1.03-.8-1.03-.91,0-2.05,.8-2.39,.8-4.22,0-11.17,9.8-14.82,10.72-1.25,.57-5.7,6.61-7.87,7.52-1.25,.57-2.85,2.28-3.76,3.19-3.19,3.08-6.16,6.16-9.23,9.23-1.71,1.71-3.31,3.88-5.47,5.13-.8,.46-.8,1.82-1.6,1.82-2.05,0-2.17,4.9-4.67,4.9-1.48,0-4.9,5.02-6.5,5.93-2.85,1.6-5.7,6.73-7.75,7.3-1.37,.46-2.39,1.25-3.19,2.51-.8,1.25-1.82,1.82-2.85,2.62-.57,.57-4.33,3.65-4.33,3.99,0,.57,3.99,2.05,4.56,2.05,1.82,.46,4.56,.46,6.5,.46,1.25-.46,2.51-.46,3.76-.46,2.17,0,3.42,.34,5.7,.34,2.39,0,4.79-.8,7.18-.8h1.6c1.71,0,3.88-1.82,5.7-1.82,2.85,0,7.41-2.62,10.6-2.62,2.62,0,2.96-.91,5.13-1.82,1.48-.8,2.96-.68,4.45-1.25,1.37-.46,1.71-2.05,3.53-2.05,1.71,0,3.08-2.51,4.67-2.51,.57,0,.57,.68,.57,1.14v.68c0,.8-3.42,2.17-4.22,2.74-3.99,2.85-7.75,4.45-12.43,5.47-2.17,.57-4.56,.91-6.73,1.71-1.82,.57-2.17,1.25-4.33,1.25-1.03,0-2.05,1.37-3.53,1.37-.46,0-.91-.11-1.37-.11-2.85,0-5.36,1.82-8.21,1.82-.91,0-1.82-.23-2.74-.23-3.08,0-5.02,1.03-8.09,1.03s-5.81-.46-8.89-.46c-.91,0-1.82-.34-2.74-.34-1.03,0-1.37-.68-2.17-1.03-1.25-.34-2.85-.57-4.1-.57-3.19,0-4.45,2.96-7.87,2.96-1.71,0-2.96,2.17-4.67,2.17-.57,0-.91-.34-.91-1.03,0-1.71,2.85-2.05,4.1-2.05,.8,0,1.25-.8,1.71-1.14,1.25-1.25,3.76-.91,3.76-3.19-1.94-1.94-5.02-5.81-5.02-8.66,0-.8-.46-1.37-.46-2.17,0-1.03,.34-1.94,.34-3.19,0-.34,0-2.51-.46-2.51s-1.71,1.25-2.51,1.6c-1.37,.57-4.56,4.45-4.9,5.7-.46,1.37-1.71,1.6-2.51,2.85-.57,.8-2.96,6.38-2.96,7.18s-1.03,1.25-1.03,2.05c0,1.71,2.62,3.19,4.1,3.19,1.03,0,2.28,.57,2.39,1.82-.46,.57-2.39,1.37-3.19,1.37-.57,0-1.03-.57-1.6-.57-.8,0-1.37,.46-1.82,.46-1.82,0-3.88-4.67-3.88-6.27,0-.34,.11-.57,.46-.91,.57-.8,.57-1.37,.68-2.28,.57-2.74,2.74-5.13,3.19-6.95,.23-1.71,1.71-.68,2.05-2.62,.11-.8,0-1.25,.8-1.71,1.37-.91,2.62-1.48,3.42-2.96,.57-1.14,3.53-4.45,3.53-5.02,.46-1.25,.68-1.94,2.05-2.28,1.6-.57,5.24-3.76,6.16-3.76,2.28,0,2.62,3.31,2.62,5.02,0,3.19-1.25,6.27-1.25,9.46,0,.68,.23,1.25,.57,1.6,1.25,2.05,.23,2.85,2.85,4.9,.46,.57,1.37,1.25,2.17,1.25,3.19,0,10.03-9.01,12.08-9.58,2.17-.57,1.03-.8,1.94-2.05,.46-.46,.91-.57,1.25-1.37,.91-2.51,6.27-4.22,8.09-7.98,.91-1.82,3.19-2.39,4.1-4.22,.57-1.03,6.84-7.52,7.98-8.09,1.71-1.03,2.51-2.05,3.42-3.76s2.96-1.82,3.88-3.53c1.48-2.62,5.36-4.33,7.18-6.95,1.37-1.94,3.65-2.74,5.02-4.67,1.71-2.39,4.9-5.59,7.52-6.84,2.17-.91,3.19-4.67,5.59-5.59,.8-.34,1.82-1.14,2.62-1.14,.57,0,2.85-.91,3.19-1.37,1.25-1.82,6.73-2.74,8.89-2.74,1.03,0,1.14,1.6,1.14,2.62v.46Zm-38.3,40.13c-1.25,.46-.68,1.82-1.94,2.74s-.34,1.48-2.05,1.48c-.91,0-2.51,4.56-4.1,4.9-1.25,.11-2.39,1.71-3.31,2.51-1.25,1.03-2.39,1.82-3.31,3.08-.34,.46-.57,.68-.91,.68s-.46-.11-.46-.46c0-1.82,6.38-6.5,7.64-8.89,.57-1.03,2.05-2.39,3.31-2.51,1.03-.11,.8,0,1.25-.91,.57-1.37,.8-2.85,2.51-3.19,1.71-.34,2.17-1.71,2.74-1.71,.34,0,.46,.11,.46,.23,0,.8-1.25,1.71-1.82,2.05Zm4.1-4.9c0-.8,1.82-2.62,2.74-2.62,.11,0,.23,.11,.23,.23,0,1.37-2.85,2.51-2.96,2.39Zm7.75-6.04c-.57,.57-2.62,3.08-3.42,3.08-.34,0-.8,0-.8-.34s.8-1.03,.91-1.48c.23-1.37,3.99-5.24,5.24-5.24,.34,0,.57,.23,.57,.68,0,1.25-1.71,2.51-2.51,3.31Zm6.16-6.38c-.34,0-.57-.23-.57-.8,0-.8,.46-1.6,1.25-1.6,.34,0,.68,.11,.68,.46s-1.03,1.94-1.37,1.94Z"/><path class="cls-1" d="M121.4,66.23c-1.03,.8-2.74,1.14-3.53,1.71-.8,.57-1.25,.68-2.17,.8-.91,0-4.45,1.37-5.02,1.71-.57,.34-1.25,.57-1.82,.57-.8,0-2.17,.34-2.96,.34-.34,0-.8,.11-1.37,.23-1.94,.8-2.39,.68-4.56,.8-1.25,.11-3.53,.57-4.79,.57-2.17,0-4.56-1.71-4.56-3.99,0-2.39,2.39-4.9,4.33-5.93,4.56-2.39,6.84-6.5,11.29-8.89,.91-.46,2.39-2.39,3.19-2.39s.8,1.37,.8,1.82c0,1.71-1.03,2.17-2.28,2.96-.46,.11-.8,.34-1.03,.46-1.71,1.03-3.53,2.85-4.79,4.56-1.25,1.6-4.9,4.33-4.9,6.38v.46c0,.46,.68,.68,1.25,.68h1.71c1.03,0,1.71,.46,2.74,.46,1.37,0,3.19-.46,5.13-1.03,1.94-.57,3.76-1.03,4.56-1.03,1.03,0,2.74-.91,4.33-1.48,1.03-.34,1.94-.91,2.74-1.25,.57-.34,1.25-.68,2.17-.68,.46,0,.46,.23,.46,.57,0,.68-.34,1.14-.91,1.6Zm1.6-31.46c-.11,0-.46-.11-.91-.23-1.71-.57-.46-1.82-2.28-2.39-.46-.11-1.03-.46-1.03-.91,0-1.37,2.96-2.74,3.99-2.74,.34,0,.68,.23,1.03,.8,.34,1.03,.91,1.82,.91,2.85s-.46,2.62-1.71,2.62Z"/><path class="cls-1" d="M183.59,65.32c1.14-.34,3.65-1.94,4.9-1.94,.34,0,.68,.46,.68,.8,0,.11,0,.57-.68,1.03-.8,.57-1.48,1.14-3.19,1.94-1.82,.8-3.88,1.6-4.45,1.94-1.25,.34-2.51,.68-3.76,1.6s-4.79,1.48-6.5,1.48c-1.37,0-4.45,.23-5.81,.23-1.82,0-3.76-1.94-3.76-3.65,.11-1.71,1.25-3.08,1.37-5.02,0-.91-.91-1.71-1.82-1.71-1.48,0-2.96,.8-4.33,1.25-2.05,.46-3.08,.91-4.45,2.39-1.25,1.25-5.24,3.08-8.89,4.33-2.05,.68-3.99,1.25-5.13,1.25-1.6,0-2.62-.68-2.62-2.39l.23-1.25c.57-2.17,.57-4.1,1.6-6.27,.23-.34,.34-.68,.34-1.48,0-.57-.34-.8-.8-.8s-2.85,2.28-5.59,3.88c-1.71,.91-2.51,1.37-2.74,1.71-.8,.8-3.65,2.28-4.67,2.28-.8,0-1.14-.34-1.14-1.03,0-.23,.11-.46,.23-.8,.34-.46,1.6-.68,2.17-1.14,1.82-1.25,2.39-1.25,3.42-2.28,2.74-1.6,3.88-2.62,6.38-4.67,2.28-1.94,1.48-1.94,3.31-2.85,1.25-.46,2.96-1.6,4.22-1.6,1.48,0,1.94,2.62,1.94,4.22v.57c-.11,2.62-2.28,4.33-2.51,7.07,0,1.03,.46,1.48,1.37,1.48s1.82-.46,2.62-.8c1.82-.8,3.42-1.71,4.9-2.74,1.03-.57,1.94-1.48,3.19-1.82,1.71-.46,2.85-1.6,4.56-1.94,1.82-.34,4.9-1.25,6.27-2.17,1.25-1.03,3.88-2.28,5.36-2.28,1.37,0,1.82,1.25,1.82,2.51l-.23,1.25c-.57,1.48,.23,2.17-1.71,2.96-1.94,1.25-.8,2.28-1.71,3.08-.46,.46-.68,1.25-.68,1.94,0,.34,.11,1.03,.23,1.03,0,1.37,1.37,1.6,2.62,1.6,1.03,0,2.39,.23,3.65,.23,1.03,0,2.74-.91,3.99-1.25,1.03-.11,1.82-.46,2.62-.68,1.25-.46,2.05-1.14,3.19-1.48Z"/><path class="cls-1" d="M227.78,66c-.68,.57-2.05,1.25-2.85,1.71-.8,.46-3.08,1.6-3.65,1.71-.68,.23-1.14,.46-1.82,.8-1.14,.57-2.17,1.14-3.42,1.37-.91,.23-2.05,.23-3.19,.46-.91,.11-1.82,.46-2.39,.8-.46,.23-.91,.34-1.25,.34-.57,0-1.14-.11-1.71-.11-1.25,0-2.17,.46-3.42,.46h-.46c-1.25,0-2.85,0-3.88-.46-.8-.34-2.05-.34-2.85-.34-1.71-.11-2.62-1.14-4.1-1.48-1.71-.34-2.96-2.51-2.96-4.33,0-1.03,1.37-3.08,2.39-4.9,1.14-2.17,3.08-4.45,4.33-4.9l2.17-1.82c1.48-1.25,3.19-2.62,5.02-3.65,1.48-.8,2.96-1.48,4.56-1.48,.91,0,1.71-.57,2.62-.57,.11,0,1.25,.46,1.37,.46,.57,.8,1.82,.8,1.82,1.82,0,1.82-3.08,6.27-4.79,6.61-1.94,.57-3.88,2.05-5.7,3.08-1.94,1.03-3.42,1.6-5.47,2.62-.34,.11-2.62,1.14-2.62,1.6,0,1.14,.57,1.82,1.6,2.51,2.17,1.37,5.24,2.05,6.95,2.05,1.25,0,2.17-.11,3.42-.11,2.62,0,4.79-.68,7.41-1.03,.57-.11,1.48-.23,2.39-.57,1.14-.34,2.39-.91,3.53-1.37,1.14-.57,4.79-2.05,5.47-2.62,.57-.34,1.03-.57,1.6-.57,.46,0,.68,.23,.68,.68,0,.57-.46,.91-.8,1.25Zm-20.06-12.2c-1.03,0-5.36,2.85-6.38,3.65-.57,.46-1.6,1.37-1.6,2.28,.34,0,.8,.11,1.14,.11,1.25,0,1.37-1.14,2.28-1.14,1.14,0,2.28-2.74,4.33-2.74,.57,0,.91-1.71,.91-2.05l-.68-.11Z"/><path class="cls-1" d="M286.41,66.35c-1.14,.68-2.74,1.48-4.79,2.28-1.03,.46-3.76,1.03-4.56,1.94-.23,.23-6.16,1.82-6.73,1.82s-1.14-.11-1.71-.46c-.34-.11-.8-.23-1.6-.23h-.8c-1.03,0-2.05-.11-3.08-1.14-.91-.91-2.28-2.39-2.28-3.88,0-.91-2.28-1.48-3.08-1.48-.68,0-6.27,2.74-6.95,3.08-1.25,.8-2.51,1.14-3.65,1.14-.91,0-2.17,.46-3.08,.8-1.37,.34-2.62,.46-4.1,.57l-2.51,.11c-.46,0-1.14-.11-1.6-.11-.91,0-1.82,0-2.62-.34-1.03-.46-1.82-1.25-1.82-2.62,0-.68,1.03-1.94,1.37-3.42,.34-1.48,.68-3.31,1.48-3.53,1.25-.23,2.51-2.17,4.22-3.88,1.03-1.03,2.05-1.94,3.42-2.39,1.25-.46,3.53-1.71,4.79-1.71,.91,0,1.14,.91,1.14,1.71,0,1.25-1.14,2.17-2.51,3.19-1.71,1.14-3.88,2.39-5.02,4.56-.57,1.03-.91,2.28-.91,3.76,0,1.71,1.25,1.94,2.62,1.94,2.17,0,3.31-.91,5.24-.91,2.85,0,3.42-1.37,5.7-1.94,1.82-.34,3.42-1.48,4.79-2.74,.8-.8,1.94-.57,2.85-1.03,1.71-.8,2.85-1.94,4.67-2.28,1.48-.34,3.42-1.25,4.9-1.25,.8,0,1.25,.46,1.25,1.25,0,3.99-2.62,5.47-2.62,7.52,0,1.03,.46,2.05,1.71,2.05s1.48-.23,2.51-.23,2.05-.91,3.42-.91c1.03,0,2.17-.23,2.96-1.03,.91-.8,2.51-.23,3.31-1.03,.34-.34,1.25-.57,2.17-1.03,1.03-.46,2.17-1.14,2.85-1.14,.8,0,.91,.57,.91,1.14,0,.23-.8,.91-2.28,1.82Z"/><path class="cls-1" d="M332.8,42.86c-1.25,1.25-1.94,3.08-3.42,3.88-2.17,1.25-5.02,3.42-5.81,5.81-.91,2.51-6.73,5.02-8.55,7.75-1.14,1.71-4.79,3.76-5.13,4.79-.57,1.82-6.27,5.47-7.18,7.87-.91,2.05-3.65,2.74-4.9,4.9-1.25,2.39-3.42,1.6-5.36,4.79-1.25,2.17-7.07,6.04-7.07,7.87,0,.57,.68,1.03,1.25,1.03,1.25,0,.91-3.99,5.13-3.99,.34,0,1.14,0,1.14,.46,0,.91-2.85,2.62-3.42,3.19-1.03,.8-.34,1.14-1.82,1.94-1.71,.91-4.45,2.62-5.36,4.33-.91,1.6-6.38,3.99-6.38,5.24,0,1.48-5.13,2.39-6.16,3.76-1.48,1.82-5.13,3.19-7.3,3.19-.8,0-2.85-.23-2.85-1.25,0-1.48,3.76-3.31,4.9-4.1,1.48-1.25,1.03-2.85,4.33-4.67,3.99-2.17,7.41-8.32,11.86-11.06,3.19-1.94,4.79-5.24,7.87-7.07,3.99-2.39,8.21-10.49,12.2-12.31,3.19-1.71,4.67-4.67,7.41-6.38,3.99-2.62,6.5-6.16,9.69-9.23,.8-.8,1.37-1.48,1.37-2.51,0-.57-.11-.8-.46-.8s-.34,.23-.68,.34c-1.71,1.71-6.73,5.93-8.89,6.5-2.17,.8-4.56,2.39-6.27,3.65-1.82,1.25-3.31,2.17-5.47,2.74-1.25,.46-1.94,.8-3.19,1.71-.8,.8-2.39,1.6-3.65,1.94-1.71,.34-2.51,1.48-3.88,1.48-.34,0-.68,0-.68-.46,0-.8,1.6-2.17,2.39-2.51,1.14-.34,5.59-2.28,6.27-2.96,1.03-1.03,1.48-1.14,2.85-1.48,2.17-.46,4.9-3.42,7.18-4.45,2.62-1.25,5.24-2.51,7.52-4.33,2.62-1.94,4.67-4.1,7.3-5.93,3.65-2.74,12.77-10.03,17.56-10.03,.57,0,1.37,.11,1.37,.91,0,1.25-4.67,4.22-5.7,5.47Zm10.03,26.56c-2.17,.34-5.7,2.62-7.75,2.62-.11-.11-.34-.11-.68-.11-1.25,0-2.62,.91-3.99,.91-3.53,0-8.89-3.53-8.89-7.41,0-1.03,.34-1.94,.91-2.96,1.25-2.17,1.6-4.45,2.85-6.61,.8-1.71,1.14-.91,2.17-1.48,.8-.34,1.37-1.03,2.28-1.03,1.37,0,1.6,2.17,1.6,3.19,0,3.19-2.51,6.04-2.51,8.66,0,3.31,3.76,3.42,6.16,3.99h.46c2.62,0,7.3-2.51,8.44-2.51,.46,0,1.37,.34,1.37,.91,0,.8-1.6,1.48-2.39,1.82Z"/></g></g></svg>