<?xml version="1.0" encoding="UTF-8"?><svg id="_レイヤー_2" xmlns="http://www.w3.org/2000/svg" viewBox="0 0 519.15 73.64"><defs><style>.cls-1{fill:#fff;}</style></defs><g id="_レイヤー_1-2"><g><path class="cls-1" d="M80.48,24.85c-2.74,4.22-7.64,11.86-11.63,14.59-2.62,1.71-3.65,4.67-6.5,6.27-3.76,2.05-5.93,6.27-9.69,7.75-3.99,1.6-7.3,4.56-10.37,7.41l-3.08,2.85c-.46,.34-.91,.34-.91,.91,0,1.03,1.94,1.14,1.94,2.05,0,.8-.91,1.71-1.71,1.71-.91,0-1.82-.23-2.74-.23-1.71,0-2.96-1.03-4.45-1.03-.23,0-.34,0-.46,.11-2.62,1.03-5.59,1.25-8.21,2.51-2.62,1.25-4.22,1.6-6.95,1.6-1.25,0-2.17,.91-3.42,1.25s-2.39,0-3.65,.8c-.34,.11-.57,.23-.8,.23-2.62,0-7.41-2.96-7.41-5.81,0-.8,.23-1.25,.23-1.82,0-2.17-.68-4.1-.68-6.27,0-1.03,.11-2.05,.91-2.85,1.25-1.25,2.17-2.62,3.08-3.99,1.94-2.74,3.99-5.47,6.61-7.64,3.31-2.62,5.7-6.38,8.89-8.55,2.85-1.94,4.9-4.33,7.64-6.5,3.53-2.62,6.5-5.13,10.26-7.3,3.99-2.17,6.27-5.59,9.92-7.98,2.62-1.82,7.41-3.76,9.01-6.27,2.39-3.65,6.5-3.88,9.23-6.04,1.71-1.37,4.67-1.94,6.84-1.94,3.19,0,9.01,2.05,9.01,5.93,0,.57-1.82,6.61-2.05,7.75,0,1.25,2.28,3.76,2.28,6.84,0,1.14-.34,2.39-1.14,3.65Zm-13.45-18.35c-2.28,0-7.07,2.74-9.23,3.65-3.53,1.48-5.47,4.9-8.55,7.07-1.48,.91-2.74,2.28-4.1,3.53-1.71,1.48-3.42,2.62-5.36,3.88-4.56,2.85-7.41,7.07-11.86,10.37-4.22,2.96-13.91,12.88-16.07,17.44-.8,1.71-.34,2.62-2.17,3.88-2.17,1.25-2.39,5.36-2.74,7.52-.34,1.37-1.37,2.62-1.37,3.42,0,2.17,2.17,2.85,3.88,2.85,4.67,0,9.23-1.82,13.68-3.08,2.17-.57,3.76-2.05,5.7-2.96,1.25-.57,3.08-4.45,4.33-5.7,2.17-2.51,3.88-8.09,5.36-9.23,1.14-.91,5.47-8.89,6.38-10.49,1.48-2.62,3.08-5.13,4.79-7.75,1.25-1.94,2.85-3.76,4.33-5.59,1.25-1.37,2.74-2.74,3.76-4.45,1.25-2.17,2.85-4.79,5.02-6.27,1.82-1.25,5.59-4.56,5.59-6.84,0-.8-.46-1.25-1.37-1.25Zm6.84,11.4c-1.25,0-2.51,.23-3.76,.23-3.08,0-6.38,4.22-9.12,5.7-2.74,1.48-5.13,6.04-7.3,8.44-.8,.91-1.6,2.05-2.39,3.31-.91,1.14-2.17,4.22-3.08,5.13-1.03,.91-1.37,3.53-2.62,4.9-1.48,1.48-4.33,7.3-4.33,9.35,0,.34,.23,1.03,.68,1.03,.91,0,2.17-1.48,3.08-1.82,2.05-.57,7.98-5.13,10.03-6.61,4.45-2.85,8.21-7.07,12.2-10.6,2.28-1.94,4.22-3.99,5.7-6.16,.8-1.37,1.6-2.96,2.62-4.22,1.03-1.25,1.82-2.28,1.82-3.99,0-2.39-.91-4.67-3.53-4.67Zm2.28-10.26c-1.37,0-3.42,2.85-3.42,4.22,0,.57,.23,.91,.57,.91,.91,0,2.05-.23,2.39-1.14,.46-1.03,1.03-1.48,1.03-2.74,0-.34,0-1.25-.57-1.25Z"/><path class="cls-1" d="M120.39,63.04c-1.14,.68-2.74,1.48-4.79,2.28-1.03,.46-3.76,1.03-4.56,1.94-.23,.23-6.16,1.82-6.73,1.82s-1.14-.11-1.71-.46c-.34-.11-.8-.23-1.6-.23h-.8c-1.03,0-2.05-.11-3.08-1.14-.91-.91-2.28-2.39-2.28-3.88,0-.91-2.28-1.48-3.08-1.48-.68,0-6.27,2.74-6.95,3.08-1.25,.8-2.51,1.14-3.65,1.14-.91,0-2.17,.46-3.08,.8-1.37,.34-2.62,.46-4.1,.57l-2.51,.11c-.46,0-1.14-.11-1.6-.11-.91,0-1.82,0-2.62-.34-1.03-.46-1.82-1.25-1.82-2.62,0-.68,1.03-1.94,1.37-3.42,.34-1.48,.68-3.31,1.48-3.53,1.25-.23,2.51-2.17,4.22-3.88,1.03-1.03,2.05-1.94,3.42-2.39,1.25-.46,3.53-1.71,4.79-1.71,.91,0,1.14,.91,1.14,1.71,0,1.25-1.14,2.17-2.51,3.19-1.71,1.14-3.88,2.39-5.02,4.56-.57,1.03-.91,2.28-.91,3.76,0,1.71,1.25,1.94,2.62,1.94,2.17,0,3.31-.91,5.24-.91,2.85,0,3.42-1.37,5.7-1.94,1.82-.34,3.42-1.48,4.79-2.74,.8-.8,1.94-.57,2.85-1.03,1.71-.8,2.85-1.94,4.67-2.28,1.48-.34,3.42-1.25,4.9-1.25,.8,0,1.25,.46,1.25,1.25,0,3.99-2.62,5.47-2.62,7.52,0,1.03,.46,2.05,1.71,2.05s1.48-.23,2.51-.23,2.05-.91,3.42-.91c1.03,0,2.17-.23,2.96-1.03,.91-.8,2.51-.23,3.31-1.03,.34-.34,1.25-.57,2.17-1.03,1.03-.46,2.17-1.14,2.85-1.14,.8,0,.91,.57,.91,1.14,0,.23-.8,.91-2.28,1.82Z"/><path class="cls-1" d="M172.73,62.7c-1.71,.57-2.62,1.6-4.1,2.17-1.03,.34-1.94,.8-2.96,1.37-2.17,1.37-5.59,1.94-9.23,2.74-1.94,.46-4.1,.46-5.93,.46h-2.05c-1.25,0-2.74-.23-4.33-.23s-2.05-1.25-3.31-1.6c-1.94-.57-1.82-1.6-2.05-3.19,0-.34-.11-.68-.11-1.03,0-1.03,.46-1.82,1.71-2.74,1.14-.8,2.05-2.62,3.08-3.31,.46-.23,.91-.91,1.37-1.71,.57-.91,1.03-1.94,1.03-2.51,0-.34-.46-.68-.91-.68-.8,0-2.05,.57-2.62,1.03-1.48,1.37-2.62,2.39-4.33,3.31-.91,.57-1.71,1.25-2.62,2.05-1.14,.91-2.17,1.25-3.42,1.82-1.25,.57-2.51,1.14-3.76,2.05-1.25,.8-1.37,.46-2.74,1.03-1.6,.68-3.88,2.17-5.24,2.17-.57,0-1.25-.46-1.25-1.03s3.08-1.82,3.88-2.17c1.37-.34,1.82-1.25,3.19-1.6,1.14-.34,2.28-1.03,3.31-1.6l3.99-2.17c1.71-1.03,3.42-2.17,4.9-3.53,.91-.91,1.82-1.71,2.85-2.51,1.03-.68,2.17-1.37,3.31-1.82,1.14-.46,2.39-.8,3.76-.8,1.14,0,2.39,.23,4.33,.46,1.14,.11,2.05,1.14,2.05,2.39v.46c-.34,2.28-.57,3.65-2.51,4.9-1.71,1.03-2.39,2.96-4.1,3.88-.91,.46-1.37,1.71-1.37,2.62,0,1.25,1.03,2.05,2.39,2.51,2.28,.8,5.36,.8,6.5,.8,.91,0,1.94-.11,2.74-.57,2.74-1.48,4.56-.23,7.18-2.62,.46-.34,1.03-.57,1.71-.91,.91,0,1.71-.23,2.51-.8,1.71-1.25,2.51-1.48,4.45-2.17l.34-.23,.46-.23c.46,0,.68,.34,.68,.91,0,1.71-1.48,2.28-2.74,2.62Z"/><path class="cls-1" d="M318.42,1.82c-.11,1.71-.46,1.25-1.48,2.17-.57,.46-.91,1.03-1.37,1.82-1.25,2.17-2.74,3.76-4.45,5.93-2.39,2.74-5.7,4.45-7.87,7.3-1.48,1.94-3.99,2.39-5.36,4.33-1.48,2.17-3.42,3.31-5.24,5.02-.91,.91-2.85,4.1-3.76,4.45-1.25,.46-2.62,2.28-3.88,3.19s-1.25,4.1-3.31,5.59c-2.39,1.82-1.71,.46-3.88,3.53-1.82,2.62-5.36,5.13-5.93,7.98-.91,3.42-9.8,9.8-9.8,12.65,0,1.37,1.25,2.51,1.25,3.76,0,1.71-5.7,3.42-6.95,3.42-1.03,0-1.25-1.82-1.25-2.62,0-6.38,10.26-13.68,11.86-18.35,0-.34,.46-2.17,.91-2.17,.34,0,.46,.23,.8,.23,1.03,0,2.39-5.02,3.31-5.93,.8-.8,1.48-1.82,1.48-2.85,0-.57-.34-.8-.91-.8-2.05,0-6.84,4.33-9.8,5.24-4.67,1.48-8.09,5.24-12.54,7.41-1.82,.57-8.09,4.45-9.46,4.45-.34,0-.23-.11-.57-.11-1.6,0-4.33,2.96-6.27,3.31-3.31,1.03-6.38,3.42-9.92,3.42-1.94,0-2.74-1.37-2.74-3.19,0-2.62,1.37-5.36,3.31-7.07,1.82-1.48,2.39-4.22,3.42-4.56,2.28-.68,5.47-4.9,7.52-6.73,1.82-1.48,3.53-3.31,5.47-4.56,1.6-.91,5.02-6.84,7.98-9.23,1.25-.91,6.27-4.67,6.27-6.27,0-.34-.23-.46-.57-.46-1.25,0-2.74,.8-3.65,1.6-1.82,1.71-5.24,4.22-7.52,5.13-3.08,1.25-6.27,4.22-8.55,6.5-3.31,3.31-8.09,5.02-11.06,8.89-1.03,1.48-3.76,2.51-5.47,3.08-4.1,1.71-7.52,4.9-11.29,7.18-4.56,2.85-10.94,5.59-15.85,8.21-1.94,1.03-3.99,2.05-5.81,3.31-2.74,2.17-5.47,.57-7.64,1.82-.46,.11-.8,.23-1.25,.23-2.17,0-6.16-2.05-6.16-4.45,0-1.48,.91-2.96,1.25-4.45,.34-1.71,3.19-4.67,5.02-4.67,.8,0,1.6,1.03,1.6,1.82,0,1.71-1.6,2.85-1.6,4.22s1.71,1.48,2.74,1.48c2.74,0,5.24-1.94,7.87-1.94,1.94,0,9.69-4.33,12.2-5.24,1.94-.8,2.85-.8,3.88-2.62,.91-1.48,6.16-2.85,7.87-3.99,3.88-3.08,9.35-8.78,13.79-10.6,4.56-1.82,7.52-6.04,11.74-7.52,3.31-1.14,1.71-3.53,5.93-5.7,4.45-2.28,10.6-5.02,14.25-8.55,2.62-2.39,8.32-4.56,9.92-6.5,.91-.91,2.96-4.45,4.45-4.45,1.71,0,1.82,1.37,1.82,2.62,0,2.28-1.48,4.22-3.42,5.47-3.76,1.94-3.42,4.22-5.93,6.73-1.25,1.25-4.33,4.33-5.93,5.02-1.94,.91-4.33,3.53-5.36,5.36-1.25,2.17-3.42,3.42-5.13,5.13-1.37,1.03-2.39,2.28-3.65,3.53-2.05,2.28-5.81,7.64-7.87,9.12-1.82,1.48-6.27,6.95-6.27,9.35,0,1.03,1.82,1.03,2.62,1.03,1.25,0,2.39-1.25,3.65-2.05,.8-.46,1.6-.68,2.51-1.03,1.37-.34,2.74-.68,3.99-1.48l2.62-1.37c1.25-.46,2.39-1.25,3.42-2.05,3.08-1.82,5.93-3.99,9.12-5.47,2.85-1.25,7.3-3.31,9.46-5.47,1.25-1.37,1.6-1.03,2.96-1.82,1.14-.8,2.17-1.6,2.96-2.39,2.74-2.28,5.7-3.88,8.78-5.59,1.37-.8,2.85-1.25,4.1-2.05,2.85-1.6,3.65-4.9,5.93-6.38,2.51-1.6,2.74-4.1,5.93-5.59,3.19-1.37,6.04-3.42,8.66-6.04,1.37-1.71,3.08-2.62,4.45-4.33,1.03-1.48,2.51-2.39,3.53-3.88,.57-.8,1.48-1.25,2.51-1.25,.91,0,1.71,.46,1.71,1.37l-.11,.46Z"/><path class="cls-1" d="M310.83,62.93c-1.03,.8-2.74,1.14-3.53,1.71-.8,.57-1.25,.68-2.17,.8-.91,0-4.45,1.37-5.02,1.71-.57,.34-1.25,.57-1.82,.57-.8,0-2.17,.34-2.96,.34-.34,0-.8,.11-1.37,.23-1.94,.8-2.39,.68-4.56,.8-1.25,.11-3.53,.57-4.79,.57-2.17,0-4.56-1.71-4.56-3.99,0-2.39,2.39-4.9,4.33-5.93,4.56-2.39,6.84-6.5,11.29-8.89,.91-.46,2.39-2.39,3.19-2.39s.8,1.37,.8,1.82c0,1.71-1.03,2.17-2.28,2.96-.46,.11-.8,.34-1.03,.46-1.71,1.03-3.53,2.85-4.79,4.56-1.25,1.6-4.9,4.33-4.9,6.38v.46c0,.46,.68,.68,1.25,.68h1.71c1.03,0,1.71,.46,2.74,.46,1.37,0,3.19-.46,5.13-1.03,1.94-.57,3.76-1.03,4.56-1.03,1.03,0,2.74-.91,4.33-1.48,1.03-.34,1.94-.91,2.74-1.25,.57-.34,1.25-.68,2.17-.68,.46,0,.46,.23,.46,.57,0,.68-.34,1.14-.91,1.6Zm1.6-31.46c-.11,0-.46-.11-.91-.23-1.71-.57-.46-1.82-2.28-2.39-.46-.11-1.03-.46-1.03-.91,0-1.37,2.96-2.74,3.99-2.74,.34,0,.68,.23,1.03,.8,.34,1.03,.91,1.82,.91,2.85s-.46,2.62-1.71,2.62Z"/><path class="cls-1" d="M338.44,55.29c-.34,.91-1.82,1.14-2.28,2.05-.34,.91-3.76,2.62-4.67,3.53-.8,.8-1.82,.91-2.62,1.71-.91,.8-3.76,2.51-3.76,3.76,0,.57,.23,.91,.68,.91,.8,0,1.14-.46,1.71-.46l.34,.11c.11,.11,.46,.23,.8,.23,1.25,0,2.39-.34,3.76-.34,1.25,0,2.62-.57,3.88-.91,.91-.11,1.25-.68,2.17-.68,.8,0,1.37-.57,3.08-.57,.8,0,1.03-.34,1.82-.34,.11,0,.23,.11,.57,.11,0,.46-.34,.8-.91,1.14-.57,.11-.34,.91-1.82,1.37-1.25,.34-3.53,1.25-4.79,1.25s-2.28,.8-3.65,.8c-1.82,0-3.08,1.48-5.02,1.48-.34,0-.68-.11-.8-.23-1.03-.57-2.05-.57-3.31-.57-1.48,0-2.96-.34-4.45-.34-.57,0-1.14-.34-1.71-.34-1.82,0-3.53,.34-5.36,.34-1.25,0-3.42-.8-4.22-1.6-.57-.8-2.51-2.96-2.51-3.88,0-.57,.23-1.14,.23-1.71s.23-1.03,.57-1.37c1.03-.91,2.51-3.31,3.76-3.65,.46-.23,1.03-.34,1.6-.34,1.48,0,1.37,1.25,2.74,1.25,.57,0,.91-.11,1.25-.46,.8-.8,1.94-.68,2.85-1.25,1.03-.8,1.71-1.25,2.96-1.25s1.94-1.37,3.19-1.71c1.25-.11,1.71-.91,2.96-.91,.91,0,1.14,0,1.6-.8,.91-1.25,2.05-.23,3.19-1.71,.91-1.25,2.39-1.14,3.65-2.05,1.03-1.03,2.39-1.71,3.88-2.17,2.28-.57,3.65-2.62,6.27-2.62,1.25,0,1.94,.68,1.94,1.94,0,3.42-8.89,9.01-9.58,10.26Zm-28.96,8.21c-.34,0-.91,.11-.91,.57s.8,1.03,1.25,1.03c.34,0,.46-.11,.46-.46,0-.46-.23-1.14-.8-1.14Zm27.02-13.11c-.8,.8-1.94,.23-3.19,1.48-.57,.8-2.96,.91-3.76,1.48-.91,.8-2.28,.8-3.08,1.71-.8,.8-3.19,1.37-4.45,1.82-1.03,.34-1.82,1.25-2.74,1.6-1.25,.34-2.28,1.03-3.53,1.48-.8,.34-1.48,.68-1.48,1.6,0,1.37,2.05,4.22,3.31,4.22s1.94-.68,2.96-1.03c.8-.11,1.48-.57,2.05-1.48,.34-.91,5.24-2.62,6.04-3.76,.91-1.37,3.65-3.19,5.02-4.1,.8-.57,1.71-2.39,2.51-2.74,.91-.34,1.6-1.03,2.05-1.82,.34-.57,.91-1.03,.91-1.6-1.25,0-2.17,.68-2.62,1.14Zm47.65,1.82c-.11,.46-2.51,3.31-4.9,5.93-2.17,2.39-4.45,4.79-5.24,5.13-.57,.34-1.71,1.37-2.96,2.39-.91,.8-2.05,1.25-2.05,1.94,0,.11,0,.23,.23,.46,.23,.11,.57,.23,.91,.23,.57,0,1.25-.23,1.6-.23h.57c.34,0,.91,0,1.48-.23,.8-.11,1.37-.11,2.17-.46,.91-.34,2.05-.57,3.31-1.03,.57-.34,1.25-.34,1.71-.46,1.03-.34,1.6-.57,1.71-.68,.57-.34,1.6-1.14,2.39-1.14,.34,0,.91,.34,.91,.46,0,.8-.46,1.48-.91,1.48l-3.19,1.6c-.8,.34-1.48,.68-2.05,.8-1.03,.34-2.28,1.25-3.53,1.25-.34,0-.57,.23-.91,.34-.91,.34-2.85,.68-3.88,.68-.57,0-.91,.23-1.37,.23-.8,0-1.25,.11-1.82,.11s-1.82-.34-2.28-.34c-.91,0-1.82,.34-2.74,.34-.46,0-.8-.23-1.25-.23-.8,0-1.25,.11-1.82,.11-1.71,0-2.96-1.03-4.67-1.03-.34,0-.68,.23-1.03,.23-1.03,0-1.94-.8-2.96-.8-1.25,0-.91-1.71-2.17-2.05-1.25-.34-1.37-2.51-2.51-2.51-.11,0-.11,.11-.46,.11-.46,0-1.71-.34-1.71-.91s2.39-1.14,3.19-2.17c.57-.91,1.71-1.48,2.96-1.48,.91,0,2.05-1.14,3.42-1.25,1.37-.11,2.74-1.03,4.1-1.03,1.03,0,3.31-1.6,3.88-1.6,.68,0,2.85-2.17,4.56-2.17,1.48,0,3.19-.57,4.45-1.6,1.25-1.25,3.76-1.03,5.02-2.39,.91-1.25,2.39-1.6,3.42-2.62,.8-.8,2.05-1.6,3.31-1.6,1.03,0,2.28,.68,2.28,1.94,0,1.71-.8,2.74-1.14,4.22Zm-6.61,.46c-.46,0-1.25,.68-2.05,.68-1.03,0-2.05,1.03-3.31,1.03-1.37,0-2.51,1.25-3.42,1.25-.8,0-1.82,1.14-2.62,1.6-1.48,.91-3.53,.8-4.79,1.71-1.25,.91-3.99,1.48-4.56,2.28-.57,1.03-1.6,.8-1.6,2.51,0,.57,.57,3.19,1.37,3.19,.34,0,.23-.11,.57-.11,.8,0,1.25,.46,2.28,.46,.91-.46,1.37-.46,2.39-.46,1.48,0,4.67-2.39,6.16-2.96,1.25-.46,1.94-1.71,2.96-2.28,1.37-.91,1.6-2.62,3.42-3.42,1.25-.34,1.71-1.71,2.05-2.96,.11-1.25,1.37-1.48,1.37-2.28,0-.11-.11-.23-.23-.23Z"/><path class="cls-1" d="M414.53,62.93c-1.03,.8-2.74,1.14-3.53,1.71-.8,.57-1.25,.68-2.17,.8-.91,0-4.45,1.37-5.02,1.71-.57,.34-1.25,.57-1.82,.57-.8,0-2.17,.34-2.96,.34-.34,0-.8,.11-1.37,.23-1.94,.8-2.39,.68-4.56,.8-1.25,.11-3.53,.57-4.79,.57-2.17,0-4.56-1.71-4.56-3.99,0-2.39,2.39-4.9,4.33-5.93,4.56-2.39,6.84-6.5,11.29-8.89,.91-.46,2.39-2.39,3.19-2.39s.8,1.37,.8,1.82c0,1.71-1.03,2.17-2.28,2.96-.46,.11-.8,.34-1.03,.46-1.71,1.03-3.53,2.85-4.79,4.56-1.25,1.6-4.9,4.33-4.9,6.38v.46c0,.46,.68,.68,1.25,.68h1.71c1.03,0,1.71,.46,2.74,.46,1.37,0,3.19-.46,5.13-1.03,1.94-.57,3.76-1.03,4.56-1.03,1.03,0,2.74-.91,4.33-1.48,1.03-.34,1.94-.91,2.74-1.25,.57-.34,1.25-.68,2.17-.68,.46,0,.46,.23,.46,.57,0,.68-.34,1.14-.91,1.6Zm1.6-31.46c-.11,0-.46-.11-.91-.23-1.71-.57-.46-1.82-2.28-2.39-.46-.11-1.03-.46-1.03-.91,0-1.37,2.96-2.74,3.99-2.74,.34,0,.68,.23,1.03,.8,.34,1.03,.91,1.82,.91,2.85s-.46,2.62-1.71,2.62Z"/><path class="cls-1" d="M447.35,56.2c-.91,1.25-2.85,4.33-4.1,5.24-1.25,.8-2.39,2.39-3.65,2.74-.23,0-.46,.11-.8,.46-.91,.91-.91,.46-1.94,.91-.91,.34-1.37,.8-2.62,.91-.68,.11-1.48,.34-2.28,.68-.57,.57-1.25,.8-1.82,.91-.57,.11-1.25,.34-2.05,.68-1.03,.34-1.82,.57-2.62,.57-.57,0-1.25-.11-2.17-.11-.46,0-.91,.23-1.48,.23-.34,0-.68-.11-1.03-.11s-.46,.23-.8,.23c-.8,0-1.37-.8-2.28-.91s-1.25-1.25-1.25-2.05c0-2.17,1.94-2.17,1.94-4.9,0-.57-.11-1.14-.11-1.71s.34-1.03,1.03-1.14c1.03-.34,1.37-.46,2.17-1.25,.57-.8,2.62-.8,3.53-1.37,1.25-.8,2.62-1.03,3.88-1.82,.57-.46,3.08-1.6,3.88-1.6,.57,0,.8,.34,.8,.91,0,1.48-1.37,1.25-1.82,2.05-.46,1.25-1.71,1.71-2.96,1.82-.91,0-4.22,2.51-4.45,3.31-.34,.91-2.17,1.25-2.17,2.62,0,1.48,1.03,1.37,2.28,1.48,.8,0,1.37,.34,2.17,.34,.34,0,.46-.23,.91-.23s.91,.11,1.37,.11c.91,0,1.25-.57,2.05-.57,3.76-.34,5.93-2.74,9.23-4.1,.46-.34,.91-.34,1.25-.68,.8-.8,1.6-2.51,1.6-3.53,0-1.37-.68-2.28-2.17-2.85-.34-.11-.68-.34-1.03-.68-.68-1.03-3.76-.8-3.76-2.74,0-1.25,.8-2.74,2.17-2.74,1.25,0,2.17,.8,3.42,.8,1.71,0,6.16,4.9,6.16,6.84,0,.46-.11,.8-.46,1.25Z"/><path class="cls-1" d="M513.56,62.02c1.14-.34,3.65-1.94,4.9-1.94,.34,0,.68,.46,.68,.8,0,.11,0,.57-.68,1.03-.8,.57-1.48,1.14-3.19,1.94-1.82,.8-3.88,1.6-4.45,1.94-1.25,.34-2.51,.68-3.76,1.6s-4.79,1.48-6.5,1.48c-1.37,0-4.45,.23-5.81,.23-1.82,0-3.76-1.94-3.76-3.65,.11-1.71,1.25-3.08,1.37-5.02,0-.91-.91-1.71-1.82-1.71-1.48,0-2.96,.8-4.33,1.25-2.05,.46-3.08,.91-4.45,2.39-1.25,1.25-5.24,3.08-8.89,4.33-2.05,.68-3.99,1.25-5.13,1.25-1.6,0-2.62-.68-2.62-2.39l.23-1.25c.57-2.17,.57-4.1,1.6-6.27,.23-.34,.34-.68,.34-1.48,0-.57-.34-.8-.8-.8s-2.85,2.28-5.59,3.88c-1.71,.91-2.51,1.37-2.74,1.71-.8,.8-3.65,2.28-4.67,2.28-.8,0-1.14-.34-1.14-1.03,0-.23,.11-.46,.23-.8,.34-.46,1.6-.68,2.17-1.14,1.82-1.25,2.39-1.25,3.42-2.28,2.74-1.6,3.88-2.62,6.38-4.67,2.28-1.94,1.48-1.94,3.31-2.85,1.25-.46,2.96-1.6,4.22-1.6,1.48,0,1.94,2.62,1.94,4.22v.57c-.11,2.62-2.28,4.33-2.51,7.07,0,1.03,.46,1.48,1.37,1.48s1.82-.46,2.62-.8c1.82-.8,3.42-1.71,4.9-2.74,1.03-.57,1.94-1.48,3.19-1.82,1.71-.46,2.85-1.6,4.56-1.94,1.82-.34,4.9-1.25,6.27-2.17,1.25-1.03,3.88-2.28,5.36-2.28,1.37,0,1.82,1.25,1.82,2.51l-.23,1.25c-.57,1.48,.23,2.17-1.71,2.96-1.94,1.25-.8,2.28-1.71,3.08-.46,.46-.68,1.25-.68,1.94,0,.34,.11,1.03,.23,1.03,0,1.37,1.37,1.6,2.62,1.6,1.03,0,2.39,.23,3.65,.23,1.03,0,2.74-.91,3.99-1.25,1.03-.11,1.82-.46,2.62-.68,1.25-.46,2.05-1.14,3.19-1.48Z"/></g></g></svg>