<?xml version="1.0" encoding="UTF-8"?><svg id="_レイヤー_2" xmlns="http://www.w3.org/2000/svg" viewBox="0 0 423.17 67.71"><defs><style>.cls-1{fill:#d6d6d6;}</style></defs><g id="_レイヤー_1-2"><g><path class="cls-1" d="M102.48,18.81c0,.46,.23,1.03,.23,1.6,0,1.03-4.22,7.52-5.59,7.87-2.39,.91-4.22,4.56-6.95,4.9-1.82,.34-3.08,2.51-6.84,3.42-1.48,.34-2.85,.68-4.22,1.14-2.39,.8-4.45,1.71-7.07,1.94-4.22,.46-11.29,.57-14.59,3.31-1.82,1.48-5.81,5.02-7.64,5.93-1.71,.8-3.19,2.39-4.45,3.65-1.25,1.37-2.96,1.6-4.22,2.96-1.94,2.17-5.47,3.08-7.75,4.79-3.76,2.85-11.63,6.38-16.19,6.73h-2.28c-4.45,0-12.08-.34-13.91-5.36-.46-1.25-1.03-2.96-1.03-4.33,0-1.48,.68-2.17,2.05-2.17,1.48,0,2.39,5.47,9.12,6.73,2.74,.46,5.59,.91,8.32,.91,4.9,0,14.25-5.13,17.78-7.75,2.17-1.6,10.37-6.61,11.86-8.78,.57-.91,2.05-1.6,2.05-2.85,0-.34,0-.68-.11-.91-.57-1.71-1.71-1.94-2.96-1.94h-1.6c-2.17,0-5.24-1.37-5.24-3.76,0-1.25,.46-3.76,2.17-3.76,1.03,0,1.94,.8,2.51,1.6,2.51,2.51,4.22,1.14,6.95,2.05,.68,.23,1.48,.34,2.28,.34,1.37,0,2.85-.11,4.1-.46,2.96-.57,1.94-2.17,3.65-3.08,1.71-.8,4.1-2.28,4.45-4.22,.34-1.48,1.6-2.17,1.6-2.96,0-.34-.23-.57-.68-.57-1.48,0-1.71,1.6-2.17,1.6-.34,0-.46-.91-.46-1.25,0-.57,1.71-3.08,2.28-3.42,2.17-1.25,6.16-7.18,7.07-7.75,1.25-.57,2.17-1.94,3.42-1.94s1.71,1.6,1.71,2.62-.23,1.71-.68,2.17c-1.48,1.37-1.71,3.65-3.53,4.9-1.48,.91-2.17,1.48-2.51,3.31-.34,1.37-.8,1.82-2.05,2.28-.8,.34-1.48,2.28-2.39,3.08-.91,.8-2.74,2.05-2.74,3.31s2.17,1.37,2.96,1.37c1.82,0,3.53-.8,5.24-1.37,3.53-1.25,7.18-2.51,10.72-3.08,1.71-.34,4.22-1.71,5.47-2.96,1.03-1.25,2.74-1.94,3.19-3.65,.68-2.51,2.62-1.03,2.62-7.07,0-4.45-1.37-7.18-4.9-9.92-3.08-2.28-5.81-3.53-9.58-3.53h-1.03c-1.82,0-3.65-.91-5.59-.91-.8,0-1.48,.34-2.39,.34-1.25,0-2.28-.23-3.53-.23-.57,0-.91,0-1.48,.34-.8,.34-2.62,.34-5.02,.34h-3.88c-2.85,0-5.36,.11-6.61,.68-.68,.34-1.25,.57-1.82,.57-.46,0-.8-.11-1.6-.11s-2.96,1.14-2.96,1.94c0,.91,3.65,3.42,3.65,7.87,0,1.94,0,5.47-1.25,6.73-.91,.91-2.51,2.62-2.51,3.99,0,.8-.34,2.28-1.37,2.28-.68,0-3.08,2.85-3.99,3.19-1.82,1.03-3.08,2.39-4.79,3.88-1.03,1.03-4.79,1.37-5.81,2.39-1.25,1.25-4.67,2.39-6.38,2.96-2.17,.8-5.24,.8-7.98,.8h-1.94c-4.33,0-9.01-.68-9.01-6.16,0-.8,.11-1.14,.23-1.94,.46-2.74,1.14-4.56,3.31-6.5,.57-.57,1.14-1.03,1.6-1.82,1.25-1.82,3.19-2.96,4.22-4.79,.57-1.03,1.14-1.6,1.94-1.71,1.25-.46,2.28-1.94,3.65-2.39,2.51-.91,3.88-4.33,7.87-4.33,.57,0,.91,.23,.91,.68,0,.57-.57,2.05-1.37,2.05-.23,0,0-.23-.34-.23-1.03,0-2.85,2.39-4.22,2.85-.91,.34-1.25,1.71-2.51,2.17-1.82,.57-4.22,3.88-6.04,4.9-2.17,1.25-5.13,5.93-5.13,8.32,0,.46,0,.8,.11,1.03,.8,3.08,2.28,4.56,5.59,4.56,.8,0,1.37,0,2.17-.11,1.48-.34,2.96-.46,4.33-1.03,.8-.34,2.17-1.03,2.96-1.03,1.48,0,2.85-1.25,4.22-1.25,.91,0,7.64-3.08,8.44-3.88,1.82-1.48,5.13-3.53,5.7-5.81,.68-2.62,2.17-3.08,2.17-6.16,0-.46,0-.8-.11-1.03-.34-3.65,.11-3.88-3.19-5.36-1.71-.8-3.88-2.05-5.7-2.05-2.17,0-3.76,1.71-5.93,1.71-.57,0-.8-.11-.8-.46,0-2.17,4.9-3.65,6.27-4.45,1.25-.57,2.39-1.25,3.88-1.6,1.94-.34,3.76-2.62,5.93-2.62,1.25,0,2.39-.23,3.65-.57,2.62-.57,5.36-1.14,8.09-1.14,3.31,0,6.5-.8,9.8-.8,2.39,0,4.79-.57,7.18-.57h.91c1.71,.57,3.88,.68,5.7,.68s3.42-.68,5.24-.68c.8,0,1.6,0,2.17,.46,2.17,1.82,6.5,2.05,8.32,3.53,1.71,1.37,4.33,3.76,5.13,5.7,.8,1.82,2.28,2.96,2.28,5.24,0,1.25-.8,2.51-.8,3.88Z"/><path class="cls-1" d="M127.43,59.62c-1.71,.57-2.62,1.6-4.1,2.17-1.03,.34-1.94,.8-2.96,1.37-2.17,1.37-5.59,1.94-9.23,2.74-1.94,.46-4.1,.46-5.93,.46h-2.05c-1.25,0-2.74-.23-4.33-.23s-2.05-1.25-3.31-1.6c-1.94-.57-1.82-1.6-2.05-3.19,0-.34-.11-.68-.11-1.03,0-1.03,.46-1.82,1.71-2.74,1.14-.8,2.05-2.62,3.08-3.31,.46-.23,.91-.91,1.37-1.71,.57-.91,1.03-1.94,1.03-2.51,0-.34-.46-.68-.91-.68-.8,0-2.05,.57-2.62,1.03-1.48,1.37-2.62,2.39-4.33,3.31-.91,.57-1.71,1.25-2.62,2.05-1.14,.91-2.17,1.25-3.42,1.82-1.25,.57-2.51,1.14-3.76,2.05-1.25,.8-1.37,.46-2.74,1.03-1.6,.68-3.88,2.17-5.24,2.17-.57,0-1.25-.46-1.25-1.03s3.08-1.82,3.88-2.17c1.37-.34,1.82-1.25,3.19-1.6,1.14-.34,2.28-1.03,3.31-1.6l3.99-2.17c1.71-1.03,3.42-2.17,4.9-3.53,.91-.91,1.82-1.71,2.85-2.51,1.03-.68,2.17-1.37,3.31-1.82,1.14-.46,2.39-.8,3.76-.8,1.14,0,2.39,.23,4.33,.46,1.14,.11,2.05,1.14,2.05,2.39v.46c-.34,2.28-.57,3.65-2.51,4.9-1.71,1.03-2.39,2.96-4.1,3.88-.91,.46-1.37,1.71-1.37,2.62,0,1.25,1.03,2.05,2.39,2.51,2.28,.8,5.36,.8,6.5,.8,.91,0,1.94-.11,2.74-.57,2.74-1.48,4.56-.23,7.18-2.62,.46-.34,1.03-.57,1.71-.91,.91,0,1.71-.23,2.51-.8,1.71-1.25,2.51-1.48,4.45-2.17l.34-.23,.46-.23c.46,0,.68,.34,.68,.91,0,1.71-1.48,2.28-2.74,2.62Z"/><path class="cls-1" d="M161.54,53.12c-.91,1.25-2.85,4.33-4.1,5.24-1.25,.8-2.39,2.39-3.65,2.74-.23,0-.46,.11-.8,.46-.91,.91-.91,.46-1.94,.91-.91,.34-1.37,.8-2.62,.91-.68,.11-1.48,.34-2.28,.68-.57,.57-1.25,.8-1.82,.91-.57,.11-1.25,.34-2.05,.68-1.03,.34-1.82,.57-2.62,.57-.57,0-1.25-.11-2.17-.11-.46,0-.91,.23-1.48,.23-.34,0-.68-.11-1.03-.11s-.46,.23-.8,.23c-.8,0-1.37-.8-2.28-.91s-1.25-1.25-1.25-2.05c0-2.17,1.94-2.17,1.94-4.9,0-.57-.11-1.14-.11-1.71s.34-1.03,1.03-1.14c1.03-.34,1.37-.46,2.17-1.25,.57-.8,2.62-.8,3.53-1.37,1.25-.8,2.62-1.03,3.88-1.82,.57-.46,3.08-1.6,3.88-1.6,.57,0,.8,.34,.8,.91,0,1.48-1.37,1.25-1.82,2.05-.46,1.25-1.71,1.71-2.96,1.82-.91,0-4.22,2.51-4.45,3.31-.34,.91-2.17,1.25-2.17,2.62,0,1.48,1.03,1.37,2.28,1.48,.8,0,1.37,.34,2.17,.34,.34,0,.46-.23,.91-.23s.91,.11,1.37,.11c.91,0,1.25-.57,2.05-.57,3.76-.34,5.93-2.74,9.23-4.1,.46-.34,.91-.34,1.25-.68,.8-.8,1.6-2.51,1.6-3.53,0-1.37-.68-2.28-2.17-2.85-.34-.11-.68-.34-1.03-.68-.68-1.03-3.76-.8-3.76-2.74,0-1.25,.8-2.74,2.17-2.74,1.25,0,2.17,.8,3.42,.8,1.71,0,6.16,4.9,6.16,6.84,0,.46-.11,.8-.46,1.25Z"/><path class="cls-1" d="M223.41,61.22c-.57,.34-1.94,1.25-2.62,1.37-1.14,.23-3.88,1.71-5.81,2.39-1.03,.34-1.6,.68-2.51,.91-1.25,.34-2.62,.91-3.19,.91-.91,0-1.71-.23-2.51-.23-1.25,0-1.48,.34-2.74,.34-1.94,0-5.13-.91-6.84-2.17-.68-.57-1.6-1.82-2.39-3.08-1.03-1.48-2.05-2.96-2.85-2.96-.23,0-1.94,.91-3.88,1.82-2.05,1.03-4.33,2.05-5.24,2.39-.91,.23-3.31,.8-5.81,1.25-2.51,.46-5.02,.8-5.93,.8-1.37,0-7.64-.57-7.64-2.28,0-.68,1.48-2.39,3.31-3.53,1.6-1.03,3.42-2.62,3.99-2.85,2.74-1.03,4.45-3.65,7.3-4.9,1.48-.8,3.08-1.71,4.79-1.71s3.19-.68,4.9-.68c.34,0,.91,.11,1.03,.46-.68,1.03-3.88,2.05-7.18,3.53-2.39,1.03-4.79,2.17-6.5,3.88-1.25,1.25-2.05,2.74-2.05,4.56,0,.68,.34,1.03,1.14,1.03,1.37,0,2.85-.68,4.22-1.03,2.17-.46,3.88-.34,6.04-1.6,.8-.46,1.71-.8,2.51-1.03,1.94-.57,2.96-2.28,4.67-3.19,2.62-1.25,2.74-1.03,4.56-3.42l2.74-3.88c3.31-4.56,5.36-7.07,10.15-9.8,1.37-.8,2.96-1.6,5.02-2.51,2.17-.91,2.62-2.05,5.02-2.05,1.25,0,2.51,.68,2.51,1.94,0,1.48-6.38,7.87-7.87,8.78-1.82,1.03-2.85,3.08-4.79,3.65-2.62,.91-1.94,2.17-3.88,2.85-2.85,1.25-3.76,4.1-3.76,6.95s.11,4.22,2.96,5.13c1.71,.57,2.51,.68,4.33,.68,.68,0,1.37-.11,2.05-.23,1.25-.34,1.82-.57,3.08-.8,.91-.23,1.82-.46,2.96-1.03l3.31-1.48c1.48-.68,5.81-2.74,5.81-2.74,.46,0,1.03,.46,1.03,.68,0,1.37-2.39,2.28-3.42,2.85Z"/><path class="cls-1" d="M284.36,59.96c-1.14,.68-2.74,1.48-4.79,2.28-1.03,.46-3.76,1.03-4.56,1.94-.23,.23-6.16,1.82-6.73,1.82s-1.14-.11-1.71-.46c-.34-.11-.8-.23-1.6-.23h-.8c-1.03,0-2.05-.11-3.08-1.14-.91-.91-2.28-2.39-2.28-3.88,0-.91-2.28-1.48-3.08-1.48-.68,0-6.27,2.74-6.95,3.08-1.25,.8-2.51,1.14-3.65,1.14-.91,0-2.17,.46-3.08,.8-1.37,.34-2.62,.46-4.1,.57l-2.51,.11c-.46,0-1.14-.11-1.6-.11-.91,0-1.82,0-2.62-.34-1.03-.46-1.82-1.25-1.82-2.62,0-.68,1.03-1.94,1.37-3.42,.34-1.48,.68-3.31,1.48-3.53,1.25-.23,2.51-2.17,4.22-3.88,1.03-1.03,2.05-1.94,3.42-2.39,1.25-.46,3.53-1.71,4.79-1.71,.91,0,1.14,.91,1.14,1.71,0,1.25-1.14,2.17-2.51,3.19-1.71,1.14-3.88,2.39-5.02,4.56-.57,1.03-.91,2.28-.91,3.76,0,1.71,1.25,1.94,2.62,1.94,2.17,0,3.31-.91,5.24-.91,2.85,0,3.42-1.37,5.7-1.94,1.82-.34,3.42-1.48,4.79-2.74,.8-.8,1.94-.57,2.85-1.03,1.71-.8,2.85-1.94,4.67-2.28,1.48-.34,3.42-1.25,4.9-1.25,.8,0,1.25,.46,1.25,1.25,0,3.99-2.62,5.47-2.62,7.52,0,1.03,.46,2.05,1.71,2.05s1.48-.23,2.51-.23,2.05-.91,3.42-.91c1.03,0,2.17-.23,2.96-1.03,.91-.8,2.51-.23,3.31-1.03,.34-.34,1.25-.57,2.17-1.03,1.03-.46,2.17-1.14,2.85-1.14,.8,0,.91,.57,.91,1.14,0,.23-.8,.91-2.28,1.82Z"/><path class="cls-1" d="M325.11,60.88c-.8,.34-.8,.68-1.6,.68s-2.74,.8-3.31,1.25c-.91,.91-3.19,.57-4.67,1.82-1.71,1.25-3.31,.34-4.79,1.25-1.37,.8-2.74,.23-4.1,1.03-.57,.46-2.17,.46-3.08,.46l-2.05,.34-3.88-.11c-2.17,0-4.67-.11-6.04-.8-1.37-.57-3.31-.46-4.22-2.17-.57-1.03-1.25-1.48-1.25-3.08s1.03-3.19,2.74-4.45c1.6-1.14,4.22-3.65,4.22-3.65,1.14-1.03,3.08-1.94,4.56-2.96,1.6-1.14,3.99-2.28,5.93-3.65,1.48-1.03,6.16-2.17,7.07-2.17,2.17,0,4.56,1.48,4.56,3.76,0,.57-.11,1.03-.46,1.37-1.48,1.82-.23,2.05-2.74,3.88-1.03,.57-1.25,1.03-1.82,2.05-1.03,2.17-2.39,1.71-3.88,2.74-.57,.46-.8,.91-1.71,.91-.8,0-2.62-.11-2.62-1.37,0-2.28,3.19-3.19,4.79-4.1,.91-.57,2.28-2.74,2.74-3.65,.23-.34,.34-.57,.34-.91,0-.8-.57-1.03-1.37-1.03-1.94,0-5.02,1.71-7.07,2.74-1.94,1.03-3.08,2.28-4.56,3.42-.91,.8-2.28,1.48-3.08,2.62-.8,1.14-2.05,2.05-2.05,3.76,0,.23,.11,.46,.11,.68,.34,1.48,.46,1.25,1.82,2.28,.57,.57,2.28,.57,3.53,.57l3.42-.11c.57,0,1.14,0,1.82,.11,.34,0,.8,.11,1.25,.11,2.74,0,7.07-.91,8.66-1.6,1.71-.8,3.88-.8,5.24-1.6,.8-.46,1.37-.8,2.17-1.03,2.39-.8,3.88-1.37,6.04-2.39,.57-.23,1.25-.57,1.71-.57s.68,.11,.68,1.03c-.8,1.14-1.71,1.82-3.08,2.51Z"/><path class="cls-1" d="M421.01,42.86h-1.03c-1.71,0-3.19-.46-4.9-.46-.57,0-1.03,0-1.25,.11-.57,.34-2.17,.34-3.88,.34h-3.76c-1.25,0-2.51,.34-3.76,.34-2.17,0-4.22-.34-6.38-.34-1.71,0-3.19,.46-4.9,.46-1.25,0-2.51-.34-3.76-.34-2.39,0-4.67,.46-6.95,.46-1.25,0-2.39-.23-3.65-.23-1.71,0-3.42,.57-5.13,.57-1.25,0-2.28-.34-3.53-.34-3.53,0-6.84,5.24-9.58,7.07-1.25,.8-2.51,1.71-3.31,3.08-.91,1.82-4.1,3.08-4.1,6.95,0,2.05,3.53,2.51,5.02,2.51,1.71,0,3.08-.11,4.79-.23,1.48,0,2.96-1.14,4.45-1.14,1.82,0,8.78-1.82,10.26-2.74,0,0,1.03-.34,2.05-.8,.8-.34,2.17-1.37,2.85-1.37,.11,0,.23,0,.34,.11,.34,.23,.46,.57,.46,.91,0,.11-.11,.34-.11,.46-.23,.91-1.14,1.03-1.6,1.37-.91,.57-3.19,1.25-3.99,2.05-1.37,1.25-3.88,1.14-5.59,1.94-2.28,1.03-6.38,1.82-9.01,1.82-2.28,0-4.56,1.03-6.95,1.03-3.88,0-9.92-.57-9.92-5.7,0-1.25,.68-1.94,1.6-2.51,3.65-2.05,4.79-7.87,7.75-9.01,.8-.46,2.74-1.03,2.74-2.28v-.46c0-.23,0-.46-.23-.46-1.82,0-7.87,5.36-9.12,6.61-1.37,1.82-4.22,2.74-6.38,3.76-.57,.11-.91,.34-1.25,.68-1.03,.68-2.85,1.14-4.9,2.17-1.48,.8-3.19,1.71-4.67,2.28-1.48,.57-2.51,1.37-3.42,1.37-.46,0-.8-1.14-.8-1.25,.11-.91,2.51-1.82,3.31-2.05,1.25-.34,1.82-1.25,3.08-1.6,1.94-.68,1.03-.34,2.51-1.6,.8-.8,2.39-.34,4.22-2.05,.34-.34,2.39-1.48,3.88-2.62,1.48-1.03,2.96-2.28,4.56-3.42,1.94-1.37,3.99-2.85,3.99-3.19,0-.8-1.25-1.37-2.05-1.37l-3.08,.34c-.57,0-1.14-.23-2.05-.23-.68,.11-1.71,.23-2.62,.23l-.8-.11c-.34,0-.8,0-1.14-.11-.34,0-1.03-.11-1.37-.34-.34-.23-.8-.91-.8-1.03,.11-.57,.8-.8,1.94-1.14,.46-.23,1.14-.23,1.71-.23h1.25c.57,0,1.14,0,1.71-.11,.8-.11,1.6-.11,2.17-.11,1.25,0,2.05,.11,2.62,.11h2.05c2.17,0,4.79-.11,7.18-.68,2.74-.68,4.67-1.14,6.5-2.85,1.71-1.48,2.74-2.51,5.02-2.96,1.6-.34,2.62-1.25,4.67-2.51,1.6-.91,3.31-2.05,4.9-3.19,2.05-1.37,3.65-2.62,5.47-3.53,1.6-.8,2.74-1.48,3.88-1.48,.8,0,1.14,.34,1.14,.91,0,.8-1.03,1.6-2.39,2.39-1.71,.91-3.31,1.94-3.99,2.85-1.14,1.37-3.99,3.19-6.84,5.02-2.51,1.6-3.99,3.19-4.1,4.67l.34,.34c1.48,.46,4.33,.46,6.38,.46,2.28,0,4.45-.46,6.73-.46,1.25,0,1.94,.68,3.19,.68,.46,0,1.03-.23,1.48-.23,2.28,0,4.56,.8,6.95,.8,1.71,0,2.85-1.14,4.56-1.14,1.03,0,1.94,.46,2.96,.46,1.82,0,3.53-.68,5.24-.68s3.08,.23,4.79,.23,3.42-.23,5.13-.23h.68c1.25,0,2.74,.11,2.74,1.48s-1.14,1.48-2.17,1.48Z"/></g></g></svg>