<?xml version="1.0" encoding="UTF-8"?><svg id="_レイヤー_2" xmlns="http://www.w3.org/2000/svg" xmlns:xlink="http://www.w3.org/1999/xlink" viewBox="0 0 964.28 712.5"><defs><style>.cls-1{stroke:url(#_名称未設定グラデーション_7-35);}.cls-1,.cls-2,.cls-3,.cls-4,.cls-5,.cls-6,.cls-7,.cls-8,.cls-9,.cls-10,.cls-11,.cls-12,.cls-13,.cls-14,.cls-15,.cls-16,.cls-17,.cls-18,.cls-19,.cls-20,.cls-21,.cls-22,.cls-23,.cls-24,.cls-25,.cls-26,.cls-27,.cls-28,.cls-29,.cls-30,.cls-31,.cls-32,.cls-33,.cls-34,.cls-35,.cls-36,.cls-37,.cls-38,.cls-39{fill:none;}.cls-1,.cls-2,.cls-3,.cls-4,.cls-5,.cls-6,.cls-8,.cls-16,.cls-17,.cls-19,.cls-21,.cls-30,.cls-31,.cls-39{stroke-miterlimit:10;}.cls-1,.cls-2,.cls-3,.cls-4,.cls-6,.cls-7,.cls-8,.cls-9,.cls-10,.cls-11,.cls-12,.cls-13,.cls-14,.cls-15,.cls-16,.cls-17,.cls-18,.cls-19,.cls-20,.cls-21,.cls-22,.cls-23,.cls-25,.cls-26,.cls-27,.cls-28,.cls-29,.cls-30,.cls-31,.cls-32,.cls-33,.cls-34,.cls-35,.cls-36,.cls-37,.cls-38,.cls-39{stroke-width:1.25px;}.cls-40{fill:#fff;}.cls-2{stroke:url(#_名称未設定グラデーション_7-36);}.cls-3{stroke:url(#_名称未設定グラデーション_7-32);}.cls-4{stroke:url(#_名称未設定グラデーション_7-16);}.cls-5{stroke:#231815;stroke-width:2px;}.cls-6{stroke:url(#_名称未設定グラデーション_7-33);}.cls-7{stroke:url(#_名称未設定グラデーション_7-22);}.cls-8{stroke:url(#_名称未設定グラデーション_7-27);}.cls-9{stroke:url(#_名称未設定グラデーション_7-12);}.cls-10{stroke:url(#_名称未設定グラデーション_7-10);}.cls-41{fill:url(#_名称未設定グラデーション_7-39);opacity:.4;}.cls-11{stroke:url(#_名称未設定グラデーション_7-14);}.cls-12{stroke:url(#_名称未設定グラデーション_7-25);}.cls-13{stroke:url(#_名称未設定グラデーション_7-20);}.cls-14{stroke:url(#_名称未設定グラデーション_7-18);}.cls-15{stroke:url(#_名称未設定グラデーション_7-2);}.cls-16{stroke:url(#_名称未設定グラデーション_7-38);}.cls-17{stroke:url(#_名称未設定グラデーション_7-37);}.cls-18{stroke:url(#_名称未設定グラデーション_7-3);}.cls-19{stroke:url(#_名称未設定グラデーション_7-34);}.cls-20{stroke:url(#_名称未設定グラデーション_7-23);}.cls-21{stroke:url(#_名称未設定グラデーション_7-28);}.cls-42{clip-path:url(#clippath);}.cls-22{stroke:url(#_名称未設定グラデーション_7-7);}.cls-23{stroke:url(#_名称未設定グラデーション_7-13);}.cls-25{stroke:url(#_名称未設定グラデーション_7-24);}.cls-26{stroke:url(#_名称未設定グラデーション_7);}.cls-27{stroke:url(#_名称未設定グラデーション_7-15);}.cls-28{stroke:url(#_名称未設定グラデーション_7-8);}.cls-29{stroke:url(#_名称未設定グラデーション_7-11);}.cls-30{stroke:url(#_名称未設定グラデーション_7-29);}.cls-31{stroke:url(#_名称未設定グラデーション_7-26);}.cls-32{stroke:url(#_名称未設定グラデーション_7-21);}.cls-33{stroke:url(#_名称未設定グラデーション_7-9);}.cls-34{stroke:url(#_名称未設定グラデーション_7-6);}.cls-43{mask:url(#mask);}.cls-35{stroke:url(#_名称未設定グラデーション_7-19);}.cls-36{stroke:url(#_名称未設定グラデーション_7-4);}.cls-37{stroke:url(#_名称未設定グラデーション_7-5);}.cls-38{stroke:url(#_名称未設定グラデーション_7-31);}.cls-44{fill:url(#_名称未設定グラデーション_17);}.cls-39{stroke:url(#_名称未設定グラデーション_7-30);}.cls-45{fill:url(#_名称未設定グラデーション_7-17);}</style><clipPath id="clippath"><rect class="cls-24" width="964.28" height="712.5"/></clipPath><linearGradient id="_名称未設定グラデーション_17" x1="610.5" y1="629.46" x2="334.75" y2="805.3" gradientUnits="userSpaceOnUse"><stop offset=".08" stop-color="#fff"/><stop offset=".88" stop-color="#000"/></linearGradient><mask id="mask" x="-12.11" y="127.2" width="1278.82" height="983.09" maskUnits="userSpaceOnUse"><rect class="cls-44" x="-12.11" y="127.2" width="1278.82" height="983.09"/></mask><linearGradient id="_名称未設定グラデーション_7" x1="932.99" y1="241.85" x2="1116.63" y2="241.85" gradientUnits="userSpaceOnUse"><stop offset="0" stop-color="#fff"/><stop offset=".88" stop-color="#fff"/></linearGradient><linearGradient id="_名称未設定グラデーション_7-2" x1="875.95" y1="456.16" x2="1142.58" y2="456.16" xlink:href="#_名称未設定グラデーション_7"/><linearGradient id="_名称未設定グラデーション_7-3" x1="96.42" y1="748" x2="233.93" y2="748" xlink:href="#_名称未設定グラデーション_7"/><linearGradient id="_名称未設定グラデーション_7-4" x1="72.34" y1="606.19" x2="231.94" y2="606.19" xlink:href="#_名称未設定グラデーション_7"/><linearGradient id="_名称未設定グラデーション_7-5" x1="31.67" y1="638.91" x2="137.56" y2="638.91" xlink:href="#_名称未設定グラデーション_7"/><linearGradient id="_名称未設定グラデーション_7-6" x1="4.11" y1="680.56" x2="110.77" y2="680.56" xlink:href="#_名称未設定グラデーション_7"/><linearGradient id="_名称未設定グラデーション_7-7" x1="175.43" y1="659.84" x2="343.73" y2="659.84" xlink:href="#_名称未設定グラデーション_7"/><linearGradient id="_名称未設定グラデーション_7-8" x1="423.73" y1="654.25" x2="664.87" y2="654.25" xlink:href="#_名称未設定グラデーション_7"/><linearGradient id="_名称未設定グラデーション_7-9" x1="571.43" y1="559.69" x2="723.69" y2="559.69" xlink:href="#_名称未設定グラデーション_7"/><linearGradient id="_名称未設定グラデーション_7-10" x1="566.61" y1="508.27" x2="682.56" y2="508.27" xlink:href="#_名称未設定グラデーション_7"/><linearGradient id="_名称未設定グラデーション_7-11" x1="347.17" y1="615.11" x2="574.82" y2="615.11" xlink:href="#_名称未設定グラデーション_7"/><linearGradient id="_名称未設定グラデーション_7-12" x1="302.97" y1="372.5" x2="533.72" y2="372.5" xlink:href="#_名称未設定グラデーション_7"/><linearGradient id="_名称未設定グラデーション_7-13" x1="350.76" y1="424.62" x2="548.96" y2="424.62" xlink:href="#_名称未設定グラデーション_7"/><linearGradient id="_名称未設定グラデーション_7-14" x1="192.71" y1="489.25" x2="383.14" y2="489.25" xlink:href="#_名称未設定グラデーション_7"/><linearGradient id="_名称未設定グラデーション_7-15" x1="507.07" y1="317.06" x2="696.14" y2="317.06" xlink:href="#_名称未設定グラデーション_7"/><linearGradient id="_名称未設定グラデーション_7-16" x1="527.83" y1="389.14" x2="679.96" y2="389.14" xlink:href="#_名称未設定グラデーション_7"/><linearGradient id="_名称未設定グラデーション_7-17" x1="527.83" y1="389.14" x2="679.96" y2="389.14" xlink:href="#_名称未設定グラデーション_7"/><linearGradient id="_名称未設定グラデーション_7-18" x1="937.15" y1="76.14" x2="1082.61" y2="76.14" xlink:href="#_名称未設定グラデーション_7"/><linearGradient id="_名称未設定グラデーション_7-19" x1="826.15" y1="244.09" x2="1003.45" y2="244.09" xlink:href="#_名称未設定グラデーション_7"/><linearGradient id="_名称未設定グラデーション_7-20" x1="869.23" y1="337.46" x2="957.08" y2="337.46" xlink:href="#_名称未設定グラデーション_7"/><linearGradient id="_名称未設定グラデーション_7-21" x1="833.02" y1="488.81" x2="927.03" y2="488.81" xlink:href="#_名称未設定グラデーション_7"/><linearGradient id="_名称未設定グラデーション_7-22" x1="772.03" y1="431.83" x2="858.34" y2="431.83" xlink:href="#_名称未設定グラデーション_7"/><linearGradient id="_名称未設定グラデーション_7-23" x1="659.51" y1="350.41" x2="821.31" y2="350.41" xlink:href="#_名称未設定グラデーション_7"/><linearGradient id="_名称未設定グラデーション_7-24" x1="772.01" y1="557.89" x2="899.71" y2="557.89" xlink:href="#_名称未設定グラデーション_7"/><linearGradient id="_名称未設定グラデーション_7-25" x1="744.25" y1="336.37" x2="901.38" y2="336.37" xlink:href="#_名称未設定グラデーション_7"/><linearGradient id="_名称未設定グラデーション_7-26" x1="299.46" y1="573.31" x2="308.24" y2="573.31" xlink:href="#_名称未設定グラデーション_7"/><linearGradient id="_名称未設定グラデーション_7-27" x1="372.53" y1="544.44" x2="409.28" y2="544.44" xlink:href="#_名称未設定グラデーション_7"/><linearGradient id="_名称未設定グラデーション_7-28" x1="413.1" y1="507.93" x2="430.76" y2="507.93" xlink:href="#_名称未設定グラデーション_7"/><linearGradient id="_名称未設定グラデーション_7-29" x1="375.39" y1="566.06" x2="383.23" y2="566.06" xlink:href="#_名称未設定グラデーション_7"/><linearGradient id="_名称未設定グラデーション_7-30" x1="483.22" y1="491.81" x2="494.39" y2="491.81" xlink:href="#_名称未設定グラデーション_7"/><linearGradient id="_名称未設定グラデーション_7-31" x1="714.43" y1="476.29" x2="764.01" y2="476.29" xlink:href="#_名称未設定グラデーション_7"/><linearGradient id="_名称未設定グラデーション_7-32" x1="651.43" y1="454.46" x2="666.07" y2="454.46" xlink:href="#_名称未設定グラデーション_7"/><linearGradient id="_名称未設定グラデーション_7-33" x1="375.82" y1="674.51" x2="383.65" y2="674.51" xlink:href="#_名称未設定グラデーション_7"/><linearGradient id="_名称未設定グラデーション_7-34" x1="382.01" y1="666.4" x2="387.09" y2="666.4" xlink:href="#_名称未設定グラデーション_7"/><linearGradient id="_名称未設定グラデーション_7-35" x1="494.85" y1="511.6" x2="500.74" y2="511.6" xlink:href="#_名称未設定グラデーション_7"/><linearGradient id="_名称未設定グラデーション_7-36" x1="494.78" y1="515.29" x2="500.18" y2="515.29" xlink:href="#_名称未設定グラデーション_7"/><linearGradient id="_名称未設定グラデーション_7-37" x1="637.94" y1="460.15" x2="642.12" y2="460.15" xlink:href="#_名称未設定グラデーション_7"/><linearGradient id="_名称未設定グラデーション_7-38" x1="389.95" y1="492.19" x2="395.07" y2="492.19" xlink:href="#_名称未設定グラデーション_7"/><linearGradient id="_名称未設定グラデーション_7-39" x1="529.3" y1="389.14" x2="678.72" y2="389.14" xlink:href="#_名称未設定グラデーション_7"/></defs><g id="_レイヤー_1-2"><g class="cls-42"><g class="cls-43"><g><g><path class="cls-26" d="M1113.41,306.37c1.99-2.56,2.7-6.77,1.55-9.33-1.13-2.56-4.63-7.46-7.77-10.87-3.13-3.42-5.92-9.95-6.21-14.5-.29-4.56-3.08-11.31-6.21-15.02-3.14-3.7-8.73-7.91-12.44-9.32-3.71-1.42-6.03-4.69-5.18-7.26,.86-2.56,5.29-6.76,9.84-9.32,4.57-2.56,10.85-8.39,13.99-12.95,3.14-4.56,6.4-9.22,7.25-10.36,.86-1.14,1.78-4.87,2.07-8.29,.29-3.42-1.34-6.68-3.62-7.25-2.28-.57-2.99-3.13-1.55-5.69,1.41-2.56,2.59-7,2.59-9.85s1.87-7.28,4.14-9.84c2.28-2.56,4.15-6.99,4.15-9.84s-1.4-6.57-3.11-8.29c-1.71-1.71-3.11-3.1-3.11-3.1,0,0-2.56-1.4-5.7-3.11-3.14-1.71-7.33-3.11-9.32-3.11s-5.26-1.4-7.26-3.11c-1.99-1.71-6.42-1.94-9.84-.52-3.42,1.42-6.45,1.19-6.73-.52-.29-1.71-3.32-1.71-6.74,0-3.42,1.71-7.61,2.64-9.32,2.07-1.71-.57-5.91,1.76-9.32,5.18-3.42,3.42-8.32,9.72-10.88,13.99-2.56,4.27-6.06,8-7.77,8.29-1.72,.28-3.1-2.28-3.1-5.7s-2.11-6.92-4.67-7.77c-2.56-.86-6.53,.78-8.81,3.63-2.28,2.85-4.14,5.19-4.14,5.19,0,0,.93,2.33,2.07,5.18,1.14,2.85,.2,7.04-2.08,9.33-2.28,2.27-4.6,6.47-5.17,9.32-.57,2.85-1.74,6.34-2.59,7.78-.85,1.41-4.35,3.28-7.77,4.13-3.42,.86-6.22,1.56-6.22,1.56,0,0,2.1,5.36,4.67,11.91,2.56,6.56,7.22,15.64,10.36,20.2,3.13,4.57,4.3,10.4,2.58,12.96-1.71,2.56-4.04,3.96-5.18,3.1-1.14-.86-3.94-.62-6.22,.52-2.28,1.14-4.84,1.14-5.69,0-.85-1.14-3.19-1.37-5.18-.52-1.99,.86-5.95,2.49-8.8,3.63-2.85,1.14-10.78,1.84-17.61,1.55-6.84-.29-14.07,3.21-16.06,7.77-1.99,4.56-3.63,8.29-3.63,8.29,0,0,.93,3.03,2.07,6.73,1.14,3.7,4.4,8.12,7.25,9.84,2.85,1.71,6.58,7.77,8.29,13.47,1.71,5.7,2.64,13.39,2.07,17.09-.57,3.71-2.21,8.84-3.63,11.4-1.42,2.56-1.66,6.99-.51,9.85,1.14,2.85,2.07,5.18,2.07,5.18,0,0,3.73-.7,8.29-1.55,4.55-.86,9.68-.62,11.39,.52,1.71,1.14,5.44,5.1,8.29,8.8,2.85,3.7,6.1,2.76,7.25-2.08,1.13-4.84,3.93-10.66,6.21-12.94,2.28-2.28,4.85-6.25,5.7-8.81,.86-2.56,5.05-5.82,9.32-7.25,4.27-1.42,10.8-3.06,14.5-3.63,3.7-.56,8.83,.84,11.39,3.11,2.56,2.28,5.6,6.25,6.73,8.81,1.14,2.56,3.71,4.67,5.7,4.67s5.72,1.4,8.29,3.1c2.56,1.71,6.52,1.94,8.81,.52,2.28-1.41,9.27-.72,15.54,1.56,6.27,2.28,14.89,2.75,19.17,1.04,4.27-1.72,7.77-3.12,7.77-3.12,0,0,.92-4.89,2.07-10.87,1.14-6,3.7-12.98,5.7-15.54Z"/><path class="cls-15" d="M1096.83,415.67c.28-3.98,2.85-8.64,5.7-10.35,2.86-1.71,7.05-4.04,9.32-5.19,2.28-1.13,5.08-4.62,6.22-7.77,1.14-3.13,3.24-6.86,4.66-8.28,1.43-1.43,3.06-5.39,3.63-8.81,.56-3.41,3.37-7.85,6.22-9.84,2.85-2,5.88-5.27,6.73-7.26,.85-2,1.78-6.42,2.07-9.84,.29-3.42,.52-6.21,.52-6.21h-4.14c-2.28,0-6.25-.7-8.81-1.56-2.56-.86-7.23-.86-10.36,0-3.13,.86-7.33-.54-9.33-3.11-1.99-2.56-3.62-4.66-3.62-4.66,0,0-3.5,1.4-7.77,3.12-4.27,1.7-12.9,1.24-19.17-1.04-6.27-2.28-13.26-2.98-15.54-1.56-2.28,1.43-6.25,1.2-8.81-.52-2.56-1.71-6.29-3.1-8.29-3.1s-4.56-2.1-5.7-4.67c-1.14-2.56-4.17-6.53-6.73-8.81-2.56-2.27-7.69-3.67-11.39-3.11-3.71,.57-10.23,2.21-14.5,3.63-4.27,1.43-8.47,4.69-9.32,7.25-.85,2.56-3.42,6.53-5.7,8.81-2.28,2.28-5.08,8.1-6.21,12.94-1.15,4.84-4.41,5.78-7.25,2.08-2.85-3.71-6.58-7.67-8.29-8.8-1.71-1.14-6.84-1.38-11.39-.52-4.56,.86-8.29,1.55-8.29,1.55,0,0,1.16,3.03,2.59,6.74,1.42,3.7,2.59,10.93,2.59,16.06s-.93,12.35-2.08,16.05c-1.14,3.7-4.4,9.07-7.25,11.91-2.85,2.85-8.21,6.35-11.92,7.77-3.7,1.43-10,1.89-13.98,1.04-3.99-.85-8.42,.54-9.85,3.11-1.42,2.56-5.15,5.6-8.29,6.74-3.13,1.13-5.7,2.07-5.7,2.07l3.11,12.43s1.63,2.33,3.63,5.18c1.99,2.85,2.23,6.82,.52,8.8-1.71,1.99-.78,5.72,2.07,8.28,2.85,2.56,7.04,4.67,9.32,4.67s5.54,1.64,7.25,3.63c1.71,1.99,3.11,6.66,3.11,10.37s-2.79,6.73-6.21,6.73-7.85,.93-9.85,2.07c-1.99,1.14-3.63,3.7-3.63,5.69s1.4,5.97,3.11,8.83c1.71,2.84,3.34,7.04,3.63,9.32,.28,2.28-.18,6-1.04,8.28-.86,2.28-1.55,7.41-1.55,11.4s-.93,10.52-2.07,14.51c-1.14,3.98-5.57,8.41-9.85,9.83-4.27,1.43-8,5.16-8.29,8.3-.28,3.13-1.68,7.34-3.11,9.32-1.42,1.99-2.59,3.62-2.59,3.62,0,0-2.56,2.1-5.7,4.66-3.13,2.56-3.6,7.46-1.03,10.87,2.57,3.43,6.3,8.33,8.29,10.89,1.99,2.56,5.61,5.83,8.03,7.25,2.42,1.42,4.4,2.59,4.4,2.59,.86-2.28,2.02-5.31,2.59-6.73,.57-1.42,1.74-5.62,2.59-9.32,.85-3.71,3.19-8.37,5.18-10.37,2-2,5.49-5.02,7.77-6.73,2.28-1.71,4.15-4.97,4.15-7.25s1.86-4.14,4.14-4.14,4.14-1.4,4.14-3.11,1.16-2.64,2.59-2.08c1.42,.57,2.82-1.29,3.11-4.14,.28-2.84-1.35-6.81-3.63-8.8-2.28-2-3.21-5.03-2.07-6.73,1.14-1.72,4.17-2.18,6.74-1.03,2.56,1.13,4.66-.96,4.66-4.66s1.4-7.91,3.11-9.33c1.71-1.42,6.84-4.22,11.4-6.21,4.56-2.01,8.99-3.17,9.85-2.6,.85,.57,2.71-.36,4.14-2.07,1.42-1.71,6.09-3.34,10.36-3.62,4.27-.29,8.01-2.15,8.29-4.14,.29-1.99,1.68-4.33,3.11-5.18,1.43-.86,3.76-.15,5.18,1.55,1.42,1.72,4.92,2.89,7.77,2.59,2.85-.29,6.8-.29,8.8,0,1.99,.29,1.29,1.92-1.55,3.63-2.85,1.71-3.32,3.34-1.04,3.63,2.28,.29,6.01-.18,8.29-1.03,2.28-.86,3.91-5.99,3.63-11.39-.29-5.42,.41-10.78,1.56-11.92,1.13-1.14-.27-4.87-3.11-8.29-2.84-3.42-7.28-6.68-9.84-7.25-2.57-.57-7.7-3.37-11.4-6.22-3.71-2.85-8.37-6.58-10.37-8.29-1.99-1.72-6.66-3.81-10.36-4.67-3.7-.86-6.73-3.66-6.73-6.22s-.69-6.52-1.55-8.8c-.86-2.28,.54-7.87,3.11-12.44,2.56-4.56,6.77-10.62,9.33-13.46,2.56-2.85,4.89-9.37,5.18-14.51,.29-5.13,2.85-10.72,5.69-12.43,1.45-.86,3.25-1.84,4.96-2.7,1.66-.82,3.24-1.55,4.37-1.96,2.28-.86,7.64-2.49,11.91-3.62,4.28-1.15,7.77,.48,7.77,3.62s-1.87,6.86-4.14,8.29c-2.28,1.43-5.08,4.45-6.22,6.73-1.14,2.28-1.6,6.24-1.03,8.8,.57,2.56,2.2,6.3,3.62,8.29,1.42,1.99,2.13,6.19,1.56,9.33-.57,3.13,.13,6.86,1.55,8.28,1.43,1.43,3.98,3.76,5.7,5.19,1.7,1.43,4.5,2.36,6.21,2.08,1.71-.29,1.24-4.25-1.03-8.82-2.28-4.55-3.44-10.62-2.59-13.46,.85-2.85,3.19-6.81,5.18-8.8,1.98-2,3.15-.61,2.59,3.1-.57,3.71,.36,8.6,2.07,10.88,1.71,2.28,4.74,4.61,6.74,5.17,1.99,.57,6.66,1.04,10.36,1.04s8.6-.93,10.87-2.07c2.28-1.14,6.48-2.07,9.33-2.07s4.94,3.03,4.66,6.74c-.28,3.7-1.91,7.66-3.62,8.8-1.71,1.14-5.44,3.01-8.29,4.15-2.86,1.14-6.12,2.07-7.26,2.07s-3.24,1.16-4.66,2.59c-1.42,1.43-3.75,2.12-5.17,1.55-1.42-.57-3.53,.13-4.66,1.55-1.14,1.42-2.07,3.98-2.07,5.7s2.1,3.1,4.66,3.1,7.93-1.63,11.91-3.63c3.98-1.99,10.52-4.79,14.51-6.22,3.98-1.43,11.92-2.82,17.62-3.11,.95-.05,1.97-.11,3.03-.18,0,0,.48-2.87,1.07-6.39,.59-3.52,1.31-9.65,1.59-13.64Z"/><path class="cls-18" d="M116.73,825.95c4.27-.57,9.87-1.97,12.43-3.11,2.57-1.13,5.83-.9,7.25,.53,1.42,1.43,4.92,4.69,7.77,7.26,2.85,2.55,5.18,4.66,5.18,4.66,0,0,2.8,.23,6.21,.51,3.42,.29,10.41,.29,15.54,0,5.13-.28,10.96-2.37,12.95-4.66,1.99-2.28,5.49-4.15,7.77-4.15h6.21c1.14,0,1.37-3.27,.51-7.25-.86-3.98-1.08-8.41-.51-9.84,.57-1.43,2.2-4.46,3.62-6.74,1.42-2.28,1.89-6.48,1.03-9.32-.85-2.85-3.65-8.9-6.22-13.47-2.57-4.56-2.8-10.85-.52-13.98,2.28-3.14,6.71-9.19,9.85-13.47,3.13-4.28,7.33-8.94,9.32-10.36,1.99-1.43,4.79-3.99,6.22-5.71,1.42-1.71,3.75-5.66,5.18-8.81,1.42-3.13,3.52-6.39,4.66-7.24,1.14-.86,2.08-1.55,2.08-1.55,0,0-.23-5.13-.52-11.4-.28-6.27-1.92-15.36-3.63-20.21-1.71-4.84-4.97-12.07-7.25-16.04-2.28-4-6.24-8.42-8.8-9.85-2.57-1.43-7.46-2.13-10.88-1.55-3.42,.56-6.22,2.2-6.22,3.63s1.4,3.98,3.11,5.69c1.71,1.71,1.25,5.44-1.03,8.29-2.28,2.84-6.24,4.01-8.81,2.58-2.57-1.42-6.53-3.76-8.81-5.18-2.28-1.42-4.14-2.59-4.14-2.59,0,0-2.33-1.86-5.18-4.14-2.85-2.27-7.74-5.08-10.88-6.21-3.13-1.14-6.86-.44-8.29,1.56-1.42,1.99-4.45,3.62-6.73,3.62s-6.71,1.4-9.85,3.11c-3.13,1.71-6.63,5.2-7.77,7.77-1.14,2.56-3.82,4.55-5.96,4.4-2.14-.15-3.88-.27-3.88-.27-.29,2.56,.64,6.52,2.07,8.81,1.43,2.28,5.62,7.64,9.32,11.91,3.71,4.28,8.13,9.88,9.84,12.44,1.71,2.57,3.11,7.46,3.11,10.88s-3.96,8.55-8.81,11.4c-4.84,2.85-8.34,5.88-7.77,6.73,.57,.86,2.9,1.79,5.18,2.07,2.28,.29,6.94-.18,10.36-1.03,3.42-.86,6.22,.08,6.22,2.08s-2.57,5.25-5.7,7.24c-3.13,1.99-6.16,5.96-6.74,8.81-.57,2.85-1.73,8.22-2.59,11.92-.85,3.71-3.18,8.37-5.18,10.36-1.99,1.99-5.49,6.42-7.77,9.83-2.28,3.42-6.01,8.32-8.29,10.88-2.28,2.56-6.01,7.46-8.29,10.87-1.28,1.92-3.16,3.94-5.07,5.55,0,0,2.54,.85,5.64,1.89,3.11,1.05,9.14,1.43,13.41,.86Z"/><path class="cls-36" d="M127.61,678.32c1.14-2.56,4.63-6.06,7.77-7.77,3.14-1.72,7.56-3.11,9.85-3.11s5.31-1.63,6.73-3.62c1.42-2,5.15-2.7,8.29-1.56,3.14,1.13,8.03,3.94,10.88,6.21,2.85,2.28,5.18,4.14,5.18,4.14,0,0,1.4-2.1,3.11-4.66,1.71-2.56,2.41-6.76,1.56-9.32-.86-2.56-1.56-6.77-1.56-9.33v-13.98c0-1.71,.7-5.67,1.56-8.8,.85-3.14,2.95-7.09,4.66-8.81,1.71-1.71,4.51-5.21,6.22-7.77,1.71-2.57,4.51-5.13,6.21-5.71,1.71-.57,6.84-.1,11.4,1.03,4.56,1.14,9.92,1.38,11.92,.53,1.99-.86,5-5.4,6.68-10.1,1.68-4.7,3.06-8.53,3.06-8.53-1.58-.34-3.17-.54-4.56-.54-3.71,0-7.43-1.39-8.29-3.11-.86-1.71-2.72-7.07-4.14-11.91-1.43-4.84-4.22-11.84-6.22-15.54-2-3.7-2.93-8.84-2.07-11.4,.86-2.56,2.25-6.99,3.11-9.84,.85-2.85-.54-3.55-3.11-1.55-2.57,1.98-5.59,4.32-6.73,5.18-1.14,.86-3.47,.86-5.18,0-1.71-.86-5.67-2.5-8.81-3.62-3.13-1.15-7.56-3.01-9.84-4.15-2.28-1.13-6.01-1.37-8.29-.52-2.28,.86-5.55,3.18-7.26,5.18-1.71,1.99-4.97,2.93-7.25,2.07-2.28-.85-5.55-.16-7.25,1.55-1.71,1.71-4.28,3.11-5.7,3.11s-3.29,1.63-4.14,3.63c-.86,1.98-1.09,4.32-.52,5.17,.57,.85,.34,3.42-.52,5.7-.85,2.28-3.65,6-6.22,8.28-2.56,2.28-6.3,4.61-8.29,5.19-1.99,.56-1.76,1.73,.52,2.59,2.28,.86,4.14,3.42,4.14,5.69s-1.17,4.61-2.59,5.18c-1.42,.58-5.39,1.04-8.81,1.04s-6.92-1.86-7.77-4.15c-.86-2.28-3.42-4.14-5.7-4.14s-6.94,2.09-10.36,4.65c-3.42,2.57-4.58,5.83-2.59,7.26,1.99,1.43,1.06,4.22-2.07,6.22-3.14,2-6.63,4.1-7.77,4.66-.5,.26-1.39,.76-2.44,1.41,0,0,3.58,.15,7.95,.34,4.38,.18,10.05,.1,12.62-.19,2.56-.28,6.76,1.35,9.32,3.62,2.56,2.28,8.16,6.02,12.43,8.3,4.27,2.28,9.87,2.98,12.43,1.56,2.57-1.43,5.36-.73,6.22,1.54,.86,2.28,1.55,6.02,1.55,8.29s-2.57,6.71-5.7,9.84c-3.14,3.14-7.57,5.47-9.85,5.19-2.28-.29-5.95,4.31-8.14,10.24-2.2,5.91-4.01,10.74-4.01,10.74,1.42,1.33,2.78,2.68,3.87,3.89,2.85,3.13,5.18,7.56,5.18,9.83s-.24,6.25-.52,8.81c0,0,1.75,.12,3.88,.27,2.14,.14,4.82-1.84,5.96-4.4Z"/><path class="cls-37" d="M121.39,638.95c2.28,.29,6.71-2.05,9.85-5.19,3.13-3.13,5.7-7.56,5.7-9.84s-.7-6.01-1.55-8.29c-.86-2.28-3.65-2.97-6.22-1.54-2.57,1.42-8.16,.72-12.43-1.56-4.27-2.28-9.87-6.01-12.43-8.3-2.56-2.27-6.76-3.91-9.32-3.62-2.57,.29-8.24,.37-12.62,.19-4.37-.19-7.95-.34-7.95-.34-1.3,.79-2.87,1.79-4.29,2.74-2.57,1.71-5.6,1.71-6.74,0-1.14-1.72-2.07-5.21-2.07-7.77s-2.33-4.9-5.18-5.18c-2.85-.29-6.11,.41-7.25,1.55-1.14,1.14-2.07,4.4-2.07,7.25s-.7,4.02-1.55,2.6c-.86-1.43-2.25-2.13-3.11-1.55-.86,.56-1.09,2.89-.52,5.17,.57,2.28,2.67,5.54,4.66,7.25,1.99,1.72,2.46,4.74,1.04,6.73-1.43,1.99-2.59,5.26-2.59,7.26s-1.4,2-3.11,0c-1.71-2-3.34-5.02-3.63-6.73,0,0-1.28,2.33-2.85,5.18-1.57,2.85-2.85,7.04-2.85,9.33s1.63,6.24,3.62,8.8c1.99,2.56,5.96,5.36,8.81,6.21,2.85,.86,5.65,3.19,6.21,5.19,.57,1.99,.34,5.02-.51,6.73-.86,1.7,2.18,6.61,6.73,10.88,4.56,4.27,10.62,9.17,13.47,10.87,2.85,1.72,8.53,3.46,12.63,3.87,4.1,.4,7.45,.73,7.45,.73,.28-1.6,.17-3.08-.4-4.07-1.14-2-3.7-7.35-5.69-11.91-1.99-4.57-2.23-9-.52-9.85,1.71-.85,5.44-3.66,8.29-6.22,2.85-2.56,7.51-3.02,10.36-1.03,1.76,1.23,4.21,3.29,6.5,5.44,0,0,1.8-4.83,4.01-10.74,2.2-5.92,5.87-10.53,8.14-10.24Z"/><path class="cls-34" d="M70.63,682.97c-2.85-1.7-8.91-6.6-13.47-10.87-4.56-4.27-7.59-9.17-6.73-10.88,.85-1.72,1.09-4.74,.51-6.73-.57-1.99-3.36-4.33-6.21-5.19-2.85-.85-6.82-3.65-8.81-6.21-1.99-2.56-3.62-6.53-3.62-8.8s1.28-6.48,2.85-9.33c1.56-2.85,2.85-5.18,2.85-5.18-.28-1.72-1.68-2.89-3.11-2.59-1.43,.29-4.46,.74-6.74,1.03-2.28,.3-4.84-.65-5.7-2.07-.85-1.42-2.95-2.12-4.66-1.55-1.71,.57-4.97,1.27-7.25,1.55-2.28,.29-3.68,2.15-3.11,4.15,.57,1.99,.8,5.49,.52,7.77-.28,2.28-1.45,6-2.59,8.28-1.14,2.29-.68,4.62,1.03,5.18,1.71,.58,4.51,1.74,6.22,2.6,1.71,.86,4.97,4.36,7.25,7.77,2.28,3.42,5.08,7.84,6.22,9.84,1.14,1.99,4.64,4.32,7.77,5.18,3.13,.85,7.8,2.72,10.36,4.14,2.56,1.43,5.59,3.76,6.73,5.19,1.14,1.41,2.08,4.92,2.08,7.77s.7,8.91,1.56,13.47c.85,4.55-.78,7.58-3.63,6.73-2.85-.86-6.34-1.08-7.77-.51-1.43,.56-3.75,.81-5.18,.52-1.42-.29-3.52-2.62-4.66-5.18-1.14-2.57-1.14-4.9,0-5.19,1.14-.29,2.07-2.15,2.07-4.14v-7.25c0-1.99-1.86-4.09-4.15-4.66-2.28-.57-4.14-2.43-4.14-4.15s-1.86-4.27-4.14-5.7c-2.28-1.43-4.84-.73-5.7,1.55-.86,2.28-2.72,5.78-4.14,7.77-1.43,1.99-2.82,4.79-3.11,6.22-.28,1.42,.65,3.76,2.07,5.18,1.42,1.42,2.35,4.68,2.07,7.25-.28,2.57,.88,5.36,2.59,6.22,1.71,.86,4.04,2.49,5.18,3.63,1.14,1.14,3.01,4.17,4.15,6.73,1.14,2.56,3.94,7,6.22,9.84,2.28,2.85,2.98,7.28,1.55,9.84-1.42,2.56-4.22,6.76-6.22,9.32-2,2.57-1.53,4.9,1.03,5.18,2.56,.29,6.29-1.11,8.29-3.11,1.99-1.99,5.96-7.12,8.81-11.39,2.85-4.27,9.61-9.64,15.02-11.92,5.41-2.27,12.64-3.66,16.06-3.1,3.42,.57,6.92,3.83,7.77,7.25,.86,3.42-.54,7.85-3.11,9.84-2.57,2.01-3.5,6.19-2.08,9.33,1.43,3.14,5.39,4.07,8.81,2.08,3.42-1.99,8.78-4.32,11.92-5.18,3.13-.85,6.39-2.95,7.25-4.67s2.02-6.83,2.59-11.39c.57-4.57-.6-10.63-2.59-13.48-1.99-2.84-5.02-5.65-6.73-6.22-1.71-.56-5.91-.1-9.32,1.04-3.42,1.14-7.85,1.14-9.84,0-2-1.14-3.86-2.77-4.15-3.63-.28-.86,1.35-2.26,3.63-3.1,2.28-.86,5.78-3.88,7.77-6.74,1-1.42,1.67-3.13,1.95-4.73,0,0-3.35-.33-7.45-.73-4.1-.41-9.78-2.15-12.63-3.87Z"/><path class="cls-22" d="M334.82,702.14c-1.14-.28-3.47-.99-5.18-1.55-1.71-.57-2.88-2.43-2.59-4.14,.28-1.72,1.45-4.28,2.59-5.7,1.14-1.42,3.71-2.82,5.7-3.11,1.99-.28,4.09-1.21,4.66-2.06,.57-.87-1.3-1.79-4.14-2.07-2.85-.29-6.58-1.22-8.29-2.08-1.71-.85-4.97-2.71-7.25-4.14-2.28-1.42-3.68-3.98-3.11-5.69,.57-1.72,1.73-4.51,2.59-6.22,.85-1.72,2.95-5.21,4.66-7.77,1.71-2.56,1.01-4.43-1.55-4.15-2.57,.29-6.29,.98-8.29,1.55-1.99,.57-5.96-.35-8.81-2.07-2.85-1.72-8.68-3.11-12.95-3.11h-11.4c-1.99,0-4.55-2.1-5.69-4.66-1.14-2.56-1.84-6.05-1.55-7.77,.28-1.72,1.91-2.65,3.62-2.07,1.71,.58,5.91-.12,9.32-1.56,3.42-1.42,5.75-4.23,5.18-6.21-.57-1.99,.83-3.4,3.11-3.1,2.28,.28,5.54-.19,7.25-1.05,1.71-.85,3.81-5.51,4.66-10.36,.85-4.84,.62-11.6-.51-15.02-1.14-3.42-4.41-9.01-7.26-12.43-2.85-3.42-7.75-5.99-10.88-5.7-3.13,.29-7.8,1.91-10.36,3.62-2.57,1.71-6.3,5.21-8.29,7.77-2,2.57-6.43,4.44-9.85,4.15-3.41-.29-8.78-.99-11.91-1.55-3.13-.58-7.8-2.44-10.36-4.15-1.6-1.07-4.21-2.01-6.84-2.57,0,0-1.37,3.83-3.06,8.53-1.68,4.7-4.69,9.24-6.68,10.1-1.99,.85-7.36,.61-11.92-.53-4.56-1.13-9.69-1.6-11.4-1.03-1.71,.58-4.51,3.14-6.21,5.71-1.71,2.56-4.51,6.05-6.22,7.77-1.71,1.72-3.81,5.66-4.66,8.81-.86,3.13-1.56,7.09-1.56,8.8v13.98c0,2.56,.7,6.77,1.56,9.33,.85,2.56,.15,6.76-1.56,9.32-1.71,2.56-3.11,4.66-3.11,4.66,0,0,1.87,1.17,4.14,2.59,2.28,1.42,6.24,3.76,8.81,5.18,2.57,1.43,6.52,.26,8.81-2.58,2.28-2.86,2.74-6.58,1.03-8.29-1.71-1.71-3.11-4.28-3.11-5.69s2.8-3.07,6.22-3.63c3.42-.57,8.31,.13,10.88,1.55,2.57,1.43,6.52,5.85,8.8,9.85,2.28,3.97,5.54,11.21,7.25,16.04,1.71,4.84,3.34,13.94,3.63,20.21,.29,6.27,.52,11.4,.52,11.4,0,0,2.56-.7,5.69-1.56,3.13-.86,8.03,.08,10.88,2.07,2.85,1.99,6.58,2.45,8.29,1.03,1.71-1.43,5.2,.9,7.77,5.18,2.57,4.27,7,6.83,9.85,5.69,2.85-1.14,7.51-1.6,10.36-1.03,2.85,.57,7.28-1.3,9.84-4.15,2.56-2.85,5.83-4.71,7.25-4.14,1.43,.57,4.23,1.04,6.22,1.04s3.86,2.8,4.14,6.22c.29,3.42,1.45,7.02,2.59,8.02,1.14,1,2.07,1.79,2.07,1.79,.7-1.53,1.46-3.04,2.08-4.11,1.14-1.99,3-3.4,4.14-3.1,1.14,.28,4.41-.65,7.26-2.08,2.85-1.43,4.48-3.99,3.62-5.7-.86-1.71-.39-4.97,1.03-7.25,1.43-2.28,3.99-4.84,5.7-5.69,1.71-.86,1.25-3.19-1.03-5.18-2.28-2-5.08-3.86-6.22-4.14Z"/><path class="cls-28" d="M641.49,607.35c-.57-2.29-2.67-6.95-4.66-10.37-2-3.42-5.26-5.98-7.26-5.69-1.99,.29-3.39-2.51-3.11-6.22,.29-3.71-.41-8.36-1.56-10.35-1.14-1.99-4.63-4.1-7.77-4.66-3.13-.58-6.63,.13-7.77,1.55-1.14,1.42-3.47,2.35-5.18,2.07-1.71-.29-4.27-1.92-5.7-3.62-1.42-1.71-5.61-3.35-9.32-3.63-3.7-.28-9.07-2.38-11.92-4.66-2.85-2.28-5.18-4.14-5.18-4.14h-6.22c-3.42,0-7.85,1.63-9.84,3.63-1.99,1.99-5.96,3.4-8.81,3.11-2.84-.29-7.28-.06-9.84,.51-2.57,.57-6.99,.57-9.84,0-2.85-.57-7.04,.13-9.32,1.55-2.28,1.43-6.95,4.69-10.37,7.25-3.42,2.56-9.01,7.23-12.43,10.36-3.42,3.13-7.38,10.13-8.81,15.54-1.42,5.42-3.99,12.64-5.7,16.06-1.71,3.42-5.44,6.92-8.29,7.77-2.84,.86-6.81,.86-8.8,0-2-.85-5.03-1.55-6.74-1.55s-3.11,2.57-3.11,5.7,1.4,7.81,3.11,10.37c1.71,2.56,2.41,7.23,1.56,10.36-.86,3.13-3.65,5.92-6.22,6.22-2.57,.29-6.29,3.78-8.29,7.77-1.99,3.98-5.72,8.88-8.29,10.88-2.57,1.99-5.59,2.22-6.74,.51-1.14-1.71-2.77-1.24-3.63,1.04-.86,2.27-1.32,5.77-1.04,7.77,.28,1.99,1.45,6.66,2.59,10.36,1.14,3.7,1.84,9.99,1.55,13.99-.28,3.99-.52,7.25-.52,7.25,2.28,0,5.31,1.17,6.73,2.6,1.42,1.42,.95,4.91-1.04,7.77-1.99,2.85-3.62,7.04-3.62,9.33s1.86,3.91,4.15,3.62c2.28-.29,6.01,1.34,8.29,3.62,2.28,2.28,7.64,3.21,11.91,2.07,4.27-1.14,8.93-2.3,10.36-2.59,1.43-.29,4.22,1.82,6.22,4.66,1.99,2.85,4.79,5.41,6.22,5.7,1.42,.29,2.59-1.12,2.59-3.1s-1.63-5.5-3.63-7.77c-1.99-2.28-3.86-5.79-4.14-7.77-.29-2,1.58-5.5,4.14-7.77,2.57-2.28,4.2-6.24,3.63-8.81-.57-2.56-1.04-6.29-1.04-8.28s.93-4.8,2.07-6.22c1.14-1.43,4.64-2.37,7.77-2.07,3.13,.28,6.16-1.82,6.73-4.67,.57-2.84,3.36-7.97,6.21-11.4,2.85-3.41,6.12-6.44,7.26-6.72,1.14-.29,3.47-3.09,5.18-6.22,1.71-3.14,4.04-7.79,5.18-10.36,1.14-2.56,1.84-6.99,1.55-9.84-.28-2.85,1.12-5.18,3.11-5.18s3.86-.93,4.15-2.08c.28-1.13,3.32-2.54,6.73-3.11,3.42-.57,6.91-2.2,7.77-3.62,.86-1.42,5.29-3.98,9.84-5.7,4.56-1.71,9.22-3.81,10.36-4.66,1.14-.86,6.04-3.19,10.88-5.18,4.84-2,11.37-2.7,14.51-1.55,3.13,1.14,8.73,2.76,12.43,3.62,3.7,.86,10.7,6.45,15.54,12.43,4.84,5.98,10.44,13.44,12.44,16.58l1.99,3.13c.9,1.41,2.4,3.71,3.34,5.1,.93,1.4,2.86,3.28,4.28,4.17,1.41,.9,3.94,1.43,5.61,1.18,1.68-.25,3.25-2.38,3.49-4.7,.25-2.33,.97-6.23,1.61-8.66l1.43-5.41c1.42-5.42,5.15-14.03,8.28-19.16,1.62-2.66,3.53-5.38,5.27-7.58,0,0-4.8-1.79-10.66-3.99-5.87-2.18-11.13-5.85-11.7-8.12Z"/><path class="cls-33" d="M718.68,567.97c-4.27-.56-5.91-3.36-3.63-6.21,2.28-2.85,2.05-7.98-.52-11.4-2.57-3.42-6.06-7.38-7.77-8.81-1.71-1.42-2.18-5.61-1.04-9.33,1.14-3.7,3-10.69,4.15-15.54,1.14-4.83,.9-10.43-.52-12.43-1.43-1.99-5.39-2.46-8.81-1.03-3.42,1.43-8.78,2.36-11.92,2.08-3.13-.29-6.16-2.15-6.73-4.15,0,0-.93,2.44-2.07,5.44-1.14,3-4.4,4.97-7.26,4.4-2.85-.57-10.31-1.03-16.58-1.03s-13.26,2.09-15.54,4.65c-2.28,2.56-6.24,4.89-8.81,5.18-2.56,.29-7.46,1.46-10.88,2.6-3.42,1.14-7.38,.68-8.81-1.04-1.42-1.71-5.62-2.64-9.32-2.07-3.7,.57-10,2.66-13.99,4.67-3.99,1.99-8.65,5.02-10.36,6.73-1.71,1.71-3.58,5.66-4.14,8.81-.57,3.13-1.27,8.5-1.55,11.91-.28,3.42-.52,6.22-.52,6.22,0,0,2.33,1.86,5.18,4.14,2.85,2.28,8.21,4.38,11.92,4.66,3.7,.29,7.9,1.92,9.32,3.63,1.43,1.71,4,3.34,5.7,3.62,1.71,.28,4.04-.65,5.18-2.07,1.14-1.43,4.64-2.13,7.77-1.55,3.14,.56,6.63,2.67,7.77,4.66,1.14,1.99,1.84,6.65,1.56,10.35-.28,3.71,1.12,6.51,3.11,6.22,1.99-.29,5.26,2.28,7.26,5.69,1.99,3.43,4.09,8.08,4.66,10.37,.57,2.27,5.83,5.94,11.7,8.12,5.86,2.19,10.66,3.99,10.66,3.99,1.62-2.06,3.1-3.66,4.06-4.35,2-1.42,4.33-4.69,5.18-7.26,.86-2.56,5.05-6.29,9.32-8.28,4.27-1.99,9.63-5.72,11.91-8.29,2.28-2.56,5.78-5.83,7.77-7.25,1.99-1.43,6.19-3.75,9.32-5.18,3.13-1.43,7.79-4.22,10.36-6.22,2.57-2,1.17-4.09-3.1-4.67Z"/><path class="cls-10" d="M574.15,539.49c.57-3.14,2.43-7.1,4.14-8.81,1.71-1.71,6.37-4.74,10.36-6.73,3.99-2,10.28-4.1,13.99-4.67,3.7-.57,7.9,.36,9.32,2.07,1.43,1.72,5.39,2.18,8.81,1.04,3.41-1.14,8.31-2.31,10.88-2.6,2.56-.29,6.52-2.62,8.81-5.18,2.28-2.56,9.28-4.65,15.54-4.65s13.73,.46,16.58,1.03c2.85,.57,6.12-1.4,7.26-4.4,1.14-3,2.07-5.44,2.07-5.44-.57-1.99-3.83-4.09-7.25-4.67-3.42-.56-7.85-2.67-9.85-4.66-1.99-1.98-4.09-5.26-4.66-7.25-.57-1.99-3.83-2.93-7.25-2.07-3.42,.86-6.22-.08-6.22-2.07s-1.17-3.86-2.59-4.15c-1.43-.29-4.69,.65-7.25,2.08-2.57,1.43-6.53,2.36-8.81,2.08-2.28-.29-6.01-1.46-8.29-2.6-2.28-1.14-6.71,.03-9.84,2.59-3.14,2.56-8.03,6.52-10.88,8.8-2.85,2.29-7.51,5.08-10.36,6.22-2.85,1.14-6.82,2.07-8.81,2.07s-5.72-.7-8.29-1.55c-2.57-.86-3.03,1.24-1.04,4.66,1.99,3.42,3.86,7.39,4.14,8.81,.29,1.42-.41,5.85-1.55,9.84-1.14,3.98-3.71,9.35-5.7,11.91l6.74,8.3Z"/><path class="cls-29" d="M567.41,531.19c-1.99,2.57-6.43,5.83-9.84,7.25-3.42,1.42-10.18,2.12-15.03,1.55-4.84-.56-12.3-1.26-16.58-1.55-4.27-.29-7.77,.88-7.77,2.59s-2.33,4.28-5.18,5.7c-2.84,1.42-5.87,2.12-6.73,1.55-.86-.57-4.12-2.43-7.26-4.15-3.13-1.7-5.7-4.97-5.7-7.25s-1.17-5.54-2.59-7.24c-1.43-1.72-4.22-5.45-6.22-8.3-2-2.85-4.8-5.18-6.22-5.18s-2.59,1.17-2.59,2.59-2.1,4.46-4.66,6.74c-2.56,2.27-7.23,5.54-10.36,7.25-3.14,1.72-6.87,6.37-8.29,10.35-1.42,3.99-3.29,7.95-4.14,8.81-.85,.86-2.02,5.29-2.59,9.84-.57,4.56-3.83,12.72-7.25,18.14-3.42,5.41-8.08,10.06-10.36,10.36-2.28,.28-7.41,2.14-11.4,4.14-3.99,2-10.75,7.12-15.02,11.4-4.27,4.27-11.03,9.63-15.02,11.91-3.99,2.28-9.58,4.61-12.43,5.18-2.85,.57-6.35,1.73-7.77,2.59-1.42,.85-4.22,2.25-6.22,3.1-1.99,.86-6.43,4.12-9.84,7.26-3.42,3.13-3.42,5,0,4.14,3.42-.85,7.38-1.56,8.81-1.56s3.06-1.16,3.63-2.59c.57-1.42,3.13-3.52,5.7-4.66,2.56-1.14,5.83-2.54,7.25-3.1,1.43-.57,4.22-1.97,6.22-3.11,1.99-1.14,5.73-1.84,8.29-1.56,2.56,.29,4.9,2.62,5.18,5.18,.28,2.57,.98,6.3,1.55,8.29,.57,2,.34,5.49-.52,7.77-.85,2.29,.08,4.62,2.07,5.18,1.99,.56,5.49,1.5,7.77,2.06,2.28,.57,4.84,2.9,5.7,5.18,.85,2.28,.85,5.78,0,7.77-.86,1.99-2.72,3.62-4.14,3.62h-6.74c-2.28,0-2.74,.93-1.04,2.07,1.71,1.14,3.57,3.47,4.14,5.18,.57,1.72,1.74,4.51,2.59,6.22,.86,1.71,.86,3.57,0,4.14-.85,.57-2.95,2.2-4.66,3.63-1.71,1.43-1.47,3.29,.52,4.15,1.99,.86,4.1,3.66,4.66,6.22,.57,2.56,.57,6.76,0,9.32-.57,2.56,1.76,4.19,5.18,3.63,3.42-.57,7.38-.57,8.8,0,1.43,.56,4.46,1.03,6.74,1.03,0,0,.23-3.26,.52-7.25,.28-3.99-.41-10.29-1.55-13.99-1.14-3.7-2.31-8.37-2.59-10.36-.28-1.99,.18-5.5,1.04-7.77,.86-2.28,2.49-2.75,3.63-1.04,1.14,1.71,4.17,1.47,6.74-.51,2.57-2.01,6.29-6.9,8.29-10.88,2-3.99,5.72-7.48,8.29-7.77,2.57-.29,5.36-3.08,6.22-6.22,.85-3.13,.16-7.8-1.56-10.36-1.7-2.56-3.11-7.23-3.11-10.37s1.4-5.7,3.11-5.7,4.74,.7,6.74,1.55c1.99,.86,5.96,.86,8.8,0,2.85-.85,6.58-4.35,8.29-7.77,1.71-3.42,4.27-10.64,5.7-16.06,1.43-5.41,5.39-12.41,8.81-15.54,3.42-3.13,9.01-7.8,12.43-10.36,3.42-2.56,8.08-5.83,10.37-7.25,2.28-1.42,6.47-2.12,9.32-1.55,2.85,.57,7.28,.57,9.84,0,2.57-.57,7-.79,9.84-.51,2.85,.29,6.81-1.12,8.81-3.11,1.99-2,6.43-3.63,9.84-3.63h6.22s.23-2.8,.52-6.22c.28-3.41,.98-8.78,1.55-11.91l-6.74-8.3Z"/><path class="cls-9" d="M368.95,421.51l1.34-14.68,6.67-2.66,6.67-8,6.67,4,9.33-4,10.86-2.96s2.83,.95,6.29,2.09c3.46,1.16,8.17,.92,10.48-.53,2.31-1.44,6.55-3.33,9.43-4.19,2.88-.87,6.65-4.4,8.38-7.86,1.73-3.46,5.5-9.59,8.38-13.63,2.88-4.03,7.6-10.4,10.48-14.15,2.88-3.75,7.84-6.1,11.01-5.23,3.17,.86,8.36,1.57,11.53,1.57s6.71,.71,7.86,1.58c1.15,.87,4.69,.63,7.86-.53,3.17-1.15,5.77-2.08,5.77-2.08,0,0,.71-1.66,1.57-3.67,.86-2.02,2.75-4.61,4.2-5.76,1.44-1.15,2.14-4.23,1.57-6.81-.58-2.59,1.07-5.66,3.66-6.81,2.6-1.16,6.84-3.28,9.43-4.72,2.6-1.44,4.72-5.93,4.72-9.96s-.47-9.92-1.05-13.09c-.57-3.18-2.46-6.95-4.19-8.39-1.73-1.44-3.14-4.51-3.14-6.81s1.06-5.96,2.36-8.12c1.3-2.16,2.36-3.93,2.36-3.93-2.59-.29-6.84-.04-9.43,.53-2.59,.57-6.6,.1-8.9-1.06-2.31-1.14-6.79-.44-9.96,1.57-3.17,2.02-7.65,4.38-9.96,5.25-2.31,.87-7.02,1.57-10.48,1.57s-8.17,.71-10.48,1.56c-2.31,.88-6.31,2.53-8.91,3.67-2.59,1.15-6.84,2.8-9.43,3.67-2.6,.87-5.19,2.74-5.76,4.19-.57,1.44,.13,3.56,1.57,4.72,1.44,1.15,2.62,3.97,2.62,6.29s-1.88,6.54-4.19,9.43c-2.31,2.88-7.02,6.18-10.48,7.33-3.46,1.15-9.82,3.98-14.15,6.29-4.32,2.3-11.63,9.38-16.24,15.71-4.61,6.34-10.27,12-12.58,12.58-2.31,.58-7.97,3.88-12.58,7.34-4.61,3.46-12.39,10.76-17.29,16.24-4.9,5.48-12.68,13.26-17.29,17.29-4.61,4.04-10.74,8.99-13.63,11.01-2.88,2.02-8.54,4.84-12.58,6.29-.87,.31-1.84,.57-2.85,.79,0,0-1.95,2.53-4.34,5.63-2.38,3.1-5.28,8.46-6.44,11.92-1.15,3.46-2.09,9.36-2.09,13.1s3.3,7.51,7.34,8.38c4.04,.87,6.15,3.45,4.72,5.76-1.44,2.31-1.44,6.55,0,9.43,1.44,2.88,4.27,5.25,6.29,5.25s5.08-1.19,6.81-2.63c1.73-1.44,4.8-1.44,6.81,0,2.02,1.44,4.61,1.21,5.76-.52,1.15-1.73,2.81-5.5,3.67-8.39,.87-2.88,3.69-6.88,6.29-8.89l11-15.96,6.67-16.01Z"/><path class="cls-23" d="M546.46,449.8c-1.01-5.19-2.78-10.37-3.93-11.53-1.15-1.15-2.1-5.15-2.1-8.9s-.7-8.47-1.57-10.48c-.86-2.02-1.1-7.44-.52-12.06,.58-4.61-1.07-10.74-3.67-13.62-2.6-2.88-4.24-9.25-3.66-14.15,.57-4.9,.34-10.79-.53-13.1-.86-2.31-1.57-4.19-1.57-4.19,0,0-.94-1.88-2.1-4.19-1.15-2.31-4.22-3.72-6.81-3.15-2.59,.58-6.37-.13-8.38-1.57-2.01-1.44-3.67-2.61-3.67-2.61,0,0-2.6,.94-5.77,2.08-3.17,1.16-6.7,1.4-7.86,.53-1.15-.87-4.69-1.58-7.86-1.58s-8.36-.71-11.53-1.57c-3.17-.87-8.12,1.49-11.01,5.23-2.88,3.75-7.6,10.12-10.48,14.15-2.88,4.04-6.65,10.17-8.38,13.63-1.73,3.46-5.5,6.99-8.38,7.86-2.88,.86-7.13,2.75-9.43,4.19-2.31,1.45-7.03,1.68-10.48,.53-3.46-1.15-6.29-2.09-6.29-2.09l-10.86,2.96-9.33,4-6.67-4-6.67,8-6.67,2.66-1.34,14.68-6.67,16.01-11,15.96c2.59-2.02,4.48,.34,4.19,5.23-.29,4.9,1.13,11.5,3.14,14.68,2.02,3.17,3.67,7.42,3.67,9.43s2.12,5.32,4.72,7.33c2.59,2.02,6.84,4.62,9.43,5.78,2.59,1.14,4.72,2.09,4.72,2.09,.58-6.91,3.17-14.7,5.77-17.29,2.59-2.59,7.08-5.66,9.95-6.81,2.88-1.16,6.42-1.63,7.86-1.06,1.44,.58,5.68,1.06,9.43,1.06s6.34,2.59,5.77,5.76c-.58,3.17-.34,6.94,.52,8.38,.86,1.45,2.28,3.57,3.15,4.72,.87,1.15,1.57,3.51,1.57,5.24s1.89,2.2,4.19,1.05c2.31-1.15,4.9-1.63,5.76-1.06,.87,.58,4.17,.34,7.33-.52,3.17-.86,7.42-1.8,9.43-2.09,2.02-.3,3.43-2.65,3.14-5.24-.28-2.59,.89-4.24,2.62-3.67,1.73,.57,4.08-.37,5.24-2.1,1.15-1.73,3.04-2.91,4.19-2.61,1.15,.28,3.51,.04,5.24-.54,1.73-.57,6.21-1.05,9.96-1.05s8.46-.23,10.48-.52c2.02-.29,4.85-2.41,6.29-4.72,1.44-2.31,4.51-4.2,6.82-4.2s3.25,2.36,2.09,5.24c-1.16,2.88-4.22,5.71-6.81,6.28-2.6,.57-3.78,3.41-2.62,6.28,1.15,2.9,3.98,3.83,6.29,2.11,2.3-1.74,5.37-2.91,6.81-2.62,1.44,.29,3.09-.88,3.67-2.62,.58-1.73,.58-4.09,0-5.24-.58-1.15-.35-2.8,.52-3.68,.86-.86,3.23-3.45,5.24-5.75,2.02-2.31,4.61-2.54,5.77-.52,1.15,2.02,2.33,5.07,2.62,6.81,.29,1.73,1.94,2.44,3.67,1.57,1.73-.86,5.5-5.11,8.38-9.43,2.88-4.32,5.95-8.8,6.81-9.95,0,0-.82-4.24-1.83-9.43Z"/><path class="cls-11" d="M368.49,488.71c-2.56-1.99-4.66-5.26-4.66-7.25s-1.63-6.19-3.63-9.33c-1.99-3.13-3.39-9.66-3.11-14.5,.29-4.84-1.58-7.17-4.14-5.18-2.57,2-5.36,5.96-6.22,8.81-.85,2.85-2.48,6.58-3.62,8.29-1.14,1.71-3.7,1.94-5.7,.52-1.99-1.43-5.02-1.43-6.73,0-1.71,1.43-4.74,2.59-6.73,2.59s-4.79-2.33-6.22-5.18c-1.42-2.85-1.42-7.05,0-9.33,1.43-2.28-.67-4.84-4.66-5.69-3.99-.85-7.25-4.59-7.25-8.29s.93-9.53,2.07-12.95c1.14-3.42,4-8.73,6.36-11.78,2.35-3.06,4.29-5.57,4.29-5.57-3.66,.79-7.97,.92-10.65,.25-3.42-.85-8.31,1.72-10.88,5.7-2.56,3.98-7.46,9.58-10.88,12.43-3.42,2.85-8.31,7.74-10.88,10.88-2.56,3.13-5.13,7.32-5.7,9.32-.57,2-4.3,4.1-8.29,4.67-3.99,.56-9.35,1.02-11.91,1.02s-3.73-1.63-2.59-3.62c1.14-1.99-.02-3.63-2.59-3.63s-5.83,1.86-7.25,4.15c-1.43,2.28-3.76,2.28-5.19,0-1.43-2.28-3.75-3.91-5.18-3.63-1.43,.29-4.69,.52-7.25,.52s-5.59-.47-6.73-1.03c-1.14-.57-3,1.99-4.15,5.69-1.14,3.71-3.7,7.43-5.69,8.29-1.99,.85-3.63,3.66-3.63,6.22s.7,6.99,1.55,9.84c.86,2.85,.62,7.51-.52,10.37-1.14,2.84-3.01,5.64-4.15,6.21-1.14,.57-2.3,2.67-2.59,4.66-.28,1.99,.41,6.66,1.56,10.37,1.14,3.7,1.6,9.05,1.03,11.9-.57,2.85-.34,6.13,.52,7.26,.86,1.13,3.42,.2,5.7-2.07,2.28-2.29,6.24-6.95,8.81-10.37,2.56-3.42,6.76-5.75,9.32-5.17,2.56,.57,6.3,3.37,8.29,6.22,1.99,2.85,4.79,7.28,6.22,9.84,1.43,2.56,4.69,4.89,7.25,5.18,2.56,.29,6.99-.64,9.84-2.07,2.85-1.43,5.88-4.46,6.73-6.74,.85-2.28,2.72-5.31,4.14-6.73,1.43-1.42,2.6-.49,2.6,2.07s1.4,5.13,3.11,5.69c1.71,.57,5.21-1.06,7.77-3.62,2.56-2.55,5.59-2.79,6.73-.52,1.14,2.28,3.24,4.15,4.66,4.15s3.29-1.4,4.14-3.11c.86-1.71,4.12-3.34,7.26-3.62,3.13-.29,8.5-1.69,11.91-3.11,3.42-1.43,6.92-1.43,7.77,0,.86,1.42,1.32,4.45,1.04,6.72-.29,2.29-.52,5.09-.52,6.22s.7,2.08,1.55,2.08,2.95-.93,4.66-2.08c1.71-1.13,4.74-.91,6.73,.52,2,1.42,5.49,4.46,7.77,6.74,2.28,2.27,5.78,4.37,7.77,4.66,1.99,.29,5.26,1.69,7.26,3.11,1.99,1.41,4.09,3.76,4.66,5.17,.57,1.43,1.03,3.53,1.03,4.67s-.93,2.54-2.07,3.11c-1.14,.57-2.77,2.67-3.63,4.66-.85,2.01,.54,2.24,3.11,.52,2.56-1.72,6.06-4.51,7.77-6.22s2.41-5.21,1.56-7.77c-.86-2.56-1.32-6.53-1.03-8.8,.28-2.28,1.92-4.15,3.63-4.15s3.81-1.39,4.66-3.1,1.79-7.31,2.07-12.44c.28-5.12,1.45-10.02,2.59-10.88,1.14-.85,2.54-7.15,3.11-13.99,0,0-2.1-.93-4.66-2.07-2.56-1.15-6.76-3.71-9.32-5.71Z"/><path class="cls-27" d="M524.42,285.13c0,2.28,1.4,5.31,3.11,6.74,1.71,1.43,3.57,5.16,4.14,8.29,.57,3.13,1.04,8.96,1.04,12.94s-2.1,8.43-4.66,9.86c-2.56,1.42-6.76,3.51-9.33,4.65-2.56,1.15-4.19,4.17-3.62,6.74,.57,2.57-.13,5.6-1.55,6.73-1.43,1.14-3.29,3.71-4.15,5.71-.85,1.99-1.55,3.63-1.55,3.63,0,0,1.63,1.16,3.63,2.59,1.99,1.42,5.72,2.12,8.29,1.55,2.57-.57,5.59,.83,6.73,3.11,1.14,2.27,2.07,4.14,2.07,4.14,0,0,3.26-3.04,7.25-6.74,3.99-3.71,9.12-9.29,11.4-12.43,2.28-3.13,5.78-5.93,7.77-6.22,2-.29,3.63-1.92,3.63-3.63s.93-3.34,2.07-3.62c1.14-.29,3.71-3.78,5.7-7.78,1.99-3.98,6.65-7.02,10.36-6.73,3.71,.29,8.6,.76,10.88,1.05,2.28,.29,6.24,3.32,8.81,6.73,2.56,3.42,7.93,3.65,11.92,.53,3.99-3.14,11.21-4.78,16.06-3.63,4.84,1.14,10.9,1.84,13.47,1.55,2.57-.28,5.36,2.52,6.22,6.22,.86,3.71,3.18,7.91,5.18,9.33,1.99,1.43,4.56,2.6,5.7,2.6h7.77c3.13,0,8.26-1.87,11.39-4.15,3.13-2.28,5.46-2.04,5.18,.52-.29,2.56-.52,4.67-.52,4.67,0,0,3.5-2.8,7.77-6.22,4.27-3.41,8.24-9.02,8.81-12.44,.57-3.42-.6-7.38-2.59-8.8-1.99-1.43-3.39-4.69-3.11-7.25,.28-2.56-.41-6.53-1.56-8.81-1.14-2.29-2.77-6.48-3.62-9.33-.86-2.84-2.19-7.39-2.96-10.1-.77-2.71-1.4-4.93-1.4-4.93-3.31,1.58-7.12,3.41-9.64,4.67-3.42,1.71-9.71,4.05-13.99,5.18-4.27,1.13-12.43,1.84-18.13,1.55-5.7-.29-14.79,.41-20.2,1.55-5.42,1.14-13.81,1.6-18.65,1.04-4.85-.57-11.38-1.73-14.5-2.59-3.13-.86-8.27-1.33-11.4-1.05-3.14,.29-8.5,1.92-11.92,3.63-3.42,1.71-8.55,4.5-11.39,6.22-2.85,1.71-9.84,.78-15.54-2.07l-3.11-2.07-3.11-2.07c-.57-2.85,.36-6.82,2.07-8.81,1.71-1.99,1.01-3.85-1.55-4.14,0,0-1.05,1.74-2.33,3.88-1.28,2.14-2.33,5.75-2.33,8.02Z"/><path class="cls-4" d="M662.73,402.21c-1.43-2.28-2.59-7.87-2.59-12.43s.7-11.56,1.56-15.54c.85-3.99,3.42-9.58,5.7-12.43,2.28-2.85,6-7.28,8.28-9.85,2.28-2.56,3.91-6.29,3.63-8.27-.29-2.01-.52-3.63-.52-3.63,0,0,.23-2.11,.52-4.67,.28-2.56-2.05-2.8-5.18-.52-3.13,2.28-8.26,4.15-11.39,4.15h-7.77c-1.14,0-3.71-1.17-5.7-2.6-2-1.42-4.33-5.61-5.18-9.33-.86-3.7-3.65-6.5-6.22-6.22-2.57,.29-8.62-.41-13.47-1.55-4.85-1.14-12.07,.49-16.06,3.63-3.99,3.13-9.35,2.9-11.92-.53-2.57-3.41-6.53-6.44-8.81-6.73-2.28-.29-7.17-.75-10.88-1.05-3.7-.29-8.37,2.76-10.36,6.73-1.99,3.99-4.56,7.49-5.7,7.78-1.14,.28-2.07,1.91-2.07,3.62s-1.63,3.34-3.63,3.63c-1.99,.29-5.49,3.08-7.77,6.22-2.28,3.14-7.41,8.73-11.4,12.43-3.99,3.71-7.25,6.74-7.25,6.74,0,0,.7,1.85,1.55,4.14,.86,2.28,1.09,8.11,.52,12.95-.57,4.84,1.06,11.15,3.63,13.99,2.56,2.85,4.2,8.9,3.62,13.46-.57,4.57-.34,9.93,.52,11.93,.86,1.99,1.55,6.66,1.55,10.36s.93,7.67,2.07,8.8c1.14,1.15,2.89,6.27,3.89,11.4,1,5.14,1.81,9.32,1.81,9.32,.86-1.13,3.65-3,6.22-4.13,2.57-1.14,3.73,.25,2.59,3.11-1.14,2.85,1.19,4.24,5.18,3.1,3.99-1.14,10.05-4.18,13.47-6.74,3.42-2.56,9.02-3.26,12.43-1.55,3.42,1.71,6.68,4.74,7.25,6.74,.57,1.99,1.74,4.09,2.59,4.66,.86,.57,2.72,.34,4.14-.52,1.43-.85,3.76-1.32,5.18-1.03,1.43,.29,4.23,.52,6.22,.52s5.26-2.57,7.25-5.71c1.99-3.13,5.26-6.4,7.25-7.25,1.99-.86,3.63-3.42,3.63-5.71s-1.64-3.9-3.63-3.62c-1.99,.28-5.96,1.68-8.81,3.11-2.85,1.42-4.25,1.18-3.11-.53,1.14-1.7,4.4-4.04,7.26-5.18,2.85-1.13,7.51-.67,10.36,1.04,2.85,1.72,6.81,2.88,8.8,2.59,1.99-.29,3.86-1.91,4.14-3.62,.28-1.71,1.69-3.34,3.11-3.62,1.42-.3,3.99-1.93,5.7-3.63,1.71-1.72,3.11-5.21,3.11-7.77s3.5-4.2,7.77-3.64c0,0-.12-2.8-.26-6.21-.14-3.4-1.42-8.07-2.84-10.35Z"/><path class="cls-45" d="M598.76,464.27c-.65,0-1.23-.13-1.65-.41-1.09-.72-2.3-3.11-2.85-5.01-.52-1.83-3.7-4.74-6.93-6.35-3.18-1.59-8.57-.91-11.78,1.49-3.5,2.62-9.63,5.69-13.67,6.84-2.56,.73-4.61,.5-5.62-.63-.73-.81-.84-1.98-.31-3.31,.56-1.4,.44-2.19,.15-2.47-.3-.29-1.02-.23-1.91,.16-2.69,1.19-5.26,2.99-5.97,3.94l-.84,1.12-2.08-10.69c-1.05-5.38-2.8-10.16-3.72-11.08-1.41-1.4-2.25-5.8-2.25-9.24s-.69-8.22-1.5-10.11c-.91-2.11-1.16-7.49-.56-12.25,.54-4.33-1.05-10.27-3.47-12.96-2.68-2.96-4.37-9.46-3.78-14.48,.55-4.7,.33-10.5-.48-12.66l-1.7-4.53,7.56-7.03c3.98-3.7,9.06-9.23,11.32-12.34,2.41-3.31,6.01-6.15,8.18-6.47,1.68-.24,3.09-1.62,3.09-3.01,0-2.02,1.12-3.87,2.55-4.23,.75-.19,3.13-3.12,5.29-7.45,2.11-4.21,7.01-7.41,10.97-7.08,3.47,.27,8.5,.74,10.91,1.05,2.47,.31,6.52,3.37,9.23,6.97,.99,1.32,2.51,2.18,4.28,2.41,2.28,.3,4.74-.43,6.75-2,4.12-3.25,11.56-4.94,16.59-3.75,4.82,1.13,10.76,1.83,13.25,1.54,2.87-.31,5.97,2.69,6.9,6.7,.81,3.54,3.07,7.64,4.93,8.96,2.04,1.47,4.45,2.48,5.34,2.48h7.77c2.98,0,8.03-1.85,11.03-4.03,2.14-1.56,4.04-2.07,5.19-1.4,.44,.25,1.15,.92,.98,2.49l-.51,4.59,.51,3.55c.31,2.2-1.35,6.05-3.78,8.78-2.23,2.51-5.94,6.92-8.26,9.83-2.23,2.78-4.74,8.24-5.58,12.17-.85,3.97-1.54,10.88-1.54,15.41s1.14,9.94,2.5,12.1h0c1.48,2.37,2.8,7.15,2.94,10.66l.29,6.95-.74-.1c-2.54-.34-4.92,.15-6.19,1.26-.58,.51-.87,1.1-.87,1.76,0,2.7-1.48,6.39-3.29,8.21-1.81,1.81-4.45,3.48-6.01,3.8-1.18,.24-2.38,1.66-2.62,3.11-.33,1.99-2.38,3.81-4.67,4.14-2.16,.3-6.21-.86-9.22-2.68-2.66-1.6-7.15-2.05-9.81-.99-2.71,1.09-5.9,3.35-6.97,4.95-.15,.23-.22,.39-.26,.49,.34-.02,1.1-.13,2.57-.87,2.9-1.46,6.93-2.88,9-3.17,1.07-.15,2.09,.15,2.9,.84,.92,.8,1.44,2.03,1.44,3.39,0,2.52-1.8,5.33-4.01,6.28-1.87,.8-5.06,4.01-6.97,7.01-2.14,3.36-5.55,6-7.78,6-2.03,0-4.87-.24-6.34-.54-1.27-.26-3.44,.18-4.74,.96-.99,.6-2.16,.91-3.16,.91Zm-15.61-13.88c1.74,0,3.4,.32,4.75,1,3.62,1.81,6.94,4.94,7.57,7.13,.58,2.01,1.69,3.88,2.34,4.31,.58,.39,2.19,.24,3.47-.53,1.58-.94,4.05-1.43,5.63-1.11,1.38,.28,4.17,.51,6.09,.51,1.58,0,4.66-2.18,6.72-5.42,2.06-3.23,5.44-6.59,7.53-7.49,1.76-.76,3.25-3.11,3.25-5.13,0-1-.37-1.89-1.01-2.45-.53-.46-1.21-.65-1.9-.55-1.92,.27-5.87,1.67-8.61,3.05-3.25,1.62-3.93,.85-4.15,.6-.42-.47-.34-1.16,.24-2.03,1.21-1.8,4.59-4.23,7.54-5.42,3.02-1.2,7.92-.72,10.92,1.08,2.7,1.63,6.54,2.78,8.39,2.51,1.72-.25,3.38-1.67,3.62-3.11,.33-1.98,1.91-3.79,3.6-4.13,1.31-.27,3.77-1.86,5.38-3.46,1.59-1.59,2.93-4.95,2.93-7.33,0-1.02,.45-1.95,1.3-2.7,1.43-1.25,3.81-1.84,6.44-1.64l-.23-5.49c-.13-3.27-1.39-7.87-2.75-10.05-1.48-2.37-2.69-8.1-2.69-12.76s.71-11.63,1.57-15.67c.87-4.09,3.49-9.78,5.82-12.69,2.33-2.92,6.06-7.35,8.3-9.88,2.14-2.4,3.73-5.96,3.48-7.77l-.53-3.71,.53-4.74c.05-.45,.03-1.04-.36-1.27-.55-.32-1.96-.04-3.83,1.33-3.23,2.35-8.5,4.27-11.76,4.27h-7.77c-1.43,0-4.2-1.38-6.06-2.72-2.1-1.49-4.54-5.84-5.42-9.69-.78-3.35-3.3-5.98-5.54-5.73-2.61,.3-8.74-.4-13.68-1.57-4.7-1.1-11.66,.47-15.53,3.52-2.27,1.78-5.07,2.61-7.69,2.26-2.11-.28-3.92-1.31-5.12-2.9-2.45-3.25-6.29-6.22-8.39-6.48-2.14-.27-6.91-.73-10.85-1.04-3.43-.27-7.88,2.66-9.75,6.39-1.82,3.64-4.57,7.71-6.1,8.1-.76,.19-1.6,1.47-1.6,3.01,0,2.01-1.87,3.91-4.16,4.25-1.82,.27-5.19,3-7.35,5.96-2.3,3.16-7.45,8.78-11.48,12.52l-6.94,6.46,1.41,3.74c.88,2.36,1.13,8.3,.56,13.25-.55,4.63,1.04,10.81,3.47,13.5,2.68,2.98,4.37,9.24,3.78,13.95-.55,4.41-.33,9.73,.47,11.6,.89,2.06,1.61,6.81,1.61,10.6s1,7.47,1.89,8.36c1.38,1.39,3.15,7.05,4.06,11.72l1.58,8.15c1.31-1.14,3.49-2.49,5.58-3.42,1.9-.85,2.87-.31,3.28,.08,.78,.75,.83,2.11,.14,3.83-.24,.61-.43,1.45,.07,2.01,.67,.74,2.33,.84,4.36,.26,3.92-1.12,9.87-4.1,13.27-6.64,2.26-1.69,5.41-2.61,8.34-2.61Z"/><path class="cls-14" d="M940.91,173.75c0,2,2.8,5.26,6.21,7.25,3.42,2,9.25,2.93,12.95,2.08,3.71-.86,8.6-1.56,10.88-1.56s6.24,3.5,8.8,7.77c2.57,4.27,4.66,7.78,4.66,7.78,0,0,2.8-.71,6.22-1.56,3.42-.86,6.92-2.72,7.77-4.13,.86-1.43,2.02-4.92,2.59-7.78,.57-2.85,2.89-7.05,5.17-9.32,2.28-2.28,3.22-6.48,2.08-9.33-1.14-2.85-2.07-5.18-2.07-5.18,0,0-1.17-.94-2.59-2.08-1.43-1.13-1.89-3.93-1.04-6.21,.86-2.28,1.09-6.7,.52-9.84-.57-3.14-1.03-7.57-1.03-9.85s.93-7.17,2.08-10.88c1.13-3.7,1.6-8.36,1.03-10.36-.57-1.99-.81-5.72-.52-8.28,.29-2.56,.52-6.53,.52-8.81s1.4-6.48,3.11-9.32c1.71-2.85,3.8-9.14,4.66-13.99,.86-4.84,3.19-10.9,5.18-13.47,1.99-2.55,5.49-5.83,7.77-7.24,2.28-1.42,6.98-2.34,10.44-2.02,3.46,.32,6.29,.58,6.29,.58,.37-2.9,.53-6.19,.36-8.93-.29-4.83-2.85-8.11-5.71-7.25-2.84,.86-6.57,.16-8.28-1.56-1.72-1.7-4.97-2.64-7.26-2.07-2.28,.57-3.2-1.53-2.07-4.67,1.14-3.13,3.24-8.26,4.66-11.39,1.42-3.13,4.23-4.53,6.22-3.11,1.99,1.42,5.02,2.59,6.73,2.59s4.74-1.39,6.73-3.11c1.99-1.7,4.32-4.96,5.17-7.25,.86-2.29,5.06-4.61,9.32-5.18,4.28-.57,8.71-2.2,9.84-3.63,1.15-1.43,2.08-4.22,2.08-6.22v-6.73c0-1.71,1.4-3.81,3.11-4.67,1.71-.85,4.5-2.49,6.21-3.62,1.71-1.14,2.64-5.11,2.08-8.81-.57-3.7-3.37-6.97-6.22-7.25-2.85-.29-8.21,1.12-11.92,3.11-3.71,1.99-8.6,4.56-10.88,5.7-2.28,1.15-7.64,3.48-11.91,5.18-4.27,1.71-11.26,4.51-15.54,6.22-4.27,1.7-11.5,5.2-16.06,7.77-4.56,2.57-8.29,7.46-8.29,10.88s-1.63,8.78-3.62,11.91c-1.99,3.13-3.63,6.86-3.63,8.29s1.4,4.23,3.11,6.21c1.71,2,3.11,5.5,3.11,7.77s.7,7.17,1.55,10.88c.86,3.71,1.55,10.47,1.55,15.03v14.51c0,3.41-1.86,9.95-4.15,14.5-2.28,4.56-8.34,13.65-13.47,20.2-5.13,6.55-12.35,16.34-16.06,21.76-3.71,5.41-8.83,12.87-11.4,16.58-2.56,3.7-8.86,10.7-13.99,15.54-1.78,1.68-3.91,3.34-6.11,4.83,0,0,.67,1.82,1.5,4.05,.83,2.23,1.5,5.69,1.5,7.68Z"/><path class="cls-35" d="M829.01,303.27c1.71,3.7,6.37,7.42,10.36,8.29,3.99,.86,8.88,2.48,10.88,3.62,1.99,1.14,5.73,2.07,8.29,2.07s6.2,2,8.07,4.43c1.87,2.43,3.41,4.42,3.41,4.42,0,0,2.66-3.39,5.92-7.54,3.25-4.14,4.52-8.46,2.81-9.6-1.71-1.15-1.01-5.1,1.55-8.81,2.56-3.71,7.23-7.2,10.36-7.77,3.14-.57,7.33-1.74,9.33-2.59,2-.86,5.72-2.72,8.29-4.15,2.56-1.42,5.83-3.06,7.25-3.62,1.43-.57,2.36-3.14,2.08-5.7-.28-2.56,.41-6.99,1.55-9.85,1.14-2.85,4.87-4.01,8.28-2.59,3.42,1.43,6.22,2.6,6.22,2.6,0,0,1.63-3.73,3.63-8.29,1.99-4.56,9.22-8.07,16.06-7.77,6.84,.29,14.76-.42,17.61-1.55,2.85-1.14,6.81-2.77,8.8-3.63,2-.86,4.33-.62,5.18,.52,.86,1.14,3.42,1.14,5.69,0,2.28-1.14,5.09-1.37,6.22-.52,1.14,.86,3.47-.54,5.18-3.1,1.71-2.56,.54-8.39-2.58-12.96-3.14-4.56-7.8-13.64-10.36-20.2-2.57-6.55-4.67-11.91-4.67-11.91,0,0-2.1-3.5-4.66-7.78-2.56-4.27-6.52-7.77-8.8-7.77s-7.17,.71-10.88,1.56c-3.7,.85-9.53-.08-12.95-2.08-3.42-1.99-6.21-5.25-6.21-7.25s-.67-5.45-1.5-7.68c-.83-2.23-1.5-4.05-1.5-4.05-4.13,2.78-8.53,4.96-11.51,5.52-4.56,.85-8.52,4.11-8.8,7.24-.28,3.14-1.69,7.57-3.11,9.85-1.43,2.28-4.23,6.01-6.22,8.3-2,2.27-4.33,5.76-5.18,7.77-.86,1.99-2.95,5.72-4.66,8.29-1.71,2.56-1.94,7-.52,9.85,1.42,2.84,3.52,7.51,4.66,10.35,1.14,2.85,3.94,7.75,6.22,10.88,2.28,3.14,4.61,9.43,5.18,13.99,.57,4.56-.13,9.23-1.55,10.37-1.43,1.14-3.29-.96-4.14-4.66-.86-3.71-3.89-6.51-6.74-6.22-2.85,.28-5.18,4.01-5.18,8.29s-.7,8.93-1.55,10.36c-.86,1.42-3.42,3.06-5.7,3.62-2.28,.56-5.78-.13-7.77-1.56-1.99-1.42-3.16-.49-2.59,2.08,.56,2.56,.1,5.36-1.04,6.21-1.14,.86-2.31,2.72-2.59,4.15-.28,1.42-2.38,1.2-4.66-.52-2.28-1.72-5.31-2.88-6.74-2.59-1.42,.29-1.19,2.38,.52,4.66,1.71,2.28,1.71,5.08,0,6.21-1.71,1.14-4.27,1.85-5.7,1.56-1.43-.29-4.23-.76-6.21-1.03-2-.29-2.23-2.39-.52-4.67,1.7-2.28,.31-2.51-3.11-.52-3.42,1.99-8.32,3.63-10.88,3.63s-4.2-1.86-3.63-4.14c.57-2.29-.6-3.68-2.59-3.11-1.99,.56-3.62-.83-3.62-3.1,0,0-.47,3.03-1.04,6.73-.57,3.71,.36,9.76,2.07,13.47Z"/><path class="cls-13" d="M949.71,325.02c1.43-2.56,3.06-7.69,3.63-11.4,.57-3.7-.37-11.39-2.07-17.09-1.71-5.7-5.44-11.76-8.29-13.47-2.85-1.72-6.11-6.14-7.25-9.84-1.14-3.7-2.07-6.73-2.07-6.73,0,0-2.8-1.17-6.22-2.6-3.41-1.42-7.14-.26-8.28,2.59-1.14,2.85-1.84,7.28-1.55,9.85,.28,2.56-.65,5.13-2.08,5.7-1.42,.56-4.69,2.2-7.25,3.62-2.57,1.43-6.29,3.29-8.29,4.15-1.99,.85-6.19,2.02-9.33,2.59-3.13,.57-7.79,4.06-10.36,7.77-2.57,3.71-3.27,7.66-1.55,8.81,1.71,1.14,.44,5.46-2.81,9.6-3.26,4.15-5.92,7.54-5.92,7.54,0,0,.8,1.05,1.77,2.31,.98,1.27,1.78,5.34,1.78,9.05s.47,8.59,1.04,10.87c.57,2.28,.34,7.17-.52,10.88-.86,3.7-1.55,9.3-1.55,12.43s1.63,9.19,3.63,13.47c1.99,4.27,5.96,10.09,8.81,12.95,2.85,2.84,6.81,7.04,8.8,9.32,1.99,2.28,3.63,4.14,3.63,4.14,0,0,2.57-.93,5.7-2.07,3.14-1.14,6.87-4.17,8.29-6.74,1.43-2.56,5.85-3.96,9.85-3.11,3.99,.86,10.28,.39,13.98-1.04,3.7-1.42,9.07-4.92,11.92-7.77,2.85-2.85,6.11-8.21,7.25-11.91,1.14-3.7,2.08-10.92,2.08-16.05s-1.17-12.36-2.59-16.06c-1.43-3.71-2.59-6.74-2.59-6.74,0,0-.93-2.33-2.07-5.18-1.15-2.85-.91-7.28,.51-9.85Z"/><path class="cls-32" d="M888.07,419.83c-1.71-.58-4.74,.36-6.74,2.07-1.99,1.71-5.96,1.47-8.8-.52-2.85-1.99-7.75-5.03-10.88-6.73-3.14-1.71-5.7-3.11-5.7-3.11,0,0-.69,2.56-1.55,5.7-.85,3.14-2.48,8.5-3.63,11.92-1.14,3.42-3.24,9.01-4.66,12.43-1.42,3.42-1.42,8.07,0,10.36,1.42,2.28,3.52,6.48,4.66,9.32,1.14,2.85,.91,7.98-.52,11.4-1.42,3.41-2.59,6.21-2.59,6.21,0,0,.47,2.1,1.03,4.66,.57,2.57,.81,6.53,.52,8.81-.28,2.28,1.11,4.15,3.11,4.15s3.85,1.64,4.14,3.63c.29,1.99-1.34,4.56-3.62,5.69-2.28,1.14-7.41,5.8-11.39,10.37-3.99,4.55-7.49,11.08-7.77,14.5-.29,3.42,1.34,8.78,3.62,11.92,2.28,3.13,3.45,8.26,2.59,11.39-.85,3.13-.39,7.56,1.03,9.84,1.43,2.28,4.46,3.21,6.74,2.08,2.28-1.14,8.1-2.08,12.95-2.08s12.3-.24,16.58-.52c4.27-.28,7.77-.52,7.77-.52,0,0,1.17-1.63,2.59-3.62,1.43-1.99,2.83-6.19,3.11-9.32,.28-3.13,4.02-6.86,8.29-8.3,4.28-1.42,8.71-5.85,9.85-9.83,1.14-3.99,2.07-10.52,2.07-14.51s.7-9.12,1.55-11.4c.86-2.28,1.32-6,1.04-8.28-.29-2.28-1.92-6.48-3.63-9.32-1.71-2.86-3.11-6.82-3.11-8.83s1.64-4.54,3.63-5.69c2-1.14,6.42-2.07,9.85-2.07s6.21-3.03,6.21-6.73-1.4-8.38-3.11-10.37c-1.71-1.99-4.97-3.63-7.25-3.63s-6.47-2.11-9.32-4.67c-2.85-2.56-3.78-6.29-2.07-8.28,1.71-1.99,1.47-5.95-.52-8.8-1.99-2.85-3.63-5.18-3.63-5.18,0,0-2.1-.7-4.66-1.55-2.57-.86-6.06-2.03-7.77-2.59Z"/><path class="cls-7" d="M802.6,490.27c5.98-1.13,13.68-2.76,17.09-3.62,3.42-.86,7.85-1.56,9.85-1.56s5.26-1.39,7.25-3.1c1.99-1.71,5.26-3.11,7.25-3.11h3.63s1.17-2.8,2.59-6.21c1.43-3.42,1.66-8.55,.52-11.4-1.14-2.85-3.24-7.04-4.66-9.32-1.42-2.29-1.42-6.95,0-10.36,1.42-3.42,3.52-9.02,4.66-12.43,1.14-3.42,2.77-8.78,3.63-11.92,.86-3.14,1.55-5.7,1.55-5.7,0,0,.7-1.39,1.56-3.1,.85-1.71-1.01-6.83-4.15-11.4-3.13-4.55-7.33-9.92-9.32-11.9-1.99-2-4.56-2-5.7,0-1.14,1.99-3,3.62-4.14,3.62s-4.17-2.8-6.74-6.21c-2.57-3.42-7.23-8.08-10.36-10.36-3.13-2.28-5.7-4.14-5.7-4.14,0,0-.23,2.79-.52,6.21-.28,3.42,1.34,8.78,3.62,11.91,2.28,3.14,4.61,7.34,5.18,9.33,.57,1.99,.57,6.19,0,9.32-.57,3.13-.34,6.86,.52,8.29,.85,1.43,.51,5.22-.77,8.42-1.28,3.19-2.32,5.82-2.32,5.82,1.26,.53,2.33,1.15,3.09,1.82,2.56,2.28,4.66,7.87,4.66,12.44s-1.4,10.15-3.11,12.43c-1.71,2.28-5.44,7.4-8.28,11.39-2.85,3.99-7.28,9.12-9.85,11.4-2.56,2.28-7.46,5.08-10.88,6.22-3.41,1.14-8.08,2.76-10.36,3.62-2.28,.86-6.01,3.19-8.29,5.17-1.14,1-1.59,2.55-1.41,4.24,0,0,4.28-.83,9.51-1.86,5.23-1.02,14.41-2.79,20.39-3.93Z"/><path class="cls-20" d="M820.21,413.08c-.86-1.42-1.09-5.16-.52-8.29,.57-3.13,.57-7.33,0-9.32-.57-1.99-2.9-6.19-5.18-9.33-2.28-3.13-3.91-8.49-3.62-11.91,.29-3.42,.52-6.21,.52-6.21,0,0,1.63-2.33,3.63-5.19,1.99-2.85,1.29-6.34-1.56-7.77-2.85-1.42-6.82-2.82-8.81-3.11-2-.29-5.73-2.15-8.29-4.14-2.56-2-5.6-5.26-6.74-7.25-1.14-2-5.57-5.03-9.84-6.74-4.27-1.71-11.73-4.74-16.58-6.74-4.84-1.99-9.04-5.72-9.32-8.28-.28-2.57-.52-6.06-.52-7.78s2.8-1.94,6.22-.51c3.42,1.42,7.15,.95,8.29-1.04,1.14-1.99,2.07-7.59,2.07-12.43s-1.4-9.51-3.11-10.36c-1.71-.86-4.04-1.32-5.18-1.04-1.14,.29-4.64-1.34-7.77-3.62-3.14-2.28-6.4-6.94-7.25-10.36-.86-3.42-1.56-6.22-1.56-6.22-2.85-.57-7.98-1.03-11.4-1.03s-9.25,.46-12.95,1.03c-3.7,.57-9.3,.57-12.43,0-3.13-.57-8.5-.33-11.92,.52-3.42,.86-9.25,2.95-12.95,4.66-.98,.45-2.11,.98-3.32,1.54,0,0,.63,2.22,1.4,4.93,.77,2.71,2.1,7.25,2.96,10.1,.85,2.85,2.48,7.04,3.62,9.33,1.14,2.28,1.84,6.25,1.56,8.81-.29,2.56,1.11,5.82,3.11,7.25,1.99,1.42,3.16,5.38,2.59,8.8-.57,3.42-4.53,9.03-8.81,12.44-4.27,3.42-7.77,6.22-7.77,6.22,0,0,.23,1.63,.52,3.63,.28,1.99-1.35,5.71-3.63,8.27-2.28,2.57-6.01,7.01-8.28,9.85-2.28,2.84-4.85,8.44-5.7,12.43-.85,3.98-1.56,10.98-1.56,15.54s1.17,10.15,2.59,12.43c1.42,2.28,2.71,6.95,2.84,10.35,.14,3.42,.26,6.21,.26,6.21,4.27,.57,9.4,1.04,11.39,1.04s4.56-.23,5.7-.51c1.14-.29,3.24-1.45,4.66-2.59,1.43-1.14,3.05-3.24,3.63-4.66,.57-1.42,2.67-1.89,4.66-1.03,2,.85,5.03,2.02,6.74,2.59,1.71,.56,4.51,.56,6.22,0,1.71-.57,5.67-1.04,8.81-1.04s9.89,2.33,15.02,5.18c5.13,2.85,12.59,7.51,16.58,10.36,3.99,2.85,10.98,5.88,15.54,6.73,4.56,.86,11.55,1.57,15.54,1.57s9.58-2.34,12.43-5.19c2.85-2.85,9.15-5.41,13.99-5.7,3.41-.2,7.41,.54,10.38,1.8,0,0,1.04-2.62,2.32-5.82,1.27-3.2,1.62-6.99,.77-8.42Z"/><path class="cls-25" d="M886.52,589.21c-1.99-2.56-5.72-7.46-8.29-10.89-2.57-3.41-2.1-8.31,1.03-10.87,3.14-2.56,5.7-4.66,5.7-4.66,0,0-3.5,.23-7.77,.52-4.27,.29-11.73,.52-16.58,.52s-10.67,.94-12.95,2.08c-2.28,1.13-5.31,.21-6.74-2.08-1.42-2.28-1.89-6.71-1.03-9.84,.86-3.14-.31-8.26-2.59-11.39-2.28-3.14-3.91-8.5-3.62-11.92,.28-3.42,3.78-9.95,7.77-14.5,3.99-4.56,9.12-9.23,11.39-10.37,2.28-1.13,3.91-3.7,3.62-5.69-.28-1.99-2.15-3.63-4.14-3.63s-3.39-1.86-3.11-4.15c.28-2.28,.05-6.24-.52-8.81-.57-2.56-1.03-4.66-1.03-4.66h-3.63c-1.99,0-5.26,1.39-7.25,3.11-1.99,1.72-5.26,3.1-7.25,3.1s-6.43,.7-9.85,1.56c-3.42,.86-11.11,2.49-17.09,3.62-5.98,1.15-15.16,2.91-20.39,3.93-5.23,1.02-9.51,1.86-9.51,1.86,.19,1.69,1.02,3.52,2.45,5.09,2.85,3.14,6.58,8.27,8.29,11.41,1.71,3.12,1.24,6.39-1.04,7.25-2.28,.86-5.31,3.65-6.73,6.21-1.43,2.56-.96,5.59,1.03,6.73,2,1.14,3.39,4.4,3.11,7.25-.28,2.85-1.92,6.36-3.63,7.77-1.71,1.43-3.11,6.09-3.11,10.36s1.86,7.77,4.14,7.77,5.08,1.87,6.21,4.15c1.14,2.28,3.94,5.07,6.22,6.22,2.28,1.14,6.01,3.24,8.29,4.65,2.28,1.43,5.55,4.23,7.25,6.23,1.71,1.98,3.11,6.42,3.11,9.83s1.63,8.08,3.63,10.37c1.99,2.27,6.19,6.47,9.32,9.32,3.13,2.85,10.83,7.51,17.1,10.36,6.26,2.85,13.72,5.65,16.58,6.22,2.85,.57,6.34,1.97,7.77,3.1,1.42,1.15,3.99,.44,5.7-1.55,1.71-1.99,4.74-4.79,6.73-6.22,2-1.42,5.96-4.45,8.81-6.73,2.85-2.28,5.18-5.31,5.18-6.74s1.87-4.69,4.15-7.26c2.28-2.56,4.84-6.52,5.69-8.8,0,0-1.98-1.17-4.4-2.59-2.42-1.43-6.04-4.69-8.03-7.25Z"/><path class="cls-12" d="M753.9,282.02c3.13,2.28,6.63,3.91,7.77,3.62,1.14-.28,3.47,.18,5.18,1.04,1.71,.86,3.11,5.52,3.11,10.36s-.93,10.44-2.07,12.43c-1.14,1.99-4.87,2.46-8.29,1.04-3.42-1.43-6.22-1.2-6.22,.51s.23,5.21,.52,7.78c.28,2.56,4.48,6.29,9.32,8.28,4.85,2,12.31,5.03,16.58,6.74,4.27,1.71,8.7,4.74,9.84,6.74,1.14,1.99,4.17,5.25,6.74,7.25,2.56,1.99,6.29,3.85,8.29,4.14,1.99,.29,5.95,1.69,8.81,3.11,2.85,1.43,3.54,4.92,1.56,7.77-2,2.85-3.63,5.19-3.63,5.19,0,0,2.56,1.86,5.7,4.14,3.13,2.28,7.79,6.94,10.36,10.36,2.56,3.41,5.59,6.21,6.74,6.21s3-1.63,4.14-3.62c1.14-2,3.7-2,5.7,0,1.99,1.99,6.19,7.35,9.32,11.9,3.14,4.57,5,9.69,4.15,11.4-.86,1.71-1.56,3.1-1.56,3.1,0,0,2.57,1.4,5.7,3.11,3.13,1.7,8.03,4.74,10.88,6.73,2.85,1.99,6.81,2.23,8.8,.52,1.99-1.71,5.03-2.64,6.74-2.07,1.71,.56,5.2,1.73,7.77,2.59,2.56,.85,4.66,1.55,4.66,1.55l-3.11-12.43s-1.63-1.86-3.63-4.14c-1.99-2.28-5.96-6.47-8.8-9.32-2.85-2.86-6.82-8.68-8.81-12.95-1.99-4.28-3.63-10.34-3.63-13.47s.7-8.73,1.55-12.43c.86-3.71,1.09-8.6,.52-10.88-.57-2.28-1.04-7.18-1.04-10.87s-.8-7.78-1.78-9.05c-.98-1.27-1.77-2.31-1.77-2.31,0,0-1.53-1.99-3.41-4.42-1.87-2.43-5.5-4.43-8.07-4.43s-6.29-.92-8.29-2.07c-1.99-1.14-6.89-2.77-10.88-3.62-3.99-.86-8.65-4.59-10.36-8.29-1.71-3.71-2.64-9.77-2.07-13.47,.57-3.7,1.04-6.73,1.04-6.73,0-2.28-1.17-3.22-2.59-2.08-1.42,1.15-4.45,2.77-6.73,3.63-2.28,.85-3.22,3.42-2.07,5.7,1.14,2.28,.9,4.38-.52,4.67-1.42,.28-3.99,1.45-5.7,2.59-1.71,1.14-3.34-.03-3.63-2.59-.28-2.56-1.68-5.36-3.11-6.22-1.42-.85-2.59-2.71-2.59-4.13s-2.33-1.9-5.18-1.04c-2.85,.85-3.54-1.72-1.56-5.7,1.99-3.99,5.49-9.58,7.77-12.43,2.28-2.85,3.22-7.04,2.08-9.32-1.14-2.28-3.47-5.32-5.18-6.74-1.71-1.43-7.07-1.2-11.92,.52-4.84,1.72-10.91,4.51-13.47,6.22-2.57,1.71-7.23,4.74-10.36,6.73-3.13,1.99-7.33,3.63-9.32,3.63s-5.95-.47-8.8-1.04c0,0,.7,2.8,1.56,6.22,.85,3.42,4.11,8.08,7.25,10.36Z"/><path class="cls-31" d="M303.22,575.75c1.43-.85,3.3-2.72,4.15-4.14,.85-1.43-.54-1.66-3.1-.53-2.57,1.15-4.43,3.01-4.15,4.15,.29,1.15,1.69,1.37,3.11,.52Z"/><path class="cls-8" d="M377.82,537.41c-2.57-.28-4.66,1.59-4.66,4.15s1.17,6.05,2.59,7.77c1.43,1.71,5.39,1.71,8.81,0,3.42-1.72,7.62-1.48,9.32,.52,1.71,1.99,4.51,2.23,6.22,.51,1.71-1.71,3.81-2.88,4.66-2.59,.86,.29,2.49-1.34,3.63-3.61,1.14-2.28-1.42-3.22-5.7-2.08-4.27,1.15-10.57,.67-13.99-1.04-3.42-1.71-8.31-3.34-10.88-3.62Z"/><path class="cls-21" d="M430.14,515.66c0-1.43-.93-2.6-2.07-2.6s-2.07-3.03-2.07-6.73-2.8-7.19-6.21-7.77v6.22c-1.71,3.41-4.27,7.39-5.7,8.8-1.42,1.43,1.6,3.07,6.73,3.63,5.13,.57,9.32-.12,9.32-1.55Z"/><path class="cls-30" d="M377.3,563.83c-1.71,1.15-1.71,3.01,0,4.14,1.71,1.15,3.81,1.38,4.66,.53,.85-.86,.85-2.73,0-4.14-.86-1.43-2.95-1.66-4.66-.52Z"/><path class="cls-39" d="M488.68,499.59c1.99-.57,4.09-1.97,4.66-3.11,.57-1.13,.57-3.23,0-4.66-.57-1.42-1.74-3.52-2.59-4.66-.85-1.14-2.95-2.53-4.66-3.1v6.21c-1.71,2.85-2.64,6.35-2.07,7.77,.57,1.43,2.67,2.12,4.66,1.55Z"/><path class="cls-38" d="M761.67,445.2c-2.28-.29-5.55,1.58-7.25,4.15-1.71,2.56-5.67,5.36-8.81,6.21-3.13,.86-6.86,3.42-8.29,5.7-1.43,2.28-4.23,6.48-6.22,9.32-1.99,2.85-3.63,7.04-3.63,9.33s-2.1,5.08-4.66,6.21c-2.56,1.15-5.59,3.01-6.73,4.14-1.14,1.15-1.37,3.72-.52,5.71,.85,1.99,2.48,3.85,3.63,4.14,1.14,.28,2.54,1.68,3.11,3.1,.57,1.43,1.97,2.83,3.11,3.11,1.14,.29,4.17,.75,6.74,1.03,2.57,.29,6.29-.64,8.29-2.07,1.99-1.43,5.96-3.52,8.8-4.66,2.85-1.14,5.41-3.47,5.7-5.18,.29-1.71-1.11-6.61-3.11-10.88-1.99-4.28-1.53-11.04,1.04-15.02,2.57-3.98,6.52-10.98,8.81-15.54,2.28-4.57,2.28-8.52,0-8.81Z"/><path class="cls-3" d="M654.44,460.74c2,.29,5.49-.18,7.77-1.03,2.28-.86,3.68-4.35,3.11-7.77-.57-3.42-3.37-4.82-6.22-3.11-2.85,1.71-5.88,4.97-6.73,7.25-.86,2.28,.08,4.37,2.07,4.66Z"/><path class="cls-6" d="M381.96,674.17c-1.42-.86-3.52-2.02-4.66-2.58-1.14-.57-1.14,.82,0,3.11,1.14,2.27,3.24,3.44,4.66,2.58,1.42-.85,1.42-2.25,0-3.11Z"/><path class="cls-19" d="M384.55,665.37c-1.71,.56-2.41,1.5-1.56,2.06,.86,.58,2.26,.11,3.11-1.03,.86-1.15,.16-1.6-1.55-1.03Z"/><path class="cls-1" d="M497.48,509.44c-.87,.64-1.61,2.29-1.91,4.05,.11,.02,.25,.07,.36,.09,.92,.21,2.06,.4,3.32,.56,.65-1.34,1.01-2.74,.82-3.67-.28-1.42-1.45-1.88-2.59-1.02Z"/><path class="cls-2" d="M495.57,513.49c-.1,.54-.16,1.1-.16,1.65,0,2.27,1.17,2.74,2.59,1.03,.5-.6,.9-1.31,1.25-2.03-1.26-.15-2.4-.34-3.32-.56-.11-.02-.25-.07-.36-.09Z"/><path class="cls-17" d="M641.49,459.71c0-1.43-.93-1.66-2.07-.53-1.14,1.15-1.14,2.31,0,2.6,1.14,.29,2.07-.65,2.07-2.07Z"/><path class="cls-16" d="M392.84,494.41c.57-1.71,1.27-4.04,1.56-5.18,.28-1.14-.65-.9-2.07,.53-1.43,1.41-2.12,3.75-1.55,5.17,.57,1.42,1.5,1.19,2.07-.52Z"/></g><path class="cls-40" d="M572.46,439.34h19.54v.22l-15.8,11.44,6.2,18.87-.17,.06-16.02-11.61-16.02,11.61-.17-.06,6.2-18.87-15.8-11.44v-.22h19.54l6.14-18.75h.22l6.14,18.75Z"/></g></g><g><path class="cls-40" d="M544.56,353.22c0,3.36-.93,6.11-2.79,8.26-1.86,2.15-4.24,3.22-7.15,3.22s-5.25-1.08-7.12-3.23c-1.87-2.16-2.8-4.91-2.8-8.25s.92-6.14,2.77-8.28c1.85-2.14,4.23-3.21,7.15-3.21s5.29,1.08,7.15,3.23c1.86,2.16,2.79,4.91,2.79,8.25Zm-9.94,8.89c2.06,0,3.68-.79,4.86-2.37,1.18-1.58,1.77-3.75,1.77-6.53s-.59-4.95-1.77-6.53c-1.18-1.58-2.8-2.37-4.86-2.37s-3.69,.78-4.86,2.35-1.75,3.75-1.75,6.54,.59,4.95,1.77,6.53,2.8,2.37,4.84,2.37Z"/><path class="cls-40" d="M553.86,357.09v5.42c0,.49-.1,.88-.3,1.18s-.46,.44-.78,.44h-3.4c-.48,0-.84-.11-1.08-.33-.25-.22-.37-.55-.37-.99,0-.49,.14-.82,.43-1,.29-.18,.9-.27,1.85-.27h.88v-18.81h-.75c-1.05,0-1.73-.09-2.04-.28-.31-.19-.46-.54-.46-1.04,0-.44,.12-.77,.38-.99s.62-.33,1.09-.33h3.51c.33,0,.59,.07,.77,.2s.28,.32,.28,.55v13.17l5.31-4.45c-.4-.17-.7-.36-.89-.57-.19-.21-.29-.45-.29-.74,0-.37,.13-.64,.4-.83,.27-.18,.66-.28,1.18-.28h4.98c.46,0,.82,.1,1.07,.31,.25,.21,.37,.52,.37,.94,0,.73-.59,1.16-1.78,1.29-.23,.02-.42,.05-.55,.07-.5,.06-1.05,.25-1.65,.58-.6,.32-1.21,.76-1.82,1.29l-2.66,2.33,6.96,7.57h1.58c.53,0,.9,.1,1.13,.29,.23,.2,.34,.52,.34,.97s-.13,.76-.38,.98-.62,.34-1.09,.34h-4.98c-.54,0-.93-.09-1.18-.28s-.37-.48-.37-.88c0-.33,.12-.62,.36-.85,.24-.24,.6-.43,1.07-.58l-5.46-5.95-1.65,1.51Z"/><path class="cls-40" d="M584.01,361.8c-1,.91-2.1,1.6-3.28,2.08-1.18,.48-2.4,.72-3.65,.72-1.83,0-3.3-.51-4.42-1.52-1.12-1.02-1.68-2.34-1.68-3.97,0-1.93,.74-3.44,2.23-4.5s3.58-1.6,6.27-1.6c.71,0,1.43,.05,2.15,.14,.72,.09,1.46,.24,2.22,.43v-.13c0-1.41-.34-2.45-1.01-3.12-.67-.67-1.72-1.01-3.14-1.01-.96,0-2.02,.26-3.2,.77s-1.95,.77-2.33,.77c-.36,0-.65-.14-.88-.43s-.35-.66-.35-1.11c0-.72,.68-1.33,2.03-1.84,1.35-.5,3.08-.75,5.19-.75s3.78,.55,4.89,1.64c1.1,1.1,1.65,2.72,1.65,4.86v8.32h.9c.87,0,1.45,.09,1.75,.28,.29,.18,.44,.51,.44,.99,0,.44-.12,.77-.37,.99-.25,.22-.61,.33-1.1,.33h-2.88c-.34,0-.62-.1-.84-.31-.22-.21-.37-.51-.44-.9l-.15-1.12Zm-.15-5.79c-.67-.22-1.33-.38-1.96-.49-.63-.1-1.26-.16-1.88-.16-1.89,0-3.37,.32-4.46,.96-1.09,.64-1.63,1.5-1.63,2.57,0,.83,.34,1.52,1.02,2.06,.68,.54,1.55,.81,2.6,.81,1.56,0,3-.41,4.33-1.22,1.33-.81,1.99-1.66,1.99-2.54v-1.98Z"/><path class="cls-40" d="M600.98,368.83h.79c.89,0,1.5,.09,1.82,.29,.32,.19,.48,.54,.48,1.04,0,.43-.13,.75-.38,.97s-.62,.33-1.09,.33h-8.47c-.58,0-.98-.1-1.2-.29-.23-.2-.34-.53-.34-1.01,0-.44,.12-.77,.36-.99,.24-.22,.6-.33,1.07-.33h3.99l2.98-5.87-6.74-13.22c-.81,0-1.36-.1-1.66-.29s-.45-.54-.45-1.02c0-.43,.12-.75,.37-.96,.24-.21,.61-.32,1.1-.32h5.13c.69,0,1.15,.09,1.38,.28s.35,.52,.35,.99-.15,.83-.46,1.02c-.31,.19-.87,.29-1.69,.29h-.68l4.98,10.14,5.07-10.14h-.72c-.85,0-1.43-.1-1.75-.29-.32-.19-.48-.54-.48-1.02s.12-.81,.35-.99c.23-.19,.7-.28,1.4-.28h4.54c.5,0,.87,.11,1.11,.32,.24,.21,.36,.53,.36,.96,0,.46-.14,.79-.4,.99-.27,.19-.75,.3-1.43,.33l-9.66,19.09Z"/><path class="cls-40" d="M629.17,361.8c-1,.91-2.1,1.6-3.28,2.08-1.18,.48-2.4,.72-3.65,.72-1.83,0-3.3-.51-4.42-1.52-1.12-1.02-1.68-2.34-1.68-3.97,0-1.93,.74-3.44,2.23-4.5s3.58-1.6,6.27-1.6c.71,0,1.43,.05,2.15,.14,.72,.09,1.46,.24,2.22,.43v-.13c0-1.41-.34-2.45-1.01-3.12-.67-.67-1.72-1.01-3.14-1.01-.96,0-2.02,.26-3.2,.77s-1.95,.77-2.33,.77c-.36,0-.65-.14-.88-.43s-.35-.66-.35-1.11c0-.72,.68-1.33,2.03-1.84,1.35-.5,3.08-.75,5.19-.75s3.78,.55,4.89,1.64c1.1,1.1,1.65,2.72,1.65,4.86v8.32h.9c.87,0,1.45,.09,1.75,.28,.29,.18,.44,.51,.44,.99,0,.44-.12,.77-.37,.99-.25,.22-.61,.33-1.1,.33h-2.88c-.34,0-.62-.1-.84-.31-.22-.21-.37-.51-.44-.9l-.15-1.12Zm-.15-5.79c-.67-.22-1.33-.38-1.96-.49-.63-.1-1.26-.16-1.88-.16-1.89,0-3.37,.32-4.46,.96-1.09,.64-1.63,1.5-1.63,2.57,0,.83,.34,1.52,1.02,2.06,.68,.54,1.55,.81,2.6,.81,1.56,0,3-.41,4.33-1.22,1.33-.81,1.99-1.66,1.99-2.54v-1.98Z"/><path class="cls-40" d="M654.34,353.9c0-1.73-.16-2.89-.47-3.5-.31-.61-.84-.91-1.6-.91-.9,0-1.62,.39-2.15,1.18-.53,.78-.8,1.86-.8,3.23v7.64h.33c.74,0,1.24,.09,1.49,.27,.25,.18,.37,.51,.37,1,0,.44-.1,.77-.31,.99-.21,.22-.53,.33-.96,.33h-2.33c-.53,0-.89-.12-1.08-.37-.19-.25-.29-.77-.29-1.58v-9.72c0-.92-.21-1.64-.62-2.18-.42-.53-.99-.8-1.71-.8-.55,0-1.06,.16-1.52,.49-.46,.33-.85,.81-1.19,1.44v10.12h.68c.73,0,1.22,.09,1.48,.28,.26,.18,.38,.51,.38,.99,0,.5-.1,.85-.31,1.04-.21,.19-.6,.29-1.19,.29h-4.88c-.48,0-.83-.11-1.05-.32-.23-.21-.34-.55-.34-1,0-.49,.14-.82,.43-1,.29-.18,.84-.27,1.67-.27h.37v-11.79h-.33c-.85,0-1.43-.1-1.74-.29-.31-.19-.47-.54-.47-1.02,0-.43,.12-.75,.37-.96,.24-.21,.61-.32,1.1-.32h2.81c.4,0,.67,.07,.8,.21,.13,.14,.21,.44,.23,.88,.5-.54,1.04-.93,1.62-1.19,.58-.26,1.23-.38,1.95-.38,.86,0,1.57,.19,2.13,.56,.56,.37,.97,.93,1.24,1.69,.51-.77,1.11-1.33,1.78-1.7s1.45-.55,2.32-.55c1.58,0,2.74,.51,3.47,1.54,.73,1.03,1.09,2.69,1.09,5v8.32h.29c.75,0,1.26,.09,1.51,.28,.25,.18,.38,.51,.38,.99,0,.44-.11,.77-.33,.99-.22,.22-.54,.33-.97,.33h-2.22c-.49,0-.85-.15-1.08-.44-.23-.29-.35-.76-.35-1.4v-8.4Z"/><path class="cls-40" d="M674.33,361.8c-1,.91-2.1,1.6-3.28,2.08-1.18,.48-2.4,.72-3.65,.72-1.83,0-3.3-.51-4.42-1.52-1.12-1.02-1.68-2.34-1.68-3.97,0-1.93,.74-3.44,2.23-4.5s3.58-1.6,6.27-1.6c.71,0,1.43,.05,2.15,.14,.72,.09,1.46,.24,2.22,.43v-.13c0-1.41-.34-2.45-1.01-3.12-.67-.67-1.72-1.01-3.14-1.01-.96,0-2.02,.26-3.2,.77s-1.95,.77-2.33,.77c-.36,0-.65-.14-.88-.43s-.35-.66-.35-1.11c0-.72,.68-1.33,2.03-1.84,1.35-.5,3.08-.75,5.19-.75s3.78,.55,4.89,1.64c1.1,1.1,1.65,2.72,1.65,4.86v8.32h.9c.87,0,1.45,.09,1.75,.28,.29,.18,.44,.51,.44,.99,0,.44-.12,.77-.37,.99-.25,.22-.61,.33-1.1,.33h-2.88c-.34,0-.62-.1-.84-.31-.22-.21-.37-.51-.44-.9l-.15-1.12Zm-.15-5.79c-.67-.22-1.33-.38-1.96-.49-.63-.1-1.26-.16-1.88-.16-1.89,0-3.37,.32-4.46,.96-1.09,.64-1.63,1.5-1.63,2.57,0,.83,.34,1.52,1.02,2.06,.68,.54,1.55,.81,2.6,.81,1.56,0,3-.41,4.33-1.22,1.33-.81,1.99-1.66,1.99-2.54v-1.98Z"/></g><g><path class="cls-40" d="M567.48,416.06h.62c.36,0,.62,.05,.76,.15,.15,.1,.22,.26,.22,.49,0,.25-.06,.42-.19,.52-.13,.1-.38,.15-.74,.15h-3.15c-.21,0-.37-.06-.47-.17-.11-.11-.16-.28-.16-.49,0-.23,.06-.39,.18-.49s.32-.15,.61-.15h.88v-8.3h-.59c-.47,0-.76-.05-.89-.14-.13-.1-.19-.27-.19-.52,0-.21,.05-.38,.16-.49s.27-.17,.47-.17h3.15c.36,0,.61,.05,.74,.15,.13,.1,.19,.27,.19,.52s-.08,.42-.25,.52-.48,.15-.94,.15h-.41v3.75l3.84-3.75h-.31c-.3,0-.52-.05-.65-.16-.14-.1-.2-.27-.2-.51s.05-.41,.16-.51,.27-.15,.51-.15h2.72c.21,0,.37,.06,.48,.17,.11,.11,.17,.28,.17,.49,0,.24-.07,.41-.22,.51-.14,.1-.4,.15-.77,.15h-.13l-3.57,3.45c.53,.11,1.05,.45,1.55,1.03s1.27,1.85,2.32,3.82h.17c.38,0,.64,.05,.76,.14,.13,.09,.19,.26,.19,.5,0,.21-.05,.38-.16,.49-.11,.11-.27,.17-.47,.17h-.88c-.2,0-.34-.02-.43-.06s-.18-.14-.27-.29c-.06-.09-.4-.71-1.02-1.87l-.36-.67c-.39-.72-.77-1.26-1.16-1.62s-.8-.57-1.23-.63l-1.01,.96v2.89Z"/><path class="cls-40" d="M582.8,416.19c-.5,.45-1.05,.8-1.64,1.04-.59,.24-1.2,.36-1.83,.36-.92,0-1.65-.25-2.21-.76-.56-.51-.84-1.17-.84-1.99,0-.97,.37-1.72,1.12-2.26,.75-.53,1.79-.8,3.15-.8,.36,0,.71,.02,1.08,.07,.36,.05,.73,.12,1.11,.22v-.06c0-.71-.17-1.23-.51-1.57-.34-.34-.86-.51-1.58-.51-.48,0-1.01,.13-1.6,.39-.59,.26-.98,.39-1.17,.39-.18,0-.33-.07-.44-.22-.12-.14-.17-.33-.17-.56,0-.36,.34-.67,1.02-.92,.68-.25,1.55-.38,2.6-.38s1.9,.27,2.45,.82,.83,1.36,.83,2.44v4.17h.45c.44,0,.73,.05,.88,.14,.15,.09,.22,.26,.22,.5,0,.22-.06,.39-.18,.5s-.31,.17-.55,.17h-1.45c-.17,0-.31-.05-.42-.16s-.18-.25-.22-.45l-.07-.56Zm-.07-2.9c-.34-.11-.67-.19-.98-.24-.32-.05-.63-.08-.94-.08-.95,0-1.69,.16-2.24,.48s-.82,.75-.82,1.29c0,.42,.17,.76,.51,1.03s.78,.41,1.3,.41c.78,0,1.5-.2,2.17-.61,.67-.41,1-.83,1-1.28v-.99Z"/><path class="cls-40" d="M587.99,416.7v-1.64c0-.27,.05-.46,.15-.58,.1-.12,.27-.17,.49-.17,.25,0,.45,.17,.6,.52,.1,.21,.19,.37,.27,.47,.26,.33,.64,.6,1.14,.8,.5,.2,1.06,.3,1.67,.3,.65,0,1.17-.13,1.57-.4,.39-.26,.59-.61,.59-1.04s-.16-.75-.47-.93c-.32-.18-.86-.28-1.63-.28h-.51c-1.25,0-2.21-.22-2.87-.65-.66-.44-.99-1.07-.99-1.9s.32-1.44,.96-1.89c.64-.45,1.54-.67,2.7-.67,.47,0,.96,.07,1.45,.2,.49,.13,.75,.2,.77,.2,.07,0,.2-.06,.39-.18,.19-.12,.38-.18,.56-.18,.21,0,.36,.08,.47,.23,.1,.15,.15,.38,.15,.69v1.08c0,.33-.05,.56-.15,.71-.1,.14-.25,.22-.47,.22-.18,0-.41-.16-.68-.47-.19-.21-.35-.38-.47-.49-.33-.3-.67-.52-1.04-.65-.37-.13-.8-.2-1.3-.2-.58,0-1.04,.13-1.4,.38s-.53,.58-.53,.97,.18,.66,.54,.83,1.14,.26,2.34,.29c1.28,.03,2.21,.25,2.8,.67,.59,.41,.88,1.05,.88,1.92s-.33,1.49-.98,1.99c-.65,.5-1.53,.75-2.63,.75-.35,0-.74-.03-1.17-.1-.43-.06-.97-.17-1.62-.33-.21,.14-.4,.25-.55,.32-.15,.07-.28,.11-.39,.11-.21,0-.38-.08-.49-.23-.11-.15-.17-.37-.17-.65Z"/><path class="cls-40" d="M605.44,416.19c-.5,.45-1.05,.8-1.64,1.04-.59,.24-1.2,.36-1.83,.36-.92,0-1.65-.25-2.21-.76-.56-.51-.84-1.17-.84-1.99,0-.97,.37-1.72,1.12-2.26,.75-.53,1.79-.8,3.15-.8,.36,0,.71,.02,1.08,.07,.36,.05,.73,.12,1.11,.22v-.06c0-.71-.17-1.23-.51-1.57-.34-.34-.86-.51-1.58-.51-.48,0-1.01,.13-1.6,.39-.59,.26-.98,.39-1.17,.39-.18,0-.33-.07-.44-.22-.12-.14-.17-.33-.17-.56,0-.36,.34-.67,1.02-.92,.68-.25,1.55-.38,2.6-.38s1.9,.27,2.45,.82,.83,1.36,.83,2.44v4.17h.45c.44,0,.73,.05,.88,.14,.15,.09,.22,.26,.22,.5,0,.22-.06,.39-.18,.5s-.31,.17-.55,.17h-1.45c-.17,0-.31-.05-.42-.16s-.18-.25-.22-.45l-.07-.56Zm-.07-2.9c-.34-.11-.67-.19-.98-.24-.32-.05-.63-.08-.94-.08-.95,0-1.69,.16-2.24,.48s-.82,.75-.82,1.29c0,.42,.17,.76,.51,1.03s.78,.41,1.3,.41c.78,0,1.5-.2,2.17-.61,.67-.41,1-.83,1-1.28v-.99Z"/><path class="cls-40" d="M619.48,413.11c0,1.31-.45,2.39-1.34,3.22s-2.06,1.25-3.49,1.25-2.59-.42-3.48-1.25-1.34-1.91-1.34-3.22,.45-2.39,1.34-3.22,2.06-1.25,3.48-1.25,2.59,.42,3.49,1.25c.9,.84,1.35,1.91,1.35,3.21Zm-4.84,3.18c.95,0,1.72-.3,2.33-.9,.6-.6,.91-1.36,.91-2.29s-.3-1.69-.91-2.29c-.61-.6-1.38-.91-2.32-.91s-1.71,.3-2.32,.91c-.6,.6-.91,1.37-.91,2.29s.3,1.7,.9,2.29c.6,.59,1.38,.89,2.32,.89Z"/><path class="cls-40" d="M624.29,413.83v2.72c0,.25-.05,.44-.15,.59-.1,.15-.23,.22-.39,.22h-1.7c-.24,0-.42-.06-.54-.17s-.18-.28-.18-.5c0-.25,.07-.41,.22-.5s.45-.13,.93-.13h.44v-9.43h-.38c-.53,0-.87-.05-1.02-.14-.15-.09-.23-.27-.23-.52,0-.22,.06-.39,.19-.5s.31-.17,.55-.17h1.76c.17,0,.29,.03,.39,.1,.09,.07,.14,.16,.14,.28v6.6l2.66-2.23c-.2-.09-.35-.18-.45-.29-.1-.1-.14-.23-.14-.37,0-.18,.07-.32,.2-.42,.13-.09,.33-.14,.59-.14h2.5c.23,0,.41,.05,.53,.16s.18,.26,.18,.47c0,.37-.3,.58-.89,.65-.12,.01-.21,.02-.28,.04-.25,.03-.53,.13-.83,.29-.3,.16-.61,.38-.91,.65l-1.34,1.17,3.49,3.79h.79c.26,0,.45,.05,.57,.15,.11,.1,.17,.26,.17,.49,0,.21-.06,.38-.19,.49-.13,.11-.31,.17-.55,.17h-2.5c-.27,0-.47-.05-.59-.14-.12-.09-.18-.24-.18-.44,0-.17,.06-.31,.18-.43,.12-.12,.3-.22,.54-.29l-2.74-2.98-.83,.75Z"/><path class="cls-40" d="M639.41,416.19c-.5,.45-1.05,.8-1.64,1.04-.59,.24-1.2,.36-1.83,.36-.92,0-1.65-.25-2.21-.76-.56-.51-.84-1.17-.84-1.99,0-.97,.37-1.72,1.12-2.26,.75-.53,1.79-.8,3.15-.8,.36,0,.71,.02,1.08,.07,.36,.05,.73,.12,1.11,.22v-.06c0-.71-.17-1.23-.51-1.57-.34-.34-.86-.51-1.58-.51-.48,0-1.01,.13-1.6,.39-.59,.26-.98,.39-1.17,.39-.18,0-.33-.07-.44-.22-.12-.14-.17-.33-.17-.56,0-.36,.34-.67,1.02-.92,.68-.25,1.55-.38,2.6-.38s1.9,.27,2.45,.82,.83,1.36,.83,2.44v4.17h.45c.44,0,.73,.05,.88,.14,.15,.09,.22,.26,.22,.5,0,.22-.06,.39-.18,.5s-.31,.17-.55,.17h-1.45c-.17,0-.31-.05-.42-.16s-.18-.25-.22-.45l-.07-.56Zm-.07-2.9c-.34-.11-.67-.19-.98-.24-.32-.05-.63-.08-.94-.08-.95,0-1.69,.16-2.24,.48s-.82,.75-.82,1.29c0,.42,.17,.76,.51,1.03s.78,.41,1.3,.41c.78,0,1.5-.2,2.17-.61,.67-.41,1-.83,1-1.28v-.99Z"/></g><path class="cls-41" d="M583.15,450.38c1.74,0,3.4,.32,4.75,1,3.62,1.81,6.94,4.94,7.57,7.13,.58,2.01,1.69,3.88,2.34,4.31,.58,.39,2.19,.24,3.47-.53,1.58-.94,4.05-1.43,5.63-1.11,1.38,.28,4.17,.51,6.09,.51,1.58,0,4.66-2.18,6.72-5.42,2.06-3.23,5.44-6.59,7.53-7.49,1.76-.76,3.25-3.11,3.25-5.13,0-1-.37-1.89-1.01-2.45-.53-.46-1.21-.65-1.9-.55-1.92,.27-5.87,1.67-8.61,3.05-3.25,1.62-3.93,.85-4.15,.6-.42-.47-.34-1.16,.24-2.03,1.21-1.8,4.59-4.23,7.54-5.42,3.02-1.2,7.92-.72,10.92,1.08,2.7,1.63,6.54,2.78,8.39,2.51,1.72-.25,3.38-1.67,3.62-3.11,.33-1.98,1.91-3.79,3.6-4.13,1.31-.27,3.77-1.86,5.38-3.46,1.59-1.59,2.93-4.95,2.93-7.33,0-1.02,.45-1.95,1.3-2.7,1.43-1.25,3.81-1.84,6.44-1.64l-.23-5.49c-.13-3.27-1.39-7.87-2.75-10.05-1.48-2.37-2.69-8.1-2.69-12.76s.71-11.63,1.57-15.67c.87-4.09,3.49-9.78,5.82-12.69,2.33-2.92,6.06-7.35,8.3-9.88,2.14-2.4,3.73-5.96,3.48-7.77l-.53-3.71,.53-4.74c.05-.45,.03-1.04-.36-1.27-.55-.32-1.96-.04-3.83,1.33-3.23,2.35-8.5,4.27-11.76,4.27h-7.77c-1.43,0-4.2-1.38-6.06-2.72-2.1-1.49-4.54-5.84-5.42-9.69-.78-3.35-3.3-5.98-5.54-5.73-2.61,.3-8.74-.4-13.68-1.57-4.7-1.1-11.66,.47-15.53,3.52-2.27,1.78-5.07,2.61-7.69,2.26-2.11-.28-3.92-1.31-5.12-2.9-2.45-3.25-6.29-6.22-8.39-6.48-2.14-.27-6.91-.73-10.85-1.04-3.43-.27-7.88,2.66-9.75,6.39-1.82,3.64-4.57,7.71-6.1,8.1-.76,.19-1.6,1.47-1.6,3.01,0,2.01-1.87,3.91-4.16,4.25-1.82,.27-5.19,3-7.35,5.96-2.3,3.16-7.45,8.78-11.48,12.52l-6.94,6.46,1.41,3.74c.88,2.36,1.13,8.3,.56,13.25-.55,4.63,1.04,10.81,3.47,13.5,2.68,2.98,4.37,9.24,3.78,13.95-.55,4.41-.33,9.73,.47,11.6,.89,2.06,1.61,6.81,1.61,10.6s1,7.47,1.89,8.36c1.38,1.39,3.15,7.05,4.06,11.72l1.58,8.15c1.31-1.14,3.49-2.49,5.58-3.42,1.9-.85,2.87-.31,3.28,.08,.78,.75,.83,2.11,.14,3.83-.24,.61-.43,1.45,.07,2.01,.67,.74,2.33,.84,4.36,.26,3.92-1.12,9.87-4.1,13.27-6.64,2.26-1.69,5.41-2.61,8.34-2.61Z"/><rect class="cls-5" x="-955.72" y="-1567.53" width="1920" height="6705.39"/></g></g></svg>