<?xml version="1.0" encoding="UTF-8"?><svg id="_レイヤー_2" xmlns="http://www.w3.org/2000/svg" viewBox="0 0 216.75 139.75"><defs><style>.cls-1{fill:#f7b52c;}.cls-1,.cls-2{fill-rule:evenodd;}.cls-2{fill:#268fcf;}</style></defs><g id="_レイヤー_1-2"><g><polygon class="cls-1" points="173.99 14.01 170.02 23.6 183.58 23.6 173.99 14.01"/><polygon class="cls-1" points="177.95 42.76 187.54 46.74 187.54 33.18 177.95 42.76"/><polygon class="cls-1" points="197.12 29.21 206.7 38.8 210.68 29.21 197.12 29.21"/><g><polygon class="cls-2" points="177.96 10.04 187.54 19.63 187.55 6.07 187.55 0 173.66 5.75 177.96 10.04"/><polygon class="cls-2" points="163.94 29.21 169.69 43.09 173.99 38.8 183.57 29.21 170.01 29.21 163.94 29.21"/><polygon class="cls-2" points="211 9.72 206.71 14.02 197.12 23.6 210.68 23.61 216.75 23.61 211 9.72"/><polygon class="cls-2" points="193.15 33.18 193.15 46.74 193.15 52.81 207.03 47.06 202.74 42.77 193.15 33.18"/></g><polygon class="cls-1" points="202.74 10.05 193.15 6.08 193.15 19.63 202.74 10.05"/></g><g><polygon class="cls-1" points="138.21 111.91 135.36 118.79 145.09 118.79 138.21 111.91"/><polygon class="cls-1" points="141.05 132.54 147.93 135.39 147.93 125.66 141.05 132.54"/><polygon class="cls-1" points="154.8 122.82 161.68 129.7 164.53 122.82 154.8 122.82"/><g><polygon class="cls-2" points="141.05 109.07 147.93 115.95 147.93 106.22 147.94 101.86 137.97 105.99 141.05 109.07"/><polygon class="cls-2" points="131 122.81 135.12 132.78 138.21 129.7 145.09 122.82 135.36 122.82 131 122.81"/><polygon class="cls-2" points="164.76 108.84 161.68 111.92 154.8 118.79 164.53 118.8 168.89 118.8 164.76 108.84"/><polygon class="cls-2" points="151.96 125.67 151.95 135.39 151.95 139.75 161.91 135.63 158.83 132.54 151.96 125.67"/></g><polygon class="cls-1" points="158.84 109.07 151.96 106.22 151.96 115.95 158.84 109.07"/></g><g><polygon class="cls-1" points="5.77 112.72 3.49 118.22 11.27 118.22 5.77 112.72"/><polygon class="cls-1" points="8.04 129.22 13.54 131.5 13.55 123.72 8.04 129.22"/><polygon class="cls-1" points="19.04 121.45 24.55 126.95 26.82 121.45 19.04 121.45"/><g><polygon class="cls-2" points="8.04 110.44 13.55 115.95 13.55 108.16 13.55 104.68 5.58 107.98 8.04 110.44"/><polygon class="cls-2" points="0 121.44 3.3 129.41 5.77 126.95 11.27 121.44 3.49 121.44 0 121.44"/><polygon class="cls-2" points="27.01 110.26 24.55 112.72 19.04 118.23 26.83 118.23 30.31 118.23 27.01 110.26"/><polygon class="cls-2" points="16.77 123.72 16.76 131.51 16.76 134.99 24.73 131.69 22.27 129.23 16.77 123.72"/></g><polygon class="cls-1" points="22.27 110.45 16.77 108.17 16.77 115.95 22.27 110.45"/></g></g></svg>