<?xml version="1.0" encoding="UTF-8"?><svg id="_レイヤー_2" xmlns="http://www.w3.org/2000/svg" viewBox="0 0 302.73 248.52"><defs><style>.cls-1{fill:#f7b52c;}.cls-1,.cls-2{fill-rule:evenodd;}.cls-2{fill:#268fcf;}</style></defs><g id="_レイヤー_1-2"><g><polygon class="cls-1" points="259.97 14.01 255.99 23.6 269.55 23.6 259.97 14.01"/><polygon class="cls-1" points="263.93 42.76 273.52 46.74 273.52 33.18 263.93 42.76"/><polygon class="cls-1" points="283.1 29.21 292.68 38.8 296.65 29.21 283.1 29.21"/><g><polygon class="cls-2" points="263.94 10.04 273.52 19.63 273.52 6.07 273.53 0 259.64 5.75 263.94 10.04"/><polygon class="cls-2" points="249.92 29.21 255.67 43.09 259.96 38.8 269.55 29.21 255.99 29.21 249.92 29.21"/><polygon class="cls-2" points="296.98 9.72 292.69 14.02 283.1 23.6 296.66 23.61 302.73 23.61 296.98 9.72"/><polygon class="cls-2" points="279.13 33.18 279.13 46.74 279.12 52.81 293.01 47.06 288.71 42.77 279.13 33.18"/></g><polygon class="cls-1" points="288.72 10.05 279.13 6.08 279.13 19.63 288.72 10.05"/></g><g><polygon class="cls-1" points="82.62 220.68 79.77 227.56 89.5 227.56 82.62 220.68"/><polygon class="cls-1" points="85.47 241.31 92.35 244.16 92.35 234.43 85.47 241.31"/><polygon class="cls-1" points="99.22 231.58 106.1 238.47 108.95 231.59 99.22 231.58"/><g><polygon class="cls-2" points="85.47 217.83 92.35 224.71 92.35 214.98 92.35 210.63 82.39 214.75 85.47 217.83"/><polygon class="cls-2" points="75.41 231.58 79.54 241.54 82.62 238.46 89.5 231.58 79.77 231.58 75.41 231.58"/><polygon class="cls-2" points="109.18 217.6 106.1 220.68 99.22 227.56 108.95 227.56 113.31 227.56 109.18 217.6"/><polygon class="cls-2" points="96.37 234.43 96.37 244.16 96.37 248.52 106.33 244.39 103.25 241.31 96.37 234.43"/></g><polygon class="cls-1" points="103.25 217.84 96.37 214.99 96.37 224.71 103.25 217.84"/></g><g><polygon class="cls-1" points="5.77 225.98 3.49 231.48 11.27 231.48 5.77 225.98"/><polygon class="cls-1" points="8.04 242.48 13.54 244.76 13.55 236.98 8.04 242.48"/><polygon class="cls-1" points="19.04 234.7 24.55 240.21 26.82 234.7 19.04 234.7"/><g><polygon class="cls-2" points="8.04 223.7 13.55 229.21 13.55 221.42 13.55 217.94 5.58 221.24 8.04 223.7"/><polygon class="cls-2" points="0 234.7 3.3 242.67 5.77 240.2 11.27 234.7 3.49 234.7 0 234.7"/><polygon class="cls-2" points="27.01 223.52 24.55 225.98 19.04 231.48 26.83 231.48 30.31 231.49 27.01 223.52"/><polygon class="cls-2" points="16.77 236.98 16.76 244.76 16.76 248.25 24.73 244.95 22.27 242.48 16.77 236.98"/></g><polygon class="cls-1" points="22.27 223.7 16.77 221.42 16.77 229.21 22.27 223.7"/></g><g><polygon class="cls-1" points="109.07 77.25 100.69 96.94 129.31 96.95 109.07 77.25"/><polygon class="cls-1" points="117.44 136.31 137.68 144.46 137.68 116.62 117.44 136.31"/><polygon class="cls-1" points="157.9 108.47 178.14 128.17 186.53 108.48 157.9 108.47"/><g><polygon class="cls-2" points="117.45 69.11 137.69 88.8 137.7 60.95 137.7 48.48 108.39 60.29 117.45 69.11"/><polygon class="cls-2" points="87.86 108.46 100 136.97 109.07 128.16 129.31 108.47 100.68 108.46 87.86 108.46"/><polygon class="cls-2" points="187.22 68.45 178.15 77.26 157.91 96.95 186.54 96.96 199.36 96.96 187.22 68.45"/><polygon class="cls-2" points="149.53 116.62 149.52 144.47 149.52 156.94 178.83 145.13 169.77 136.31 149.53 116.62"/></g><polygon class="cls-1" points="169.78 69.11 149.54 60.96 149.53 88.8 169.78 69.11"/></g></g></svg>